<?xml version="1.0" encoding="utf-8"?>
<!-- Generator: Adobe Illustrator 16.0.0, SVG Export Plug-In . SVG Version: 6.00 Build 0)  -->
<!DOCTYPE svg PUBLIC "-//W3C//DTD SVG 1.1//EN" "http://www.w3.org/Graphics/SVG/1.1/DTD/svg11.dtd">
<svg version="1.1" id="Ebene_1" xmlns="http://www.w3.org/2000/svg" xmlns:xlink="http://www.w3.org/1999/xlink" x="0px" y="0px"
	 width="89px" height="88.978px" viewBox="-4 -4.009 89 88.978" enable-background="new -4 -4.009 89 88.978" xml:space="preserve">
<g id="Pfade" display="none">
	<g id="g8" display="inline">
	</g>
	<g id="g10" display="inline">
	</g>
	<g id="g12" display="inline">
	</g>
	<g id="g14" display="inline">
	</g>
	<g id="g16" display="inline">
	</g>
	<g id="g18" display="inline">
	</g>
	<g id="g20" display="inline">
	</g>
	<g id="g22" display="inline">
	</g>
	<g id="g24" display="inline">
	</g>
	<g id="g26" display="inline">
	</g>
	<g id="g28" display="inline">
	</g>
	<g id="g30" display="inline">
	</g>
	<g id="g32" display="inline">
	</g>
	<g id="g34" display="inline">
	</g>
	<g id="Ebene_2" display="inline">
	</g>
	<g display="inline">
		<path fill="none" stroke="#9BC325" stroke-linecap="round" stroke-linejoin="round" stroke-miterlimit="10" d="M80.497,33.823
			v-10.38c0-0.007-0.004-0.013-0.004-0.019c0-1.125-0.912-2.038-2.037-2.038s-2.037,0.912-2.037,2.037V34.56
			c0,0.364-0.194,0.7-0.51,0.882c-0.314,0.184-0.703,0.184-1.02,0c-0.316-0.182-0.51-0.518-0.51-0.882V23.427v-0.001v-0.001V20.37
			c0-1.117-0.898-2.026-2.017-2.038c-1.118-0.013-2.034,0.879-2.057,1.996v0.034l-0.009,13.313c0,0.364-0.192,0.701-0.508,0.882
			c-0.315,0.184-0.705,0.184-1.02,0c-0.314-0.182-0.51-0.518-0.51-0.882l-0.002-15.344l0.004-0.016
			c-0.01-1.117-0.917-2.021-2.035-2.021c-1.117,0.021-2.016,0.922-2.039,2.038c0,0.012-0.007,0.021-0.007,0.035v4.997
			c0,0.021,0.007,0.042,0.007,0.063c0,0.011-0.007,0.021-0.007,0.031v8.223c0,0.364-0.194,0.701-0.511,0.883
			c-0.314,0.184-0.705,0.184-1.021-0.001c-0.313-0.183-0.508-0.52-0.508-0.884v-8.313c-0.033-1.112-0.953-1.992-2.063-1.977
			c-1.113,0.019-2.007,0.925-2.004,2.037l-0.003,0.014l-0.012,4.188c-0.004,0.03-0.007,0.061-0.007,0.092v12.648l-2.971-3.822
			c-0.004-0.006-0.014-0.009-0.018-0.015c-0.914-1.179-2.609-1.392-3.787-0.478s-1.393,2.61-0.477,3.787l7.25,9.33v3.154
			c-0.524,0.775-1.105,1.513-1.727,2.211l1.129,6.33c0.272,1.534-0.652,2.233-2.056,1.555l-5.815-2.817
			c-2.754,1.311-5.833,2.046-9.086,2.046c-3.08,0-6.002-0.662-8.642-1.845l-6.573,3.62c-1.366,0.754-2.269,0.111-2.008-1.426
			l1.289-7.576c-0.583-0.664-1.126-1.363-1.623-2.097v0.913c0,0.029-0.002,0.062-0.006,0.092l-0.012,4.188l-0.003,0.016
			c0.002,1.11-0.892,2.021-2.003,2.037c-1.113,0.017-2.033-0.862-2.064-1.977v-8.313c0-0.364-0.192-0.701-0.509-0.886
			c-0.315-0.183-0.704-0.183-1.019-0.001c-0.316,0.184-0.512,0.521-0.512,0.885v8.224c0,0.011-0.006,0.02-0.006,0.031
			c0,0.021,0.006,0.041,0.006,0.063v4.997c0,0.012-0.006,0.022-0.006,0.035c-0.023,1.116-0.923,2.014-2.039,2.038
			c-1.119-0.002-2.026-0.905-2.035-2.023l0.002-0.014V47.288c0-0.364-0.193-0.7-0.51-0.882c-0.314-0.184-0.703-0.184-1.019,0
			c-0.315,0.182-0.509,0.518-0.509,0.882L10.687,60.6v0.035c-0.022,1.117-0.939,2.007-2.057,1.996
			c-1.118-0.011-2.017-0.92-2.016-2.038v-3.055v-0.001v-0.001V46.401c0-0.362-0.194-0.698-0.51-0.882
			c-0.314-0.182-0.703-0.182-1.019,0c-0.315,0.184-0.51,0.52-0.51,0.882v11.139c0,0.152-0.019,0.304-0.052,0.448
			c6.496,13.312,20.16,22.481,35.97,22.481c17.229,0,31.912-10.892,37.542-26.166c0,0,2.457-11.216,2.457-11.883v-1.952v-6.584
			C80.5,33.862,80.499,33.842,80.497,33.823z"/>
	</g>
	<g display="inline">
		<path fill="none" stroke="#9BC325" stroke-linecap="round" stroke-linejoin="round" stroke-miterlimit="10" d="M22.944,31.787
			v-3.154c3.81-5.627,10.25-9.325,17.557-9.325c7.305,0,13.748,3.698,17.556,9.324v-0.913c0-0.031,0.003-0.062,0.007-0.092
			l0.013-4.188l0.002-0.014c-0.002-1.112,0.892-2.02,2.004-2.037c1.112-0.017,2.033,0.862,2.063,1.977v8.313
			c0,0.364,0.192,0.701,0.508,0.884c0.315,0.185,0.705,0.185,1.021,0.001c0.316-0.182,0.511-0.519,0.511-0.883v-8.223
			c0-0.012,0.007-0.021,0.007-0.031c0-0.021-0.007-0.042-0.007-0.063v-4.996c0-0.014,0.007-0.022,0.007-0.035
			c0.023-1.116,0.922-2.016,2.039-2.038c1.118,0.002,2.025,0.905,2.035,2.021l-0.003,0.016l0.001,15.344
			c0,0.364,0.193,0.7,0.51,0.882c0.314,0.183,0.703,0.183,1.02,0c0.314-0.182,0.509-0.518,0.509-0.882l0.008-13.313v-0.034
			c0.021-1.117,0.938-2.009,2.058-1.996c1.116,0.011,2.016,0.92,2.016,2.038v3.055v0.001v0.001v11.134c0,0.364,0.193,0.7,0.51,0.882
			c0.314,0.184,0.703,0.184,1.02,0c0.314-0.182,0.51-0.519,0.51-0.882V23.422c0-0.154,0.019-0.304,0.051-0.449
			C69.973,9.662,56.309,0.491,40.5,0.491c-17.229,0-31.912,10.892-37.542,26.166c0,0-2.458,11.216-2.458,11.883v1.952l0,0v6.584
			c0,0.02,0.002,0.04,0.003,0.06v10.379c0,0.006,0.004,0.012,0.004,0.02c0,1.125,0.912,2.038,2.038,2.038
			c1.125,0,2.038-0.912,2.038-2.037V46.397c0-0.363,0.194-0.699,0.51-0.883c0.315-0.182,0.703-0.182,1.019,0
			c0.315,0.184,0.51,0.52,0.51,0.883v11.135v0.001v0.001v3.055c0,1.117,0.898,2.026,2.016,2.038
			c1.117,0.011,2.034-0.879,2.057-1.996v-0.035l0.008-13.312c0-0.364,0.193-0.701,0.509-0.883c0.315-0.183,0.704-0.183,1.019,0
			s0.51,0.519,0.51,0.883v15.344l-0.002,0.014c0.009,1.119,0.916,2.021,2.035,2.023c1.116-0.023,2.014-0.922,2.039-2.038
			c0-0.012,0.006-0.022,0.006-0.035v-4.997c0-0.021-0.006-0.042-0.006-0.063c0-0.014,0.006-0.021,0.006-0.031v-8.225
			c0-0.363,0.195-0.7,0.512-0.884c0.314-0.182,0.703-0.182,1.019,0.001c0.315,0.185,0.509,0.521,0.509,0.885v8.313
			c0.032,1.112,0.952,1.992,2.064,1.976c1.113-0.018,2.005-0.926,2.003-2.036l0.003-0.016l0.012-4.188
			c0.004-0.03,0.006-0.063,0.006-0.093V40.588l2.972,3.822c0.005,0.006,0.013,0.009,0.018,0.015c0.914,1.177,2.61,1.391,3.788,0.477
			c1.178-0.915,1.391-2.609,0.477-3.786L22.944,31.787z"/>
	</g>
	<g display="inline">
		<path fill="#9BC325" d="M63.672,32.561c-0.314,0.184-0.705,0.184-1.021-0.001c-0.315-0.183-0.508-0.52-0.508-0.884v0.002
			c0,0.364,0.192,0.701,0.508,0.884c0.315,0.185,0.705,0.185,1.021,0.001c0.315-0.182,0.511-0.519,0.511-0.883v-0.002
			C64.183,32.043,63.989,32.38,63.672,32.561z"/>
		<path fill="#9BC325" d="M47.762,25.692l-1.729-3.371l0,0l-4.528-8.834c-0.711-1.387-1.855-1.377-2.541,0.023l-3.096,6.316l0,0
			l-0.564,1.149l-0.659,1.345l0,0l-1.919,3.915c-0.686,1.4-2.504,2.767-4.04,3.035l-5.744,1.008v1.51l7.254,9.327
			c0.914,1.177,0.701,2.871-0.477,3.786c-1.178,0.914-2.874,0.7-3.788-0.477c-0.005-0.006-0.013-0.009-0.018-0.015l-2.972-3.822
			v1.908l1.074,0.993c1.145,1.059,1.867,3.184,1.606,4.721l-1.057,6.215l-1.289,7.576c-0.261,1.537,0.642,2.18,2.008,1.426
			l12.582-6.93c1.366-0.752,3.631-0.812,5.033-0.131l12.502,6.057c1.402,0.68,2.328-0.021,2.055-1.555l-2.422-13.58
			c-0.104-0.579-0.07-1.246,0.069-1.912l-4.3-5.533c-0.915-1.177-0.701-2.873,0.477-3.787s2.873-0.701,3.787,0.478
			c0.004,0.006,0.014,0.009,0.018,0.015l2.971,3.822V29.211l-6.184-0.686C50.323,28.355,48.473,27.079,47.762,25.692z"/>
	</g>
</g>
<g id="Ebene_2_1_">
	<g>
		<path fill="#9BC325" d="M47.762,25.692l-1.729-3.371l0,0l-4.528-8.834c-0.711-1.387-1.855-1.377-2.541,0.023l-3.096,6.316l0,0
			l-0.564,1.149l-0.659,1.345l0,0l-1.919,3.915c-0.686,1.4-2.504,2.767-4.04,3.035l-5.744,1.008v1.51l7.254,9.327
			c0.914,1.177,0.701,2.871-0.477,3.786c-1.178,0.914-2.874,0.7-3.788-0.477c-0.005-0.006-0.013-0.009-0.018-0.015l-2.972-3.822
			v1.908l1.074,0.993c1.145,1.059,1.867,3.184,1.606,4.721l-1.057,6.215l-1.289,7.576c-0.261,1.537,0.642,2.18,2.008,1.426
			l12.582-6.93c1.366-0.752,3.631-0.812,5.033-0.131l12.502,6.057c1.402,0.68,2.328-0.021,2.055-1.555l-2.422-13.58
			c-0.104-0.579-0.07-1.246,0.069-1.912l-4.3-5.533c-0.915-1.177-0.701-2.873,0.477-3.787s2.873-0.701,3.787,0.478
			c0.004,0.006,0.014,0.009,0.018,0.015l2.971,3.822V29.211l-6.184-0.686C50.323,28.355,48.473,27.079,47.762,25.692z"/>
	</g>
	<g>
		<path fill="#9BC325" d="M40.5-1.009c15.245,0,28.913,8.144,36.243,21.358c0.51-0.286,1.088-0.463,1.713-0.463
			c1.914,0,3.479,1.529,3.535,3.431c0.004,0.042,0.006,0.084,0.006,0.126v10.321C81.999,33.785,82,33.807,82,33.82
			c0,0.021,0,0.043,0,0.065v6.584v1.952c0,0.551-0.838,4.656-2.492,12.204c-0.016,0.066-0.033,0.133-0.059,0.197
			C73.465,71.06,57.813,81.969,40.501,81.969c-15.246,0-28.914-8.146-36.245-21.36c-0.509,0.284-1.087,0.462-1.711,0.462
			c-0.236,0-0.467-0.023-0.69-0.067c-0.076-0.017-0.146-0.046-0.221-0.065c-0.144-0.039-0.289-0.073-0.425-0.13
			c-0.082-0.033-0.156-0.082-0.235-0.121c-0.119-0.06-0.241-0.114-0.352-0.188c-0.078-0.051-0.146-0.114-0.22-0.171
			c-0.101-0.077-0.204-0.15-0.295-0.237c-0.07-0.066-0.127-0.143-0.191-0.215c-0.082-0.092-0.167-0.182-0.24-0.281
			c-0.058-0.08-0.103-0.168-0.153-0.252c-0.063-0.104-0.128-0.206-0.18-0.317c-0.043-0.092-0.072-0.188-0.107-0.285
			c-0.042-0.113-0.086-0.227-0.116-0.346c-0.026-0.102-0.037-0.208-0.053-0.313c-0.015-0.099-0.042-0.191-0.049-0.291l-0.013-0.042
			v-0.234V47.177L-1,47.125v-0.049v-6.584V38.54c0-0.043,0.007-0.116,0.018-0.203c0.002-0.023,0.006-0.049,0.009-0.075
			c0.011-0.083,0.025-0.179,0.043-0.292c0.004-0.025,0.007-0.047,0.012-0.073c0.023-0.144,0.053-0.31,0.086-0.498
			c0.007-0.037,0.015-0.08,0.022-0.118c0.03-0.162,0.063-0.339,0.1-0.529c0.012-0.061,0.023-0.12,0.035-0.184
			c0.094-0.485,0.209-1.059,0.345-1.719c0.018-0.088,0.037-0.18,0.056-0.271c0.055-0.268,0.113-0.547,0.174-0.841
			c0.02-0.097,0.04-0.188,0.06-0.288c0.076-0.362,0.156-0.742,0.241-1.142c0.009-0.042,0.017-0.079,0.026-0.122
			c0.349-1.642,0.77-3.589,1.266-5.853c0.015-0.067,0.034-0.133,0.058-0.197C7.536,9.901,23.188-1.009,40.5-1.009 M40.5-4.009
			c-18.563,0-35.347,11.697-41.764,29.109c-0.07,0.189-0.129,0.392-0.174,0.593c-0.498,2.271-0.919,4.225-1.27,5.871l-0.013,0.063
			l-0.002,0.01l-0.011,0.054l-0.241,1.145l-0.032,0.154l-0.03,0.144l-0.027,0.131l-0.148,0.716l-0.059,0.284
			C-3.406,34.92-3.523,35.505-3.619,36l-0.017,0.088l-0.018,0.091l-0.105,0.561l-0.012,0.065l-0.001,0.005l-0.009,0.048
			c-0.04,0.221-0.072,0.402-0.097,0.561l-0.016,0.099c-0.019,0.12-0.037,0.241-0.051,0.343l-0.014,0.111l0,0
			C-3.987,38.194-4,38.37-4,38.54v1.952v6.584v0.083l0.003,0.084v10.271v0.234v0.46l0.083,0.264c0.007,0.038,0.014,0.07,0.019,0.097
			l0.003,0.023c0.026,0.184,0.058,0.365,0.103,0.542c0.062,0.248,0.139,0.455,0.19,0.592l0.027,0.074
			c0.059,0.169,0.122,0.336,0.197,0.496c0.108,0.232,0.221,0.418,0.295,0.541l0.027,0.045c0.104,0.182,0.193,0.326,0.293,0.464
			c0.156,0.218,0.304,0.381,0.402,0.489l0.036,0.039c0.116,0.139,0.233,0.268,0.361,0.39c0.195,0.188,0.374,0.321,0.493,0.41
			l0.044,0.034c0.13,0.106,0.267,0.212,0.411,0.306c0.241,0.156,0.454,0.261,0.595,0.33l0.028,0.015
			c0.163,0.09,0.314,0.165,0.473,0.229c0.281,0.114,0.538,0.184,0.707,0.229l0.018,0.006c0.151,0.049,0.294,0.089,0.443,0.118
			c0.445,0.088,0.872,0.13,1.293,0.13c0.089,0,0.178-0.002,0.267-0.006C10.905,77.016,25.14,84.969,40.5,84.969
			c18.563,0,35.348-11.698,41.765-29.11c0.065-0.173,0.127-0.382,0.174-0.597C85,43.574,85,42.934,85,42.42v-1.952v-6.584
			c0-0.067,0-0.135-0.004-0.202v-0.017V23.443c0-0.098-0.004-0.195-0.011-0.295c-0.146-3.518-3-6.261-6.53-6.261
			c-0.09,0-0.181,0.002-0.271,0.006C70.094,3.943,55.862-4.009,40.5-4.009L40.5-4.009z"/>
	</g>
	<path fill="#9BC325" d="M63.672,32.563"/>
	<path fill="#9BC325" d="M63.672,32.563"/>
	<g>
		<polygon fill="#9BC325" points="59.573,23.93 59.899,23.616 59.991,23.438 59.903,23.613 59.918,23.596 59.877,23.657 
			59.881,23.651 59.573,23.99 		"/>
		<path fill="#9BC325" d="M40.5-1.009c-17.312,0-32.964,10.909-38.949,27.146c-0.024,0.064-0.043,0.13-0.058,0.197
			c-0.496,2.264-0.917,4.211-1.266,5.853c-0.009,0.043-0.017,0.079-0.026,0.122c-0.084,0.399-0.165,0.779-0.241,1.142
			c-0.02,0.099-0.04,0.191-0.06,0.289c-0.061,0.293-0.12,0.572-0.174,0.84c-0.019,0.091-0.038,0.183-0.056,0.271
			c-0.136,0.66-0.25,1.233-0.345,1.719c-0.012,0.063-0.023,0.123-0.035,0.184c-0.037,0.19-0.07,0.367-0.1,0.529
			c-0.007,0.038-0.015,0.082-0.022,0.118c-0.034,0.188-0.063,0.354-0.086,0.498c-0.004,0.026-0.008,0.049-0.012,0.073
			c-0.018,0.112-0.032,0.209-0.043,0.292c-0.003,0.025-0.007,0.052-0.009,0.075C-0.993,38.424-1,38.497-1,38.54v1.952v6.584v0.049
			l0.003,0.053v10.337v0.234l0.013,0.042c0.007,0.1,0.034,0.192,0.049,0.291c0.017,0.104,0.027,0.211,0.053,0.313
			c0.03,0.119,0.075,0.231,0.116,0.346c0.035,0.097,0.064,0.193,0.107,0.285c0.052,0.111,0.118,0.214,0.18,0.317
			c0.051,0.084,0.096,0.172,0.153,0.252c0.072,0.101,0.158,0.189,0.24,0.281c0.064,0.072,0.122,0.147,0.191,0.215
			c0.091,0.087,0.194,0.16,0.295,0.237c0.074,0.057,0.142,0.12,0.22,0.171c0.111,0.071,0.233,0.128,0.352,0.188
			c0.079,0.039,0.153,0.088,0.235,0.121c0.136,0.057,0.281,0.091,0.425,0.13c0.075,0.021,0.145,0.05,0.221,0.065
			c0.224,0.044,0.454,0.067,0.69,0.067c0.624,0,1.202-0.178,1.711-0.462c7.331,13.216,21,21.36,36.245,21.36
			c17.312,0,32.964-10.909,38.949-27.146c0.024-0.064,0.043-0.131,0.059-0.197c1.654-7.548,2.492-11.653,2.492-12.204v-1.952v-6.584
			c0-0.021,0-0.043,0-0.065c-0.002-0.013-0.002-0.033-0.004-0.056V23.443c0-0.042-0.002-0.083-0.007-0.126
			c-0.057-1.9-1.62-3.431-3.534-3.431c-0.625,0-1.203,0.178-1.713,0.463C69.415,7.135,55.747-1.009,40.5-1.009L40.5-1.009z
			 M2.545,59.571c-1.126,0-2.038-0.912-2.038-2.037c0-0.008-0.004-0.014-0.004-0.02V47.135c-0.001-0.02-0.003-0.04-0.003-0.06
			v-6.584V38.54c0-0.021,0.002-0.054,0.007-0.095c0.001-0.016,0.005-0.039,0.008-0.059c0.004-0.03,0.007-0.058,0.013-0.096
			c0.002-0.016,0.006-0.034,0.008-0.05c0.008-0.051,0.016-0.102,0.026-0.161c0.001-0.006,0.002-0.015,0.003-0.021
			c0.013-0.075,0.027-0.154,0.043-0.244c0-0.001,0.001-0.004,0.001-0.006c0.017-0.093,0.036-0.192,0.056-0.3
			c0.004-0.021,0.009-0.044,0.013-0.065c0.017-0.088,0.034-0.179,0.053-0.274c0.007-0.034,0.014-0.072,0.021-0.106
			c0.044-0.224,0.091-0.464,0.144-0.723c0.002-0.009,0.004-0.019,0.006-0.029c0.237-1.175,0.551-2.667,0.861-4.125
			c0.603-2.83,1.195-5.53,1.195-5.53C8.588,11.383,23.272,0.491,40.5,0.491c13.252,0,24.979,6.458,32.256,16.383
			c-0.125-0.016-0.248-0.041-0.377-0.042c-1.043,0-1.979,0.443-2.633,1.148c-0.179-1.781-1.691-3.184-3.516-3.188
			c-0.001,0-0.002,0-0.002,0c-0.012,0-0.021,0-0.031,0c-1.888,0.038-3.406,1.519-3.504,3.393c-0.008,0.062-0.012,0.122-0.012,0.181
			v2.63c-0.645-0.688-1.557-1.107-2.571-1.107c-0.008,0-0.047,0-0.055,0c-1.899,0.03-3.446,1.58-3.479,3.47
			c-0.002,0.026-0.002,0.053-0.002,0.076l-0.011,3.25c-3.885-4.517-9.642-7.379-16.064-7.379c-7.307,0-13.747,3.698-17.557,9.325
			v3.154l0.312,0.4l6.942,8.926c0.914,1.178,0.701,2.872-0.477,3.787c-0.492,0.383-1.075,0.567-1.654,0.567
			c-0.805,0-1.603-0.359-2.134-1.044c-0.005-0.006-0.013-0.009-0.018-0.015l-2.972-3.822v10.24v1.5v0.907
			c0,0.03-0.002,0.063-0.006,0.093l-0.012,4.188l-0.003,0.015c0.002,1.111-0.89,2.021-2.003,2.037c-0.003,0-0.005,0-0.008,0
			c-0.07,0-0.138-0.012-0.207-0.019c-0.069-0.006-0.139-0.007-0.206-0.021c-0.063-0.012-0.121-0.033-0.181-0.052
			c-0.066-0.02-0.134-0.034-0.197-0.061c-0.059-0.023-0.111-0.058-0.167-0.086c-0.059-0.031-0.121-0.059-0.176-0.095
			c-0.054-0.034-0.101-0.079-0.151-0.119c-0.05-0.039-0.104-0.075-0.149-0.119c-0.049-0.048-0.089-0.103-0.132-0.153
			c-0.04-0.046-0.083-0.089-0.119-0.139c-0.043-0.062-0.076-0.129-0.112-0.194c-0.026-0.048-0.058-0.092-0.081-0.143
			c-0.038-0.082-0.063-0.172-0.088-0.261c-0.011-0.038-0.029-0.074-0.038-0.112c-0.03-0.131-0.048-0.266-0.052-0.403v-8.31v-0.005
			c0-0.363-0.193-0.7-0.509-0.885c-0.079-0.046-0.162-0.08-0.248-0.103c-0.007-0.002-0.014-0.001-0.02-0.003
			c-0.081-0.021-0.164-0.029-0.247-0.029c-0.174,0-0.348,0.044-0.504,0.134c-0.316,0.183-0.512,0.521-0.512,0.884v0.005V57.5
			c0,0.01-0.006,0.019-0.006,0.031c0,0.021,0.006,0.042,0.006,0.063v4.997c0,0.013-0.006,0.023-0.006,0.035
			c-0.025,1.116-0.923,2.015-2.039,2.038c-0.14,0-0.276-0.016-0.408-0.042c-0.923-0.188-1.618-1.001-1.626-1.979
			c0-0.001,0-0.002,0-0.003l0.002-0.014V47.288v-0.005c0-0.364-0.194-0.7-0.51-0.883c-0.095-0.056-0.198-0.088-0.303-0.109
			c-0.069-0.016-0.139-0.021-0.209-0.021c-0.073,0-0.147,0.008-0.22,0.024c-0.099,0.021-0.196,0.055-0.287,0.106
			c-0.315,0.182-0.509,0.519-0.509,0.883l-0.008,13.312V60.6v0.03c-0.003,0.139-0.02,0.273-0.049,0.405
			c-0.012,0.055-0.035,0.104-0.051,0.155c-0.023,0.074-0.042,0.15-0.073,0.222c-0.023,0.053-0.057,0.101-0.084,0.149
			c-0.035,0.063-0.065,0.13-0.107,0.189c-0.034,0.049-0.076,0.09-0.114,0.135c-0.045,0.054-0.086,0.111-0.137,0.16
			c-0.042,0.042-0.093,0.075-0.139,0.112c-0.054,0.045-0.104,0.092-0.163,0.131c-0.051,0.033-0.108,0.058-0.162,0.086
			c-0.061,0.033-0.118,0.069-0.183,0.097c-0.058,0.023-0.12,0.036-0.181,0.055c-0.066,0.021-0.13,0.047-0.198,0.061
			c-0.064,0.012-0.131,0.013-0.197,0.02c-0.071,0.008-0.14,0.021-0.212,0.021c-0.003,0-0.005,0-0.008,0
			c-1.117-0.012-2.016-0.921-2.016-2.038v-3.055v-0.001v-0.001V46.402v-0.004c0-0.363-0.194-0.699-0.51-0.883
			c-0.158-0.091-0.333-0.137-0.509-0.137c-0.176,0-0.352,0.046-0.509,0.137c-0.315,0.184-0.51,0.52-0.51,0.883v0.004v11.134
			c0,0.149-0.019,0.297-0.05,0.438C4.5,58.106,4.454,58.233,4.4,58.355c-0.013,0.028-0.029,0.057-0.043,0.084
			c-0.049,0.1-0.105,0.193-0.169,0.281c-0.012,0.018-0.025,0.034-0.038,0.051c-0.081,0.104-0.17,0.202-0.27,0.288
			c-0.001,0.001-0.001,0.001-0.002,0.002c-0.107,0.093-0.224,0.175-0.348,0.244c-0.035,0.021-0.069,0.04-0.104,0.057
			c-0.046,0.022-0.091,0.047-0.139,0.064c-0.076,0.03-0.155,0.053-0.235,0.073C3.01,59.51,2.97,59.524,2.927,59.532
			C2.806,59.556,2.677,59.571,2.545,59.571L2.545,59.571z M64.19,23.426c0-0.021-0.007-0.042-0.007-0.062v-4.997
			c0-0.015,0.007-0.023,0.007-0.035c0.023-1.116,0.922-2.017,2.039-2.038c0.839,0.001,1.559,0.509,1.87,1.233
			c0.021,0.047,0.028,0.097,0.046,0.144c0.025,0.078,0.059,0.155,0.075,0.237c0.011,0.052,0.011,0.107,0.018,0.161
			c0.011,0.082,0.025,0.162,0.026,0.246l-0.003,0.016l0.001,15.344c0,0.364,0.193,0.7,0.51,0.882
			c0.157,0.091,0.333,0.137,0.509,0.137c0.177,0,0.353-0.045,0.511-0.137c0.314-0.181,0.508-0.518,0.508-0.882l0.009-13.313v-0.002
			v-0.032c0.003-0.14,0.021-0.274,0.049-0.405c0.013-0.058,0.036-0.111,0.056-0.167c0.021-0.071,0.039-0.145,0.068-0.21
			c0.025-0.06,0.063-0.112,0.094-0.168c0.032-0.058,0.061-0.118,0.098-0.171c0.039-0.057,0.086-0.104,0.131-0.155
			c0.04-0.047,0.074-0.098,0.119-0.141c0.05-0.049,0.105-0.086,0.16-0.129c0.047-0.038,0.09-0.08,0.142-0.113
			c0.058-0.037,0.119-0.064,0.18-0.096c0.056-0.029,0.106-0.063,0.165-0.087c0.063-0.024,0.128-0.039,0.193-0.059
			c0.063-0.019,0.121-0.042,0.186-0.055c0.065-0.014,0.135-0.015,0.201-0.021c0.069-0.007,0.139-0.02,0.209-0.02
			c0.003,0,0.005,0,0.008,0c1.117,0.012,2.016,0.921,2.016,2.038v3.055v0.001v0.001V34.56v0.002c0,0.364,0.193,0.7,0.511,0.882
			c0.157,0.092,0.334,0.138,0.51,0.138c0.177,0,0.353-0.045,0.511-0.138c0.313-0.182,0.508-0.518,0.508-0.882V34.56V23.424
			c0-0.005,0.002-0.009,0.002-0.014c0,0,0,0.001,0,0.002c0-0.146,0.019-0.289,0.049-0.427c0.031-0.14,0.076-0.272,0.135-0.398
			c0.007-0.015,0.016-0.028,0.023-0.043c0.056-0.114,0.119-0.225,0.195-0.325c0.006-0.009,0.014-0.016,0.02-0.024
			c0.082-0.105,0.173-0.204,0.273-0.292c0-0.001,0.002-0.003,0.004-0.004c0.106-0.092,0.223-0.174,0.347-0.242
			c0.295-0.165,0.63-0.269,0.991-0.269c1.125,0,2.037,0.913,2.037,2.038c0,0.006,0.004,0.012,0.004,0.019v10.38
			c0,0.02,0.004,0.04,0.004,0.063v6.584v1.952c0,0.667-2.457,11.883-2.457,11.883C72.417,69.58,57.734,80.472,40.505,80.472
			c-13.254,0-24.982-6.46-32.261-16.387c0.127,0.016,0.25,0.042,0.381,0.043c1.041,0,1.979-0.444,2.633-1.15
			c0.177,1.782,1.691,3.187,3.515,3.188c1.894-0.039,3.397-1.482,3.532-3.319l0.012-0.047l0.003-0.207V59.96
			c0.643,0.688,1.556,1.106,2.573,1.106H20.9h0.042c1.11-0.018,2.092-0.561,2.729-1.381L23.277,62
			c-0.187,1.1,0.222,1.742,0.971,1.742c0.297,0,0.648-0.103,1.037-0.316l6.573-3.62c2.64,1.182,5.562,1.845,8.642,1.845
			c3.253,0,6.333-0.735,9.086-2.046l5.815,2.817c0.364,0.177,0.696,0.26,0.983,0.26c0.818,0,1.273-0.678,1.07-1.813l-1.129-6.33
			c0.621-0.698,1.202-1.436,1.729-2.211v-3.154l-7.251-9.33c-0.915-1.177-0.701-2.873,0.477-3.787
			c0.492-0.382,1.075-0.566,1.653-0.566c0.805,0,1.602,0.358,2.134,1.044c0.004,0.006,0.013,0.009,0.019,0.015l2.97,3.822V30.132
			v-1.5V27.72c0-0.031,0.003-0.062,0.007-0.092l0.012-4.188l0.002-0.014c-0.002-1.112,0.893-2.02,2.004-2.037
			c0.004,0,0.006,0,0.01,0c0.072,0,0.144,0.011,0.215,0.02c0.064,0.006,0.133,0.007,0.195,0.02c0.006,0.001,0.014,0.002,0.02,0.004
			c-0.006-0.002-0.012-0.003-0.018-0.004c0.006,0.001,0.012,0.002,0.018,0.004c0.027,0.006,0.055,0.017,0.081,0.023
			c0.087,0.021,0.174,0.045,0.257,0.079c0.02,0.007,0.036,0.016,0.055,0.023c-0.018-0.008-0.033-0.016-0.052-0.022
			c0.019,0.007,0.034,0.015,0.052,0.022c0.015,0.007,0.028,0.015,0.043,0.021c0.006,0.002,0.01,0.005,0.016,0.007
			c-0.006-0.002-0.01-0.005-0.016-0.007c0.01,0.005,0.019,0.009,0.027,0.014c0.068,0.033,0.137,0.067,0.201,0.107
			c0.041,0.024,0.08,0.055,0.119,0.083c0.06,0.043,0.115,0.088,0.171,0.137c0.036,0.033,0.071,0.067,0.104,0.104
			c0.051,0.053,0.098,0.107,0.142,0.165c0.03,0.039,0.06,0.078,0.087,0.119c0.041,0.063,0.076,0.128,0.111,0.196
			c0.021,0.042,0.045,0.083,0.063,0.126c0.032,0.076,0.057,0.157,0.08,0.237c0.011,0.04,0.025,0.076,0.035,0.116
			c0.025,0.123,0.045,0.25,0.049,0.381v8.312v0.002c0,0.364,0.193,0.701,0.508,0.884c0.158,0.092,0.334,0.139,0.512,0.139
			c0.176,0,0.352-0.045,0.508-0.138c0.316-0.182,0.512-0.519,0.512-0.883v-0.002v-8.221C64.183,23.448,64.19,23.437,64.19,23.426
			L64.19,23.426L64.19,23.426z M28.067,46.969c0.94,0,1.83-0.306,2.574-0.883c1.829-1.421,2.161-4.063,0.741-5.893l-6.226-8.006
			l-0.712-0.916v-2.17c3.697-5.202,9.666-8.294,16.057-8.294c6.395,0,12.359,3.102,16.056,8.31v6.877l-0.285-0.367
			c-0.027-0.035-0.057-0.069-0.088-0.103c-0.801-0.978-1.979-1.535-3.248-1.535c-0.939,0-1.83,0.305-2.573,0.883
			c-0.886,0.688-1.45,1.679-1.592,2.792c-0.14,1.113,0.162,2.215,0.851,3.101l6.937,8.924v2.17
			c-0.405,0.566-0.856,1.133-1.349,1.685c-0.306,0.344-0.438,0.808-0.355,1.261l1.109,6.227l-5.721-2.771
			c-0.207-0.101-0.432-0.15-0.654-0.15c-0.221,0-0.44,0.05-0.646,0.146c-2.651,1.261-5.492,1.9-8.441,1.9
			c-2.787,0-5.488-0.576-8.029-1.715c-0.195-0.087-0.404-0.131-0.613-0.131c-0.25,0-0.499,0.063-0.724,0.188l-6.333,3.486
			l1.243-7.304c0.076-0.445-0.053-0.901-0.351-1.241c-0.451-0.515-0.865-1.051-1.25-1.593v-6.882l0.288,0.37l0.016,0.02l0.01,0.013
			c0.002,0.004,0.005,0.007,0.008,0.01c0.001,0.001,0.002,0.002,0.003,0.003l0.126,0.152l0.011,0.008
			c0.101,0.115,0.222,0.206,0.334,0.31c0.097,0.089,0.185,0.188,0.289,0.268c0.144,0.108,0.302,0.192,0.458,0.281
			c0.105,0.062,0.203,0.135,0.313,0.186c0.181,0.084,0.374,0.138,0.566,0.193c0.098,0.029,0.189,0.073,0.289,0.097
			C27.45,46.933,27.755,46.969,28.067,46.969L28.067,46.969z M61.241,21.737c-0.018-0.011-0.033-0.021-0.051-0.032
			C61.208,21.715,61.223,21.726,61.241,21.737c0.016,0.013,0.031,0.023,0.049,0.035C61.272,21.76,61.256,21.749,61.241,21.737
			L61.241,21.737z M61.566,22.01c-0.026-0.027-0.054-0.054-0.081-0.08C61.513,21.956,61.54,21.982,61.566,22.01L61.566,22.01z
			 M61.797,22.293c-0.021-0.029-0.041-0.058-0.063-0.085C61.756,22.236,61.778,22.264,61.797,22.293L61.797,22.293z M61.976,22.618
			c-0.013-0.029-0.028-0.058-0.042-0.085C61.948,22.561,61.963,22.589,61.976,22.618L61.976,22.618z M62.095,22.977
			c-0.007-0.024-0.017-0.048-0.022-0.073C62.081,22.929,62.088,22.952,62.095,22.977L62.095,22.977z M24.433,55.213l0.003-0.947
			c0.045,0.052,0.086,0.107,0.131,0.159L24.433,55.213L24.433,55.213z M60.519,21.432c0.024,0.006,0.05,0.017,0.076,0.022
			C60.569,21.448,60.543,21.439,60.519,21.432L60.519,21.432z M60.913,21.558c0.014,0.007,0.027,0.016,0.043,0.021
			C60.94,21.573,60.924,21.565,60.913,21.558L60.913,21.558z M76.418,23.406c0,0.001,0,0.003,0,0.004
			C76.418,23.408,76.418,23.407,76.418,23.406L76.418,23.406z M64.19,23.425L64.19,23.425L64.19,23.425L64.19,23.425z"/>
	</g>
</g>
</svg>
