<?xml version="1.0" encoding="utf-8"?>
<!-- Generator: Adobe Illustrator 22.1.0, SVG Export Plug-In . SVG Version: 6.00 Build 0)  -->
<svg version="1.1" id="Logo" xmlns="http://www.w3.org/2000/svg" xmlns:xlink="http://www.w3.org/1999/xlink" x="0px" y="0px"
	 viewBox="0 0 505 285.8" style="enable-background:new 0 0 505 285.8;" xml:space="preserve">
<style type="text/css">
	.st0{fill:#6AA17C;}
	.st1{font-family:'Roboto-Black';}
	.st2{font-size:35.1499px;}
</style>
<g>
	<path class="st0" d="M119.2,103.5V70.1h12.2c3.9,0,7.2,1.3,9.9,3.8c2.6,2.6,4,5.8,4,9.9v6c0,4-1.3,7.3-4,9.9
		c-2.6,2.6-5.9,3.8-9.9,3.8H119.2z M126.9,76.1v21.5h4.5c1.8,0,3.2-0.7,4.3-2.2c1.1-1.4,1.7-3.3,1.7-5.6v-6.1c0-2.2-0.6-4.1-1.7-5.5
		c-1.1-1.4-2.6-2.2-4.3-2.2H126.9z"/>
	<path class="st0" d="M157.5,72.9h-7.8v-5.2h7.8V72.9z M157.5,103.5h-7.8V78.7h7.8V103.5z"/>
	<path class="st0" d="M173.3,104c-3.8,0-6.7-1.1-8.8-3.4s-3.2-5.2-3.2-8.7v-0.9c0-3.8,1-6.9,3-9.3c2-2.4,4.9-3.6,8.7-3.6
		c3.3,0,5.9,1,7.8,3c1.8,2,2.8,4.7,2.8,8.2v4.1h-14.2l0,0.1c0.1,1.3,0.6,2.4,1.4,3.2c0.8,0.8,2,1.2,3.6,1.2c1.5,0,2.7-0.1,3.7-0.4
		c1-0.2,2.1-0.6,3.4-1.2l1.9,4.7c-1.1,0.8-2.5,1.4-4.3,2S175.3,104,173.3,104z M173,84.2c-1.2,0-2.2,0.4-2.7,1.2
		c-0.6,0.8-0.9,1.9-1,3.2l0,0.1h6.7v-0.6c0-1.3-0.2-2.3-0.7-2.9C174.8,84.5,174.1,84.2,173,84.2z"/>
	<path class="st0" d="M206.7,92.1v11.5H199V70.1h12.8c4,0,7.1,1,9.4,3c2.3,2,3.5,4.7,3.5,8s-1.2,5.9-3.5,8s-5.5,3-9.4,3H206.7z
		 M206.7,86.1h5c1.7,0,3-0.5,3.9-1.4c0.9-0.9,1.3-2.1,1.3-3.6c0-1.5-0.4-2.7-1.3-3.6c-0.9-0.9-2.2-1.4-3.9-1.4h-5V86.1z"/>
	<path class="st0" d="M236.6,103.5h-7.8V67.7h7.8V103.5z"/>
	<path class="st0" d="M255.7,103.5c-0.3-0.5-0.5-1.1-0.7-1.8c-0.2-0.7-0.4-1.3-0.5-2.1c-0.7,1.3-1.5,2.4-2.5,3.2
		c-1,0.8-2.3,1.2-3.9,1.2c-2.6,0-4.6-0.7-6.1-2c-1.4-1.3-2.2-3.2-2.2-5.5c0-2.5,0.9-4.4,2.8-5.7c1.9-1.3,4.7-2,8.4-2h3.2v-1.8
		c0-1.1-0.3-1.9-0.8-2.4s-1.3-0.8-2.3-0.8c-0.9,0-1.6,0.2-2,0.6c-0.4,0.4-0.7,1.1-0.7,2l-7.5,0l0-0.1c-0.1-2.3,0.8-4.2,2.8-5.7
		c2-1.5,4.6-2.3,7.9-2.3c3.1,0,5.6,0.8,7.5,2.3s2.9,3.7,2.9,6.6v9.4c0,1.3,0.1,2.5,0.3,3.7c0.2,1.1,0.6,2.3,1,3.4L255.7,103.5z
		 M250.3,98.5c0.9,0,1.8-0.2,2.5-0.7s1.2-1,1.5-1.6V93h-3.1c-1.2,0-2.1,0.3-2.7,0.9s-0.8,1.4-0.8,2.3c0,0.7,0.2,1.3,0.7,1.7
		C248.9,98.3,249.5,98.5,250.3,98.5z"/>
	<path class="st0" d="M275.2,72.5v6.2h3.9v5.4h-3.9v11.4c0,0.9,0.2,1.5,0.5,1.9c0.4,0.4,0.8,0.6,1.5,0.6c0.4,0,0.7,0,1,0
		c0.2,0,0.5-0.1,0.9-0.2l0.5,5.7c-0.8,0.2-1.5,0.3-2.1,0.4c-0.6,0.1-1.4,0.1-2.2,0.1c-2.6,0-4.5-0.7-5.8-2c-1.3-1.4-2-3.5-2-6.5
		V84.1H264v-5.4h3.5v-6.2H275.2z"/>
	<path class="st0" d="M291.8,72.5v6.2h3.9v5.4h-3.9v11.4c0,0.9,0.2,1.5,0.5,1.9c0.4,0.4,0.8,0.6,1.5,0.6c0.4,0,0.7,0,1,0
		c0.2,0,0.5-0.1,0.9-0.2l0.5,5.7c-0.8,0.2-1.5,0.3-2.1,0.4c-0.6,0.1-1.4,0.1-2.2,0.1c-2.6,0-4.5-0.7-5.8-2c-1.3-1.4-2-3.5-2-6.5
		V84.1h-3.5v-5.4h3.5v-6.2H291.8z"/>
	<path class="st0" d="M301.1,103.5V84.1h-3.6v-5.4h3.6v-2.6c0-2.8,0.9-5,2.6-6.6c1.7-1.5,4.1-2.3,7.3-2.3c0.6,0,1.2,0,1.8,0.1
		c0.6,0.1,1.3,0.2,2,0.4l-0.6,5.7c-0.4-0.1-0.8-0.1-1.1-0.2c-0.3,0-0.7-0.1-1.2-0.1c-1,0-1.7,0.3-2.2,0.8c-0.5,0.5-0.8,1.2-0.8,2.2
		v2.6h4.9v5.4h-4.9v19.5H301.1z"/>
	<path class="st0" d="M315.3,90.9c0-3.7,1.1-6.8,3.2-9.1s5.1-3.5,8.8-3.5c3.8,0,6.7,1.2,8.9,3.5c2.1,2.3,3.2,5.4,3.2,9.1v0.5
		c0,3.7-1.1,6.8-3.2,9.1c-2.1,2.3-5,3.5-8.8,3.5c-3.8,0-6.8-1.2-8.9-3.5s-3.2-5.4-3.2-9.1V90.9z M323,91.4c0,2.1,0.3,3.7,1,4.9
		c0.6,1.2,1.8,1.8,3.3,1.8c1.5,0,2.6-0.6,3.3-1.8c0.7-1.2,1-2.8,1-4.9v-0.5c0-2-0.3-3.6-1-4.9c-0.7-1.2-1.8-1.8-3.3-1.8
		c-1.5,0-2.6,0.6-3.3,1.8c-0.7,1.2-1,2.8-1,4.8V91.4z"/>
	<path class="st0" d="M356.4,85.3l-2.5,0c-0.9,0-1.6,0.2-2.2,0.5c-0.6,0.3-1,0.8-1.3,1.4v16.4h-7.8V78.7h7.3l0.3,3.6
		c0.5-1.3,1.2-2.3,2.1-3c0.9-0.7,1.9-1.1,3-1.1c0.4,0,0.7,0,0.9,0.1s0.6,0.1,0.9,0.2L356.4,85.3z"/>
	<path class="st0" d="M366.6,78.7l0.3,3.3c0.8-1.2,1.8-2.1,2.9-2.8s2.5-1,4.1-1c1.5,0,2.9,0.3,4,1c1.1,0.7,2,1.7,2.5,3.1
		c0.8-1.3,1.7-2.3,2.9-3c1.2-0.7,2.6-1.1,4.2-1.1c2.4,0,4.3,0.9,5.7,2.6c1.4,1.7,2.1,4.4,2.1,8v14.7h-7.8V88.9c0-1.8-0.2-3-0.7-3.7
		s-1.2-1-2.2-1c-0.8,0-1.4,0.1-2,0.4c-0.6,0.3-1.1,0.6-1.5,1.1c0,0.3,0,0.5,0,0.7c0,0.2,0,0.4,0,0.6v16.6h-7.8V88.9
		c0-1.8-0.2-3-0.7-3.7c-0.5-0.7-1.2-1-2.3-1c-0.7,0-1.3,0.1-1.9,0.4c-0.6,0.3-1.1,0.6-1.5,1.1v17.8h-7.8V78.7H366.6z"/>
	<path class="st0" d="M410.4,91.2c0-3.9,0.8-7,2.5-9.4c1.7-2.4,4.1-3.6,7.1-3.6c1.1,0,2.2,0.3,3.1,0.8c0.9,0.5,1.8,1.3,2.5,2.3V67.7
		h7.8v35.8h-6.8l-0.5-3c-0.8,1.1-1.6,2-2.6,2.6c-1,0.6-2.2,0.9-3.5,0.9c-3.1,0-5.4-1.1-7.1-3.4c-1.7-2.3-2.5-5.3-2.5-9V91.2z
		 M418.2,91.6c0,2,0.3,3.6,0.9,4.7c0.6,1.1,1.6,1.7,3,1.7c0.8,0,1.5-0.1,2.1-0.4c0.6-0.3,1.1-0.7,1.5-1.3v-10
		c-0.4-0.7-0.9-1.2-1.5-1.5c-0.6-0.4-1.3-0.5-2.1-0.5c-1.4,0-2.4,0.6-3,1.9c-0.6,1.3-0.9,3-0.9,5V91.6z"/>
	<path class="st0" d="M448.9,104c-3.8,0-6.7-1.1-8.8-3.4s-3.2-5.2-3.2-8.7v-0.9c0-3.8,1-6.9,3-9.3c2-2.4,4.9-3.6,8.7-3.6
		c3.3,0,5.9,1,7.8,3c1.8,2,2.8,4.7,2.8,8.2v4.1h-14.2l0,0.1c0.1,1.3,0.6,2.4,1.4,3.2c0.8,0.8,2,1.2,3.6,1.2c1.5,0,2.7-0.1,3.7-0.4
		c1-0.2,2.1-0.6,3.4-1.2l1.9,4.7c-1.1,0.8-2.5,1.4-4.3,2S450.9,104,448.9,104z M448.6,84.2c-1.2,0-2.2,0.4-2.7,1.2
		c-0.6,0.8-0.9,1.9-1,3.2l0,0.1h6.7v-0.6c0-1.3-0.2-2.3-0.7-2.9C450.5,84.5,449.7,84.2,448.6,84.2z"/>
	<path class="st0" d="M476.2,85.3l-2.5,0c-0.9,0-1.6,0.2-2.2,0.5c-0.6,0.3-1,0.8-1.3,1.4v16.4h-7.8V78.7h7.3l0.3,3.6
		c0.5-1.3,1.2-2.3,2.1-3c0.9-0.7,1.9-1.1,3-1.1c0.4,0,0.7,0,0.9,0.1s0.6,0.1,0.9,0.2L476.2,85.3z"/>
</g>
<text transform="matrix(1 0 0 1 276.2461 113.107)" class="st0 st1 st2"> </text>
<g>
	<path class="st0" d="M127.4,159.9h-7.7v-33.4h7.7V159.9z"/>
	<path class="st0" d="M155.8,132.5h-8.8v27.4h-7.8v-27.4h-8.7v-6h25.3V132.5z"/>
	<path class="st0" d="M166.7,148.5h-13.5v-6h13.5V148.5z"/>
	<path class="st0" d="M198.4,148.7l0,0.1c0.1,3.8-1,6.7-3.2,8.7c-2.2,2-5.3,2.9-9.4,2.9c-4.1,0-7.4-1.3-9.9-3.8
		c-2.5-2.5-3.8-5.8-3.8-9.9v-7c0-4.1,1.2-7.4,3.6-9.9c2.4-2.5,5.6-3.8,9.6-3.8c4.2,0,7.5,1,9.8,3c2.3,2,3.4,4.8,3.4,8.6l-0.1,0.1
		h-7.5c0-2-0.4-3.5-1.3-4.4s-2.3-1.3-4.3-1.3c-1.7,0-3.1,0.7-4,2.1c-0.9,1.4-1.4,3.3-1.4,5.6v7c0,2.3,0.5,4.2,1.5,5.6
		c1,1.4,2.5,2.1,4.4,2.1c1.8,0,3.1-0.4,3.8-1.3c0.8-0.9,1.2-2.4,1.2-4.5H198.4z"/>
	<path class="st0" d="M201.3,147.3c0-3.7,1.1-6.8,3.2-9.1s5.1-3.5,8.8-3.5c3.8,0,6.7,1.2,8.9,3.5c2.1,2.3,3.2,5.4,3.2,9.1v0.5
		c0,3.7-1.1,6.8-3.2,9.1c-2.1,2.3-5,3.5-8.8,3.5c-3.8,0-6.8-1.2-8.9-3.5c-2.1-2.3-3.2-5.4-3.2-9.1V147.3z M209,147.8
		c0,2.1,0.3,3.7,1,4.9c0.6,1.2,1.8,1.8,3.3,1.8c1.5,0,2.6-0.6,3.3-1.8c0.7-1.2,1-2.8,1-4.9v-0.5c0-2-0.3-3.6-1-4.9
		c-0.7-1.2-1.8-1.8-3.3-1.8c-1.5,0-2.6,0.6-3.3,1.8c-0.7,1.2-1,2.8-1,4.8V147.8z"/>
	<path class="st0" d="M236,135.1l0.3,3.3c0.8-1.2,1.8-2.1,2.9-2.8s2.5-1,4.1-1c1.5,0,2.9,0.3,4,1c1.1,0.7,2,1.7,2.5,3.1
		c0.8-1.3,1.7-2.3,2.9-3c1.2-0.7,2.6-1.1,4.2-1.1c2.4,0,4.3,0.9,5.7,2.6c1.4,1.7,2.1,4.4,2.1,8v14.7H257v-14.7c0-1.8-0.2-3-0.7-3.7
		c-0.5-0.7-1.2-1-2.2-1c-0.8,0-1.4,0.1-2,0.4c-0.6,0.3-1.1,0.6-1.5,1.1c0,0.3,0,0.5,0,0.7c0,0.2,0,0.4,0,0.6v16.6h-7.8v-14.7
		c0-1.8-0.2-3-0.7-3.7c-0.5-0.7-1.2-1-2.3-1c-0.7,0-1.3,0.1-1.9,0.4c-0.6,0.3-1.1,0.6-1.5,1.1v17.8h-7.8v-24.8H236z"/>
	<path class="st0" d="M276.5,135.1l0.3,3.3c0.8-1.2,1.8-2.1,2.9-2.8s2.5-1,4.1-1c1.5,0,2.9,0.3,4,1c1.1,0.7,2,1.7,2.5,3.1
		c0.8-1.3,1.7-2.3,2.9-3c1.2-0.7,2.6-1.1,4.2-1.1c2.4,0,4.3,0.9,5.7,2.6c1.4,1.7,2.1,4.4,2.1,8v14.7h-7.8v-14.7c0-1.8-0.2-3-0.7-3.7
		c-0.5-0.7-1.2-1-2.2-1c-0.8,0-1.4,0.1-2,0.4c-0.6,0.3-1.1,0.6-1.5,1.1c0,0.3,0,0.5,0,0.7c0,0.2,0,0.4,0,0.6v16.6h-7.8v-14.7
		c0-1.8-0.2-3-0.7-3.7c-0.5-0.7-1.2-1-2.3-1c-0.7,0-1.3,0.1-1.9,0.4c-0.6,0.3-1.1,0.6-1.5,1.1v17.8h-7.8v-24.8H276.5z"/>
	<path class="st0" d="M324.6,156.2c-0.7,1.3-1.7,2.4-2.9,3.1c-1.2,0.7-2.5,1.1-4,1.1c-2.6,0-4.6-0.9-6-2.7c-1.5-1.8-2.2-4.6-2.2-8.4
		v-14.2h7.7v14.3c0,1.9,0.2,3.3,0.7,4s1.3,1.1,2.3,1.1c0.8,0,1.6-0.1,2.2-0.3s1.2-0.6,1.6-1v-18h7.8v24.8h-6.2L324.6,156.2z"/>
	<path class="st0" d="M343.2,135.1l0.3,3.5c0.8-1.2,1.8-2.2,3-2.9c1.2-0.7,2.5-1,4-1c2.4,0,4.3,0.8,5.7,2.5c1.4,1.7,2.1,4.3,2.1,7.9
		v14.9h-7.8v-15c0-1.6-0.3-2.7-0.8-3.4c-0.5-0.7-1.2-1-2.2-1c-0.8,0-1.6,0.1-2.2,0.4c-0.7,0.3-1.2,0.7-1.7,1.2v17.6H336v-24.8H343.2
		z"/>
	<path class="st0" d="M370.6,129.3h-7.8v-5.2h7.8V129.3z M370.6,159.9h-7.8v-24.8h7.8V159.9z"/>
	<path class="st0" d="M384.3,128.9v6.2h3.9v5.4h-3.9v11.4c0,0.9,0.2,1.5,0.5,1.9c0.4,0.4,0.8,0.6,1.5,0.6c0.4,0,0.7,0,1,0
		c0.2,0,0.5-0.1,0.9-0.2l0.5,5.7c-0.8,0.2-1.5,0.3-2.1,0.4c-0.6,0.1-1.4,0.1-2.2,0.1c-2.6,0-4.5-0.7-5.8-2c-1.3-1.4-2-3.5-2-6.5
		v-11.4h-3.5v-5.4h3.5v-6.2H384.3z"/>
	<path class="st0" d="M401.6,149l0,0.2h0.1l4.1-14.1h8.3l-9.9,28.5c-0.8,1.8-1.8,3.3-3,4.5c-1.2,1.2-3.1,1.8-5.8,1.8
		c-0.7,0-1.2,0-1.7-0.1c-0.4-0.1-1.1-0.2-2-0.5l0.9-5.5c0.2,0,0.4,0.1,0.5,0.1c0.1,0,0.2,0,0.4,0c1.2,0,2.1-0.2,2.7-0.5
		c0.6-0.4,1-0.9,1.3-1.6l0.6-1.6l-8.6-25.1h8.2L401.6,149z"/>
</g>
<g>
	<path class="st0" d="M119.2,216.3v-33.4h10.9c4.1,0,7.4,0.8,9.7,2.3c2.3,1.5,3.5,3.8,3.5,6.9c0,1.6-0.4,3-1.1,4.2s-1.9,2.2-3.4,2.8
		c2,0.4,3.5,1.3,4.4,2.7c1,1.3,1.4,2.9,1.4,4.7c0,3.3-1.1,5.7-3.3,7.4s-5.3,2.5-9.4,2.5H119.2z M126.9,196.8h3.1
		c1.9,0,3.3-0.3,4.2-1s1.4-1.6,1.4-2.9c0-1.4-0.4-2.5-1.3-3.1c-0.9-0.7-2.2-1-4.1-1h-3.2V196.8z M126.9,202v8.4h5
		c1.7,0,2.9-0.3,3.7-1c0.8-0.6,1.2-1.6,1.2-3c0-1.4-0.4-2.5-1.1-3.2s-1.9-1.1-3.6-1.2h-0.3H126.9z"/>
	<path class="st0" d="M162.4,198.1l-2.5,0c-0.9,0-1.6,0.2-2.2,0.5c-0.6,0.3-1,0.8-1.3,1.4v16.4h-7.8v-24.8h7.3l0.3,3.6
		c0.5-1.3,1.2-2.3,2.1-3c0.9-0.7,1.9-1.1,3-1.1c0.4,0,0.7,0,0.9,0.1s0.6,0.1,0.9,0.2L162.4,198.1z"/>
	<path class="st0" d="M179.6,216.3c-0.3-0.5-0.5-1.1-0.7-1.8c-0.2-0.7-0.4-1.3-0.5-2.1c-0.7,1.3-1.5,2.4-2.5,3.2
		c-1,0.8-2.3,1.2-3.9,1.2c-2.6,0-4.6-0.7-6.1-2c-1.4-1.3-2.2-3.2-2.2-5.5c0-2.5,0.9-4.4,2.8-5.7c1.9-1.3,4.7-2,8.4-2h3.2v-1.8
		c0-1.1-0.3-1.9-0.8-2.4c-0.5-0.6-1.3-0.8-2.3-0.8c-0.9,0-1.6,0.2-2,0.6c-0.4,0.4-0.7,1.1-0.7,2l-7.5,0l0-0.1
		c-0.1-2.3,0.8-4.2,2.8-5.7c2-1.5,4.6-2.3,7.9-2.3c3.1,0,5.6,0.8,7.5,2.3c1.9,1.5,2.9,3.7,2.9,6.6v9.4c0,1.3,0.1,2.5,0.3,3.7
		c0.2,1.1,0.6,2.3,1,3.4L179.6,216.3z M174.1,211.3c0.9,0,1.8-0.2,2.5-0.7c0.7-0.4,1.2-1,1.5-1.6v-3.3H175c-1.2,0-2.1,0.3-2.7,0.9
		c-0.6,0.6-0.8,1.4-0.8,2.3c0,0.7,0.2,1.3,0.7,1.7C172.7,211.1,173.4,211.3,174.1,211.3z"/>
	<path class="st0" d="M205.1,212.6c-0.7,1.3-1.7,2.4-2.9,3.1c-1.2,0.7-2.5,1.1-4,1.1c-2.6,0-4.6-0.9-6-2.7c-1.5-1.8-2.2-4.6-2.2-8.4
		v-14.2h7.7v14.3c0,1.9,0.2,3.3,0.7,4s1.3,1.1,2.3,1.1c0.8,0,1.6-0.1,2.2-0.3s1.2-0.6,1.6-1v-18h7.8v24.8h-6.2L205.1,212.6z"/>
	<path class="st0" d="M223.7,191.5l0.3,3.5c0.8-1.2,1.8-2.2,3-2.9c1.2-0.7,2.5-1,4-1c2.4,0,4.3,0.8,5.7,2.5c1.4,1.7,2.1,4.3,2.1,7.9
		v14.9H231v-15c0-1.6-0.3-2.7-0.8-3.4s-1.2-1-2.2-1c-0.8,0-1.6,0.1-2.2,0.4c-0.7,0.3-1.2,0.7-1.7,1.2v17.6h-7.7v-24.8H223.7z"/>
	<path class="st0" d="M255.9,209.3c0-0.6-0.3-1.2-1-1.6c-0.7-0.5-2-0.9-3.8-1.3c-2.9-0.6-5.1-1.4-6.5-2.6c-1.5-1.2-2.2-2.8-2.2-4.9
		c0-2.2,0.9-4,2.8-5.6c1.8-1.5,4.3-2.3,7.5-2.3c3.3,0,5.9,0.7,7.9,2.2c2,1.5,2.9,3.4,2.8,5.7l0,0.1h-7.5c0-1-0.2-1.7-0.7-2.2
		c-0.5-0.5-1.3-0.8-2.4-0.8c-0.8,0-1.5,0.2-2,0.7c-0.6,0.4-0.8,1-0.8,1.7c0,0.7,0.3,1.2,1,1.7s1.9,0.9,3.8,1.2
		c3,0.6,5.3,1.5,6.7,2.7s2.2,2.9,2.2,5c0,2.2-1,4.1-3,5.5c-2,1.4-4.6,2.2-7.9,2.2c-3.4,0-6.1-0.9-8-2.6c-2-1.7-2.9-3.6-2.8-5.7
		l0-0.1h7c0,1.2,0.4,2,1.1,2.5s1.6,0.8,2.9,0.8c1,0,1.8-0.2,2.4-0.6C255.7,210.7,255.9,210.1,255.9,209.3z"/>
	<path class="st0" d="M277.6,210.8c1.1,0,1.8-0.3,2.4-0.9c0.5-0.6,0.8-1.4,0.8-2.5h7.1l0,0.1c0.1,2.7-0.9,4.9-2.8,6.6
		c-1.9,1.7-4.4,2.6-7.4,2.6c-3.8,0-6.7-1.2-8.7-3.5c-2-2.3-3.1-5.4-3.1-9.1v-0.5c0-3.7,1-6.8,3.1-9.1c2-2.3,4.9-3.5,8.7-3.5
		c3.2,0,5.7,0.9,7.6,2.6c1.9,1.8,2.8,4.1,2.7,7.2l0,0.1h-7.1c0-1.2-0.3-2.1-0.8-2.9c-0.5-0.7-1.3-1.1-2.4-1.1
		c-1.5,0-2.5,0.6-3.1,1.8c-0.6,1.2-0.9,2.8-0.9,4.9v0.5c0,2.1,0.3,3.7,0.9,4.9S276.1,210.8,277.6,210.8z"/>
	<path class="st0" d="M298.6,194.6c0.7-1.1,1.7-2,2.7-2.6c1.1-0.6,2.3-0.9,3.6-0.9c2.6,0,4.6,0.9,6.1,2.7s2.2,4.6,2.2,8.3v14.3h-7.8
		V202c0-1.9-0.2-3.2-0.7-3.9c-0.5-0.7-1.2-1.1-2.2-1.1c-0.9,0-1.6,0.1-2.3,0.4c-0.6,0.3-1.2,0.6-1.6,1.1v17.9h-7.8v-35.8h7.8V194.6z
		"/>
	<path class="st0" d="M338.8,205.4h0.1l2.5-13.9h7.4l-5.8,24.8h-6.6l-4-12.7h-0.1l-4.1,12.7h-6.5l-5.9-24.8h7.4l2.5,14h0.1l4.1-14
		h4.9L338.8,205.4z"/>
	<path class="st0" d="M362.6,216.8c-3.8,0-6.7-1.1-8.8-3.4c-2.1-2.3-3.2-5.2-3.2-8.7v-0.9c0-3.8,1-6.9,3-9.3c2-2.4,4.9-3.6,8.7-3.6
		c3.3,0,5.9,1,7.8,3c1.8,2,2.8,4.8,2.8,8.2v4.1h-14.2l0,0.1c0.1,1.3,0.6,2.4,1.4,3.2c0.8,0.8,2,1.2,3.6,1.2c1.5,0,2.7-0.1,3.7-0.4
		c1-0.2,2.1-0.6,3.4-1.2l1.9,4.7c-1.1,0.8-2.5,1.4-4.3,2S364.6,216.8,362.6,216.8z M362.3,197c-1.2,0-2.2,0.4-2.7,1.2
		s-0.9,1.9-1,3.2l0,0.1h6.7v-0.6c0-1.3-0.2-2.3-0.7-2.9C364.1,197.3,363.4,197,362.3,197z"/>
	<path class="st0" d="M384.2,185.7h-7.8v-5.2h7.8V185.7z M384.2,216.3h-7.8v-24.8h7.8V216.3z"/>
	<path class="st0" d="M387.9,204c0-3.9,0.8-7,2.5-9.4s4.1-3.6,7.1-3.6c1.3,0,2.4,0.3,3.4,0.9c1,0.6,1.9,1.5,2.6,2.6l0.5-3.1h6.8V216
		c0,3.3-1.1,5.8-3.4,7.6s-5.3,2.7-9.3,2.7c-1.3,0-2.6-0.2-4-0.5c-1.4-0.4-2.8-0.8-4-1.4l1.3-5.7c1.1,0.5,2.2,0.9,3.2,1.1
		c1,0.2,2.2,0.4,3.5,0.4c1.7,0,2.9-0.3,3.7-1c0.8-0.7,1.2-1.7,1.2-3.1v-1.9c-0.7,0.9-1.5,1.6-2.4,2c-0.9,0.5-2,0.7-3.2,0.7
		c-3.1,0-5.4-1.1-7.1-3.4s-2.5-5.3-2.5-9V204z M395.7,204.4c0,2,0.3,3.6,0.9,4.7c0.6,1.1,1.6,1.7,3,1.7c0.8,0,1.6-0.1,2.2-0.4
		c0.6-0.3,1.1-0.7,1.5-1.2v-10.4c-0.4-0.6-0.9-1.1-1.5-1.4s-1.3-0.5-2.1-0.5c-1.4,0-2.4,0.6-3,1.9c-0.6,1.3-0.9,3-0.9,5V204.4z"/>
	<path class="st0" d="M428.3,209.3c0-0.6-0.3-1.2-1-1.6c-0.7-0.5-2-0.9-3.8-1.3c-2.9-0.6-5.1-1.4-6.5-2.6c-1.5-1.2-2.2-2.8-2.2-4.9
		c0-2.2,0.9-4,2.8-5.6c1.8-1.5,4.3-2.3,7.5-2.3c3.3,0,5.9,0.7,7.9,2.2c2,1.5,2.9,3.4,2.8,5.7l0,0.1h-7.5c0-1-0.2-1.7-0.7-2.2
		c-0.5-0.5-1.3-0.8-2.4-0.8c-0.8,0-1.5,0.2-2,0.7c-0.6,0.4-0.8,1-0.8,1.7c0,0.7,0.3,1.2,1,1.7s1.9,0.9,3.8,1.2
		c3,0.6,5.3,1.5,6.7,2.7s2.2,2.9,2.2,5c0,2.2-1,4.1-3,5.5c-2,1.4-4.6,2.2-7.9,2.2c-3.4,0-6.1-0.9-8-2.6c-2-1.7-2.9-3.6-2.8-5.7
		l0-0.1h7c0,1.2,0.4,2,1.1,2.5s1.6,0.8,2.9,0.8c1,0,1.8-0.2,2.4-0.6C428.1,210.7,428.3,210.1,428.3,209.3z"/>
	<path class="st0" d="M448.1,216.3h-7.7v-6.5h7.7V216.3z"/>
</g>
<path class="st0" d="M54,285.8V51c0-1.4-1.1-2.5-2.5-2.5S49,49.6,49,51v234.8H54z"/>
</svg>
