<?xml version="1.0" encoding="utf-8"?>
<!-- Generator: Adobe Illustrator 16.0.0, SVG Export Plug-In . SVG Version: 6.00 Build 0)  -->
<!DOCTYPE svg PUBLIC "-//W3C//DTD SVG 1.1//EN" "http://www.w3.org/Graphics/SVG/1.1/DTD/svg11.dtd">
<svg version="1.1" id="Logo" xmlns="http://www.w3.org/2000/svg" xmlns:xlink="http://www.w3.org/1999/xlink" x="0px" y="0px"
	 width="595.279px" height="244px" viewBox="0 0 595.279 244" enable-background="new 0 0 595.279 244" xml:space="preserve">
<g>
	<g>
		<g>
			<path fill="#92E314" d="M128.19,71.018V31.646h14.382c4.597,0,8.486,1.531,11.67,4.479c3.063,3.064,4.715,6.838,4.715,11.67
				v7.072c0,4.715-1.532,8.605-4.715,11.67c-3.065,3.064-6.955,4.479-11.67,4.479H128.19V71.018z M137.266,38.719v25.344h5.306
				c2.122,0,3.771-0.824,5.067-2.594c1.297-1.649,2.004-3.89,2.004-6.601v-7.19c0-2.593-0.707-4.832-2.004-6.482
				s-3.063-2.594-5.067-2.594h-5.306V38.719z"/>
			<path fill="#92E314" d="M173.337,34.947h-9.194v-6.13h9.194V34.947z M173.337,71.018h-9.194V41.783h9.194V71.018z"/>
			<path fill="#92E314" d="M191.962,71.606c-4.479,0-7.897-1.298-10.373-4.009s-3.771-6.129-3.771-10.254v-1.062
				c0-4.479,1.179-8.133,3.535-10.962c2.357-2.829,5.776-4.244,10.257-4.244c3.89,0,6.953,1.18,9.193,3.536
				c2.122,2.358,3.301,5.541,3.301,9.666v4.833h-16.738v0.117c0.117,1.533,0.708,2.83,1.649,3.772
				c0.943,0.943,2.357,1.415,4.244,1.415c1.769,0,3.184-0.117,4.361-0.472c1.179-0.236,2.476-0.707,4.008-1.415l2.239,5.541
				c-1.297,0.943-2.947,1.65-5.068,2.357C196.677,71.135,194.32,71.606,191.962,71.606z M191.609,48.266
				c-1.415,0-2.595,0.473-3.184,1.416c-0.708,0.942-1.062,2.24-1.179,3.771v0.118h7.896v-0.708c0-1.532-0.235-2.711-0.824-3.418
				C193.729,48.62,192.905,48.266,191.609,48.266z"/>
			<path fill="#92E314" d="M231.334,57.579v13.556h-9.077V31.646h15.089c4.715,0,8.369,1.179,11.08,3.535
				c2.711,2.358,4.126,5.541,4.126,9.431s-1.415,6.955-4.126,9.43c-2.711,2.476-6.482,3.537-11.08,3.537H231.334L231.334,57.579z
				 M231.334,50.506h5.894c2.004,0,3.536-0.589,4.599-1.649c1.061-1.062,1.532-2.476,1.532-4.244s-0.473-3.183-1.532-4.243
				c-1.063-1.061-2.595-1.65-4.599-1.65h-5.894V50.506z"/>
			<path fill="#92E314" d="M266.579,71.018h-9.194v-42.2h9.194V71.018z"/>
			<path fill="#92E314" d="M289.093,71.018c-0.354-0.59-0.59-1.297-0.825-2.123c-0.235-0.824-0.472-1.531-0.59-2.475
				c-0.825,1.532-1.768,2.829-2.946,3.772c-1.178,0.942-2.712,1.415-4.598,1.415c-3.063,0-5.422-0.825-7.189-2.357
				c-1.65-1.533-2.594-3.771-2.594-6.482c0-2.947,1.062-5.188,3.301-6.719c2.239-1.533,5.54-2.357,9.901-2.357h3.771v-2.122
				c0-1.298-0.354-2.24-0.942-2.829c-0.59-0.589-1.533-0.943-2.712-0.943c-1.061,0-1.886,0.236-2.357,0.709
				c-0.471,0.471-0.824,1.297-0.824,2.356h-8.842v-0.118c-0.116-2.711,0.943-4.951,3.302-6.719c2.357-1.768,5.423-2.711,9.313-2.711
				c3.654,0,6.602,0.943,8.841,2.711s3.419,4.361,3.419,7.779v11.08c0,1.533,0.117,2.947,0.354,4.362
				c0.236,1.296,0.707,2.711,1.179,4.009L289.093,71.018z M282.727,65.123c1.062,0,2.121-0.236,2.946-0.824
				c0.825-0.59,1.415-1.18,1.77-1.887v-3.771h-3.654c-1.414,0-2.477,0.354-3.184,1.061c-0.706,0.708-0.942,1.65-0.942,2.711
				c0,0.825,0.236,1.532,0.825,2.004C281.078,64.887,281.785,65.123,282.727,65.123z"/>
			<path fill="#92E314" d="M312.079,34.475v7.309h4.598v6.366h-4.598v13.438c0,1.061,0.236,1.768,0.59,2.239
				c0.473,0.472,0.943,0.707,1.769,0.707c0.472,0,0.824,0,1.18,0c0.235,0,0.589-0.118,1.061-0.235l0.59,6.719
				c-0.942,0.235-1.769,0.354-2.476,0.471c-0.708,0.118-1.649,0.118-2.594,0.118c-3.064,0-5.305-0.825-6.837-2.357
				c-1.532-1.649-2.357-4.126-2.357-7.661V48.149h-4.126v-6.366h4.126v-7.309H312.079L312.079,34.475z"/>
			<path fill="#92E314" d="M331.647,34.475v7.309h4.597v6.366h-4.597v13.438c0,1.061,0.234,1.768,0.589,2.239
				c0.472,0.472,0.942,0.707,1.769,0.707c0.473,0,0.825,0,1.18,0c0.234,0,0.589-0.118,1.061-0.235l0.59,6.719
				c-0.942,0.235-1.769,0.354-2.476,0.471c-0.707,0.118-1.65,0.118-2.594,0.118c-3.064,0-5.306-0.825-6.838-2.357
				c-1.531-1.649-2.356-4.126-2.356-7.661V48.149h-4.126v-6.366h4.126v-7.309H331.647L331.647,34.475z"/>
			<path fill="#92E314" d="M342.609,71.018V48.149h-4.243v-6.366h4.243v-3.064c0-3.301,1.062-5.894,3.064-7.779
				c2.004-1.77,4.833-2.711,8.604-2.711c0.707,0,1.415,0,2.122,0.117c0.707,0.119,1.532,0.235,2.356,0.472l-0.707,6.719
				c-0.472-0.118-0.942-0.118-1.297-0.235c-0.354,0-0.825-0.119-1.414-0.119c-1.18,0-2.005,0.354-2.594,0.943
				c-0.59,0.59-0.943,1.415-0.943,2.594v3.063h5.776v6.366h-5.776v22.986h-9.193L342.609,71.018L342.609,71.018z"/>
			<path fill="#92E314" d="M359.347,56.164c0-4.361,1.297-8.016,3.771-10.727c2.476-2.711,6.012-4.125,10.373-4.125
				c4.479,0,7.898,1.414,10.491,4.125c2.476,2.711,3.771,6.365,3.771,10.727v0.589c0,4.361-1.297,8.017-3.771,10.728
				c-2.477,2.711-5.895,4.125-10.373,4.125c-4.479,0-8.017-1.414-10.491-4.125c-2.476-2.711-3.771-6.365-3.771-10.728V56.164z
				 M368.424,56.754c0,2.477,0.354,4.361,1.18,5.776c0.707,1.415,2.122,2.122,3.89,2.122c1.769,0,3.065-0.708,3.891-2.122
				c0.826-1.414,1.18-3.3,1.18-5.776v-0.589c0-2.356-0.354-4.243-1.18-5.776c-0.824-1.414-2.122-2.121-3.891-2.121
				c-1.768,0-3.064,0.707-3.89,2.121c-0.826,1.414-1.18,3.301-1.18,5.658V56.754z"/>
			<path fill="#92E314" d="M407.796,49.563h-2.946c-1.062,0-1.887,0.236-2.594,0.59c-0.708,0.354-1.179,0.943-1.532,1.65v19.332
				h-9.194V41.782h8.604l0.354,4.244c0.59-1.532,1.415-2.711,2.476-3.536c1.062-0.825,2.239-1.297,3.536-1.297
				c0.473,0,0.825,0,1.062,0.117c0.235,0.119,0.708,0.119,1.062,0.236L407.796,49.563z"/>
			<path fill="#92E314" d="M419.819,41.783l0.354,3.891c0.943-1.416,2.122-2.476,3.419-3.301c1.296-0.824,2.946-1.179,4.832-1.179
				c1.77,0,3.419,0.354,4.717,1.179c1.296,0.825,2.356,2.004,2.945,3.654c0.943-1.532,2.004-2.711,3.419-3.536
				c1.414-0.825,3.064-1.297,4.951-1.297c2.829,0,5.068,1.062,6.719,3.065c1.651,2.004,2.477,5.187,2.477,9.43v17.328h-9.194V53.807
				c0-2.121-0.236-3.537-0.825-4.361c-0.59-0.825-1.415-1.18-2.594-1.18c-0.943,0-1.649,0.119-2.356,0.473s-1.298,0.707-1.77,1.296
				c0,0.354,0,0.589,0,0.825s0,0.472,0,0.708v19.567h-9.194V53.807c0-2.123-0.234-3.537-0.824-4.362s-1.414-1.179-2.711-1.179
				c-0.825,0-1.532,0.117-2.239,0.472c-0.708,0.354-1.297,0.707-1.77,1.296v20.982h-9.193V41.781h8.839V41.783z"/>
			<path fill="#92E314" d="M471.449,56.518c0-4.596,0.943-8.25,2.947-11.08s4.833-4.244,8.369-4.244
				c1.297,0,2.594,0.354,3.653,0.943c1.061,0.588,2.122,1.531,2.947,2.711V28.816h9.194v42.199h-8.017l-0.59-3.537
				c-0.942,1.298-1.886,2.359-3.063,3.066c-1.18,0.707-2.595,1.061-4.127,1.061c-3.653,0-6.364-1.297-8.368-4.008
				s-2.947-6.248-2.947-10.609L471.449,56.518L471.449,56.518z M480.643,56.99c0,2.357,0.354,4.244,1.062,5.54
				c0.707,1.297,1.886,2.004,3.536,2.004c0.943,0,1.769-0.118,2.476-0.472s1.298-0.824,1.769-1.532V50.742
				c-0.471-0.825-1.062-1.415-1.769-1.768c-0.707-0.473-1.531-0.59-2.476-0.59c-1.65,0-2.829,0.707-3.536,2.239
				c-0.707,1.533-1.062,3.537-1.062,5.894V56.99z"/>
			<path fill="#92E314" d="M516.832,71.606c-4.479,0-7.896-1.298-10.373-4.009c-2.476-2.711-3.771-6.129-3.771-10.254v-1.062
				c0-4.479,1.179-8.133,3.536-10.962c2.356-2.829,5.774-4.244,10.255-4.244c3.89,0,6.955,1.18,9.193,3.536
				c2.122,2.358,3.302,5.541,3.302,9.666v4.833h-16.738v0.117c0.117,1.533,0.707,2.83,1.65,3.772
				c0.941,0.943,2.356,1.415,4.242,1.415c1.77,0,3.184-0.117,4.361-0.472c1.179-0.236,2.477-0.707,4.008-1.415l2.24,5.541
				c-1.297,0.943-2.947,1.65-5.069,2.357C521.546,71.135,519.189,71.606,516.832,71.606z M516.478,48.266
				c-1.414,0-2.594,0.473-3.184,1.416c-0.707,0.942-1.061,2.24-1.179,3.771v0.118h7.896v-0.708c0-1.532-0.234-2.711-0.824-3.418
				C518.718,48.62,517.775,48.266,516.478,48.266z"/>
			<path fill="#92E314" d="M549.011,49.563h-2.946c-1.062,0-1.887,0.236-2.594,0.59s-1.179,0.943-1.531,1.65v19.332h-9.194V41.782
				h8.604l0.354,4.244c0.59-1.532,1.415-2.711,2.476-3.536c1.062-0.825,2.24-1.297,3.536-1.297c0.473,0,0.825,0,1.063,0.117
				c0.234,0.119,0.707,0.119,1.061,0.236L549.011,49.563z"/>
		</g>
		<text transform="matrix(1 0 0 1 313.3123 82.3418)" fill="#92E314" font-family="'ArialMT'" font-size="41.4337"> </text>
		<g>
			<path fill="#92E314" d="M137.856,137.5h-9.076V98.129h9.076V137.5z"/>
			<path fill="#92E314" d="M171.334,105.201h-10.373V137.5h-9.194v-32.299H141.51v-7.072h29.822L171.334,105.201L171.334,105.201z"
				/>
			<path fill="#92E314" d="M184.181,124.062h-15.913v-7.072h15.913V124.062z"/>
			<path fill="#92E314" d="M221.549,124.298v0.117c0.118,4.479-1.179,7.898-3.771,10.256c-2.595,2.357-6.248,3.418-11.081,3.418
				s-8.724-1.531-11.67-4.479c-2.946-2.946-4.479-6.836-4.479-11.669v-8.252c0-4.833,1.415-8.724,4.244-11.67
				s6.601-4.479,11.316-4.479c4.949,0,8.841,1.179,11.552,3.537c2.711,2.357,4.008,5.657,4.008,10.137l-0.118,0.118h-8.841
				c0-2.356-0.472-4.126-1.532-5.187c-1.06-1.062-2.711-1.532-5.067-1.532c-2.005,0-3.654,0.825-4.717,2.476
				c-1.061,1.65-1.649,3.891-1.649,6.602v8.252c0,2.711,0.59,4.95,1.769,6.601c1.18,1.651,2.947,2.477,5.188,2.477
				c2.122,0,3.653-0.473,4.479-1.532c0.943-1.063,1.414-2.829,1.414-5.305h8.959v0.115H221.549z"/>
			<path fill="#92E314" d="M224.968,122.647c0-4.361,1.296-8.017,3.771-10.728c2.476-2.712,6.012-4.126,10.373-4.126
				c4.479,0,7.897,1.414,10.49,4.126c2.477,2.711,3.772,6.365,3.772,10.728v0.589c0,4.361-1.297,8.016-3.772,10.728
				c-2.476,2.711-5.894,4.125-10.373,4.125c-4.479,0-8.016-1.414-10.49-4.125c-2.477-2.712-3.771-6.365-3.771-10.728V122.647z
				 M234.045,123.236c0,2.476,0.354,4.361,1.179,5.775c0.707,1.414,2.122,2.122,3.891,2.122s3.064-0.708,3.891-2.122
				c0.825-1.414,1.179-3.301,1.179-5.775v-0.589c0-2.357-0.354-4.244-1.179-5.776c-0.825-1.414-2.122-2.121-3.891-2.121
				s-3.064,0.707-3.891,2.121c-0.825,1.415-1.179,3.301-1.179,5.658V123.236L234.045,123.236z"/>
			<path fill="#92E314" d="M265.872,108.267l0.354,3.89c0.942-1.414,2.122-2.477,3.418-3.301c1.298-0.825,2.947-1.18,4.833-1.18
				c1.77,0,3.419,0.354,4.717,1.18c1.296,0.825,2.356,2.004,2.945,3.653c0.943-1.531,2.004-2.711,3.419-3.535
				c1.414-0.825,3.064-1.298,4.95-1.298c2.829,0,5.068,1.062,6.72,3.065c1.649,2.004,2.476,5.187,2.476,9.43v17.328h-9.076v-17.327
				c0-2.122-0.235-3.536-0.825-4.36c-0.589-0.825-1.414-1.18-2.593-1.18c-0.943,0-1.65,0.118-2.358,0.473
				c-0.707,0.354-1.296,0.707-1.768,1.296c0,0.354,0,0.59,0,0.825s0,0.472,0,0.708V137.5h-9.194v-17.328
				c0-2.122-0.235-3.536-0.824-4.36c-0.591-0.825-1.415-1.18-2.712-1.18c-0.824,0-1.532,0.118-2.239,0.473
				c-0.707,0.354-1.297,0.707-1.769,1.296v20.981h-9.194v-29.232h8.724v0.117H265.872z"/>
			<path fill="#92E314" d="M313.612,108.267l0.354,3.89c0.942-1.414,2.121-2.477,3.418-3.301c1.298-0.825,2.947-1.18,4.833-1.18
				c1.77,0,3.419,0.354,4.716,1.18s2.356,2.004,2.946,3.653c0.943-1.531,2.004-2.711,3.418-3.535
				c1.415-0.825,3.065-1.298,4.951-1.298c2.829,0,5.068,1.062,6.719,3.065s2.477,5.187,2.477,9.43v17.328h-9.194v-17.327
				c0-2.122-0.235-3.536-0.825-4.36c-0.589-0.825-1.414-1.18-2.593-1.18c-0.943,0-1.649,0.118-2.356,0.473
				c-0.708,0.354-1.298,0.707-1.77,1.296c0,0.354,0,0.59,0,0.825s0,0.472,0,0.708V137.5h-9.194v-17.328
				c0-2.122-0.235-3.536-0.824-4.36c-0.591-0.825-1.415-1.18-2.711-1.18c-0.825,0-1.532,0.118-2.24,0.473
				c-0.707,0.354-1.297,0.707-1.769,1.296v20.981h-9.193v-29.232h8.841v0.117H313.612z"/>
			<path fill="#92E314" d="M370.31,133.139c-0.825,1.531-2.004,2.828-3.418,3.653c-1.415,0.824-2.947,1.296-4.716,1.296
				c-3.064,0-5.423-1.061-7.072-3.183c-1.769-2.121-2.594-5.422-2.594-9.901v-16.737h9.076v16.855c0,2.239,0.235,3.89,0.825,4.715
				c0.589,0.825,1.532,1.297,2.711,1.297c0.943,0,1.886-0.118,2.594-0.354c0.707-0.236,1.414-0.708,1.887-1.18v-21.219h9.193v29.234
				h-7.309L370.31,133.139z"/>
			<path fill="#92E314" d="M392.236,108.267l0.354,4.125c0.942-1.414,2.121-2.594,3.536-3.418c1.414-0.825,2.947-1.18,4.715-1.18
				c2.829,0,5.069,0.943,6.72,2.947c1.649,2.004,2.476,5.068,2.476,9.312v17.563h-9.194v-17.681c0-1.888-0.354-3.184-0.941-4.009
				c-0.59-0.824-1.415-1.179-2.594-1.179c-0.943,0-1.887,0.117-2.595,0.471c-0.823,0.354-1.414,0.825-2.004,1.415v20.746h-8.958
				v-29.232h8.487L392.236,108.267L392.236,108.267z"/>
			<path fill="#92E314" d="M424.534,101.43h-9.194v-6.129h9.194V101.43z M424.534,137.5h-9.194v-29.232h9.194V137.5z"/>
			<path fill="#92E314" d="M440.683,100.958v7.31h4.597v6.364h-4.597v13.438c0,1.062,0.234,1.769,0.589,2.24
				c0.472,0.472,0.942,0.707,1.769,0.707c0.472,0,0.825,0,1.179,0c0.236,0,0.591-0.118,1.062-0.235l0.59,6.719
				c-0.943,0.235-1.769,0.354-2.476,0.472s-1.65,0.117-2.594,0.117c-3.064,0-5.305-0.824-6.837-2.356
				c-1.532-1.65-2.356-4.126-2.356-7.662v-13.439h-4.127v-6.364h4.126v-7.31H440.683L440.683,100.958z"/>
			<path fill="#92E314" d="M461.076,124.651v0.234h0.118l4.833-16.619h9.783l-11.669,33.595c-0.943,2.122-2.122,3.89-3.537,5.305
				c-1.414,1.414-3.654,2.121-6.837,2.121c-0.825,0-1.414,0-2.005-0.117c-0.471-0.118-1.296-0.235-2.356-0.59l1.062-6.482
				c0.235,0,0.472,0.117,0.59,0.117c0.117,0,0.235,0,0.472,0c1.414,0,2.476-0.234,3.183-0.59c0.707-0.471,1.18-1.061,1.532-1.886
				l0.707-1.886l-10.137-29.587h9.666L461.076,124.651z"/>
		</g>
		<g>
			<path fill="#92E314" d="M128.19,203.982v-39.371h12.85c4.833,0,8.723,0.942,11.434,2.711s4.126,4.479,4.126,8.134
				c0,1.887-0.472,3.536-1.297,4.951c-0.825,1.414-2.239,2.593-4.008,3.301c2.357,0.472,4.126,1.532,5.187,3.184
				c1.18,1.531,1.65,3.418,1.65,5.54c0,3.89-1.297,6.719-3.89,8.723c-2.595,2.004-6.248,2.947-11.081,2.947h-14.97L128.19,203.982
				L128.19,203.982z M137.266,180.996h3.654c2.239,0,3.89-0.354,4.951-1.179c1.061-0.825,1.649-1.886,1.649-3.418
				c0-1.65-0.472-2.947-1.532-3.654c-1.062-0.825-2.594-1.179-4.833-1.179h-3.771v9.43H137.266L137.266,180.996z M137.266,187.126
				v9.901h5.895c2.004,0,3.419-0.354,4.361-1.179c0.942-0.707,1.414-1.887,1.414-3.536c0-1.65-0.472-2.946-1.297-3.771
				s-2.238-1.297-4.243-1.415h-0.354H137.266z"/>
			<path fill="#92E314" d="M179.114,182.529h-2.947c-1.062,0-1.886,0.234-2.593,0.589c-0.708,0.354-1.18,0.943-1.533,1.65v19.332
				h-9.194v-29.233h8.605l0.354,4.243c0.59-1.532,1.415-2.711,2.477-3.536c1.061-0.825,2.238-1.297,3.536-1.297
				c0.472,0,0.824,0,1.061,0.118s0.708,0.118,1.062,0.234L179.114,182.529z"/>
			<path fill="#92E314" d="M199.387,203.982c-0.354-0.589-0.589-1.297-0.825-2.122c-0.234-0.824-0.471-1.532-0.589-2.476
				c-0.825,1.532-1.769,2.829-2.946,3.771c-1.18,0.943-2.712,1.415-4.598,1.415c-3.064,0-5.423-0.825-7.189-2.357
				c-1.65-1.532-2.595-3.771-2.595-6.482c0-2.947,1.062-5.188,3.302-6.721c2.238-1.531,5.54-2.356,9.9-2.356h3.772v-2.121
				c0-1.297-0.354-2.24-0.943-2.829c-0.589-0.708-1.532-0.943-2.711-0.943c-1.062,0-1.886,0.235-2.356,0.707
				c-0.472,0.473-0.825,1.298-0.825,2.357h-8.841v-0.117c-0.118-2.712,0.941-4.951,3.301-6.72c2.356-1.769,5.422-2.711,9.312-2.711
				c3.654,0,6.603,0.942,8.841,2.711c2.24,1.769,3.42,4.362,3.42,7.78v11.079c0,1.533,0.117,2.947,0.354,4.362
				c0.235,1.296,0.707,2.711,1.179,4.008L199.387,203.982z M192.905,198.089c1.062,0,2.122-0.235,2.946-0.825
				c0.825-0.472,1.415-1.179,1.77-1.886v-3.891h-3.654c-1.415,0-2.476,0.354-3.183,1.062c-0.707,0.707-0.943,1.65-0.943,2.711
				c0,0.825,0.236,1.532,0.825,2.005C191.255,197.853,192.081,198.089,192.905,198.089z"/>
			<path fill="#92E314" d="M229.447,199.621c-0.824,1.532-2.004,2.829-3.418,3.654c-1.415,0.825-2.947,1.297-4.716,1.297
				c-3.064,0-5.423-1.063-7.072-3.184c-1.769-2.121-2.594-5.423-2.594-9.901v-16.738h9.076v16.856c0,2.238,0.236,3.89,0.825,4.715
				c0.59,0.825,1.532,1.297,2.711,1.297c0.943,0,1.887-0.118,2.594-0.354c0.707-0.235,1.414-0.707,1.887-1.179v-21.218h9.193V204.1
				h-7.308L229.447,199.621z"/>
			<path fill="#92E314" d="M251.373,174.749l0.354,4.126c0.943-1.415,2.122-2.594,3.536-3.419c1.415-0.825,2.947-1.179,4.715-1.179
				c2.829,0,5.069,0.942,6.721,2.947c1.65,2.004,2.475,5.067,2.475,9.313v17.563h-9.194v-17.683c0-1.886-0.354-3.183-0.941-4.008
				c-0.59-0.825-1.415-1.179-2.594-1.179c-0.942,0-1.887,0.118-2.594,0.472c-0.824,0.354-1.415,0.825-2.004,1.414v20.746h-9.077
				V174.63h8.605L251.373,174.749L251.373,174.749z"/>
			<path fill="#92E314" d="M289.329,195.731c0-0.708-0.354-1.415-1.179-1.888c-0.825-0.589-2.357-1.061-4.479-1.531
				c-3.418-0.707-6.012-1.65-7.662-3.064c-1.768-1.415-2.593-3.301-2.593-5.775c0-2.594,1.061-4.716,3.301-6.602
				c2.121-1.769,5.068-2.712,8.841-2.712c3.891,0,6.954,0.825,9.313,2.594c2.358,1.77,3.419,4.008,3.301,6.72v0.117h-8.841
				c0-1.179-0.235-2.004-0.825-2.594c-0.589-0.589-1.532-0.941-2.829-0.941c-0.941,0-1.768,0.234-2.356,0.824
				c-0.707,0.473-0.942,1.18-0.942,2.004c0,0.825,0.354,1.414,1.179,2.004c0.825,0.59,2.239,1.062,4.479,1.414
				c3.537,0.707,6.248,1.77,7.898,3.184c1.648,1.415,2.593,3.419,2.593,5.895c0,2.594-1.179,4.833-3.536,6.482
				s-5.422,2.594-9.313,2.594c-4.008,0-7.189-1.061-9.43-3.063c-2.357-2.005-3.419-4.244-3.301-6.721v-0.116h8.252
				c0,1.413,0.471,2.356,1.296,2.945c0.825,0.59,1.887,0.943,3.419,0.943c1.179,0,2.121-0.235,2.829-0.707
				C289.093,197.382,289.329,196.674,289.329,195.731z"/>
			<path fill="#92E314" d="M314.908,197.499c1.297,0,2.122-0.354,2.829-1.061c0.59-0.707,0.942-1.65,0.942-2.947h8.369v0.118
				c0.118,3.183-1.061,5.775-3.301,7.78c-2.239,2.004-5.187,3.063-8.723,3.063c-4.479,0-7.897-1.414-10.255-4.126
				c-2.358-2.711-3.654-6.365-3.654-10.727v-0.591c0-4.36,1.179-8.016,3.654-10.727c2.356-2.711,5.774-4.125,10.255-4.125
				c3.771,0,6.719,1.061,8.959,3.064c2.238,2.121,3.3,4.833,3.183,8.486v0.117h-8.369c0-1.414-0.354-2.475-0.942-3.418
				c-0.59-0.825-1.532-1.297-2.829-1.297c-1.77,0-2.947,0.707-3.654,2.122c-0.707,1.414-1.061,3.301-1.061,5.774v0.591
				c0,2.476,0.354,4.36,1.061,5.775C312.079,196.792,313.14,197.499,314.908,197.499z"/>
			<path fill="#92E314" d="M339.663,178.403c0.825-1.297,2.004-2.357,3.183-3.064c1.298-0.708,2.712-1.062,4.243-1.062
				c3.065,0,5.423,1.062,7.19,3.183c1.769,2.122,2.594,5.423,2.594,9.784v16.856h-9.194v-16.976c0-2.239-0.235-3.771-0.824-4.597
				c-0.591-0.825-1.415-1.297-2.595-1.297c-1.061,0-1.886,0.118-2.711,0.472c-0.707,0.354-1.415,0.707-1.886,1.296v21.102h-9.194
				v-42.2h9.194V178.403L339.663,178.403z"/>
			<path fill="#92E314" d="M387.049,191.134h0.117l2.947-16.385h8.723l-6.837,29.233h-7.779l-4.716-14.972h-0.117l-4.833,14.972
				h-7.661l-6.955-29.233h8.723l2.947,16.503h0.118l4.833-16.503h5.774L387.049,191.134z"/>
			<path fill="#92E314" d="M415.104,204.572c-4.479,0-7.898-1.297-10.373-4.008c-2.477-2.712-3.772-6.13-3.772-10.256v-1.062
				c0-4.479,1.179-8.134,3.536-10.963s5.776-4.243,10.256-4.243c3.891,0,6.954,1.179,9.194,3.536c2.121,2.357,3.3,5.658,3.3,9.666
				v4.833h-16.738v0.118c0.118,1.532,0.707,2.828,1.65,3.771c0.943,0.943,2.356,1.415,4.243,1.415c1.769,0,3.184-0.118,4.361-0.472
				c1.18-0.236,2.476-0.707,4.009-1.415l2.238,5.541c-1.297,0.942-2.946,1.649-5.067,2.357
				C419.819,204.101,417.462,204.572,415.104,204.572z M414.751,181.232c-1.415,0-2.594,0.472-3.184,1.414
				c-0.589,0.942-1.062,2.239-1.179,3.771v0.118h7.897v-0.708c0-1.532-0.236-2.711-0.825-3.418
				C416.872,181.586,416.046,181.232,414.751,181.232z"/>
			<path fill="#92E314" d="M440.565,167.912h-9.194v-6.13h9.194V167.912z M440.565,203.982h-9.194v-29.233h9.194V203.982z"/>
			<path fill="#92E314" d="M444.926,189.483c0-4.598,0.943-8.251,2.947-11.08s4.833-4.244,8.369-4.244
				c1.532,0,2.829,0.354,4.008,1.063s2.24,1.768,3.065,3.063l0.589-3.654h8.016v28.998c0,3.891-1.297,6.837-4.008,8.959
				c-2.711,2.121-6.247,3.184-10.963,3.184c-1.532,0-3.064-0.236-4.715-0.59c-1.65-0.473-3.301-0.942-4.715-1.65l1.531-6.719
				c1.297,0.59,2.595,1.062,3.772,1.297c1.178,0.234,2.593,0.472,4.125,0.472c2.004,0,3.419-0.354,4.362-1.179
				c0.941-0.825,1.414-2.004,1.414-3.654v-2.24c-0.825,1.063-1.77,1.888-2.829,2.358c-1.062,0.589-2.357,0.824-3.772,0.824
				c-3.653,0-6.365-1.296-8.369-4.008s-2.945-6.247-2.945-10.608v-0.59L444.926,189.483L444.926,189.483z M454.121,189.955
				c0,2.357,0.354,4.244,1.063,5.54c0.707,1.297,1.886,2.004,3.535,2.004c0.943,0,1.887-0.117,2.595-0.472
				c0.707-0.354,1.296-0.824,1.768-1.414v-12.259c-0.472-0.708-1.061-1.297-1.768-1.65c-0.708-0.354-1.533-0.59-2.477-0.59
				c-1.649,0-2.829,0.707-3.536,2.24c-0.708,1.532-1.062,3.536-1.062,5.894v0.707H454.121L454.121,189.955z"/>
			<path fill="#92E314" d="M492.549,195.731c0-0.708-0.354-1.415-1.179-1.888c-0.825-0.589-2.356-1.061-4.479-1.531
				c-3.419-0.707-6.013-1.65-7.662-3.064c-1.77-1.415-2.595-3.301-2.595-5.775c0-2.594,1.063-4.716,3.302-6.602
				c2.122-1.769,5.068-2.712,8.841-2.712c3.89,0,6.955,0.825,9.313,2.594c2.358,1.77,3.418,4.008,3.302,6.72v0.117h-8.842
				c0-1.179-0.235-2.004-0.824-2.594c-0.591-0.589-1.532-0.941-2.829-0.941c-0.943,0-1.77,0.234-2.357,0.824
				c-0.708,0.473-0.943,1.18-0.943,2.004c0,0.825,0.354,1.414,1.18,2.004s2.24,1.062,4.479,1.414
				c3.536,0.707,6.247,1.77,7.897,3.184c1.649,1.415,2.594,3.419,2.594,5.895c0,2.594-1.179,4.833-3.536,6.482
				s-5.423,2.594-9.313,2.594c-4.008,0-7.19-1.061-9.432-3.063c-2.356-2.005-3.418-4.244-3.3-6.721v-0.116h8.251
				c0,1.413,0.473,2.356,1.297,2.945c0.825,0.59,1.887,0.943,3.418,0.943c1.18,0,2.122-0.235,2.829-0.707
				C492.313,197.382,492.549,196.674,492.549,195.731z"/>
			<path fill="#92E314" d="M515.888,203.982h-9.076v-7.662h9.076V203.982z"/>
		</g>
	</g>
	<path fill="#92E314" d="M48.387,12.139c-1.649,0-2.947,1.295-2.947,2.946v7.054v199.723v7.054c0,1.65,1.298,2.946,2.946,2.946
		c1.65,0,2.947-1.296,2.947-2.946v-7.054V22.139v-7.054C51.335,13.434,50.038,12.139,48.387,12.139z"/>
</g>
</svg>
