<?xml version="1.0" encoding="utf-8"?>
<!-- Generator: Adobe Illustrator 22.0.1, SVG Export Plug-In . SVG Version: 6.00 Build 0)  -->
<svg version="1.1" id="Logo" xmlns="http://www.w3.org/2000/svg" xmlns:xlink="http://www.w3.org/1999/xlink" x="0px" y="0px"
	 viewBox="0 0 399.3 237.6" style="enable-background:new 0 0 399.3 237.6;" xml:space="preserve">
<style type="text/css">
	.st0{fill:#69A17C;}
	.st1{fill:#FFFFFF;}
	.st2{fill:#D7E9CF;}
</style>
<g>
	<path class="st0" d="M96.3,185.9L76.8,21.6L144,51.4L96.3,185.9z M82.8,29.7l16,134.3l39-109.9L82.8,29.7z"/>
</g>
<g>
	<polygon class="st0" points="163,215.2 95.8,176.9 24.6,79.3 78,23.9 81.6,27.4 31.2,79.7 99.2,173.1 165.5,210.9 	"/>
</g>
<g>
	<rect x="26.3" y="63.6" transform="matrix(0.9731 -0.2306 0.2306 0.9731 -12.973 21.2345)" class="st0" width="116.1" height="5"/>
</g>
<g>
	<path class="st1" d="M245.7,23.4c5.8,0,8.7,2.9,8.8,8.6l-0.1,69.3c0,5.9-2.9,8.8-8.6,8.8c-5.8,0-8.6-2.9-8.6-8.6V32.1
		C237,26.3,239.9,23.4,245.7,23.4z"/>
	<path class="st1" d="M272,23.4h104.1c5.8,0,8.6,2.9,8.6,8.6c0,5.7-2.8,8.6-8.5,8.7h-43.5v61c0,5.8-2.9,8.6-8.7,8.6
		c-5.8,0-8.7-2.9-8.7-8.6v-61h-43.4c-5.7-0.1-8.5-3-8.5-8.7C263.4,26.3,266.3,23.4,272,23.4z"/>
	<path class="st1" d="M162.1,161.1v-38.5c0-3.2,1.6-4.8,4.8-4.8c3.2,0,4.8,1.5,4.8,4.6V137H220l-0.1-14.7c0.1-3.1,1.7-4.6,4.9-4.6
		c3.2,0,4.8,1.6,4.7,4.7V161c0,3.2-1.6,4.8-4.8,4.8c-3.2,0-4.8-1.6-4.8-4.8v-14.3h-48.3v14.5c-0.1,3.2-1.7,4.7-4.8,4.7
		C163.7,165.9,162.1,164.3,162.1,161.1z"/>
	<path class="st1" d="M242.4,117.7c3.2,0,4.8,1.6,4.8,4.8v24c0,6.5,3.2,9.8,9.7,9.8h29c6.5,0,9.7-3.3,9.6-9.8v-23.9
		c0-3.3,1.6-4.9,4.8-4.9c3.2,0,4.8,1.7,4.8,5v23.8c0,13-6.4,19.5-19.3,19.5H257c-12.9,0-19.3-6.5-19.3-19.4v-24
		C237.7,119.3,239.3,117.7,242.4,117.7z"/>
	<path class="st1" d="M313.5,161.1v-38.6c0-3.2,1.6-4.8,4.8-4.8h48.1c9.7,0,14.5,4.8,14.5,14.5c-0.1,6.3-1.6,9.4-4.6,9.4
		c3,0.2,4.5,3.5,4.6,9.9c0.1,9.5-4.6,14.3-14.3,14.3l-48.3,0.1C315.1,165.9,313.5,164.3,313.5,161.1z M366.6,127.4h-43.5v9.6h43.5
		c3.2,0,4.8-1.6,4.8-4.8C371.3,129,369.7,127.4,366.6,127.4z M371.4,151.3c0-3.2-1.7-4.7-4.9-4.7h-43.3v9.5l43.4-0.2
		C369.8,156.1,371.4,154.5,371.4,151.3z"/>
	<path class="st1" d="M236.8,216.8v-38.6c0-3.2,1.6-4.8,4.8-4.8h48.1c9.7,0,14.5,4.8,14.5,14.5c-0.1,6.3-1.6,9.4-4.6,9.4
		c3,0.2,4.5,3.5,4.6,9.9c0.1,9.5-4.6,14.3-14.3,14.3l-48.3,0.1C238.4,221.6,236.8,220,236.8,216.8z M289.9,183.1h-43.5v9.6h43.5
		c3.2,0,4.8-1.6,4.8-4.8C294.6,184.8,293,183.2,289.9,183.1z M294.7,207.1c0-3.2-1.7-4.7-4.9-4.7h-43.3v9.5l43.4-0.2
		C293.1,211.8,294.7,210.3,294.7,207.1z"/>
	<path class="st1" d="M326.9,173.7l47.9-0.1c3.1,0,4.7,1.6,4.7,4.7c0,3.2-1.6,4.8-4.7,4.8l-47.9-0.1c-3.3,0.2-5,1.8-4.9,5
		c0,3.2,1.7,4.7,4.9,4.7h38.3c9.7,0,14.5,4.8,14.5,14.4c0,9.6-4.8,14.4-14.5,14.4h-48c-3.2,0-4.8-1.6-4.8-4.7s1.6-4.8,4.8-4.8h48
		c3.1-0.1,4.7-1.7,4.8-4.9c0-3.2-1.6-4.8-4.8-4.8h-38.2c-9.7,0-14.5-4.8-14.5-14.3C312.4,178.4,317.2,173.7,326.9,173.7z"/>
</g>
<circle class="st2" cx="79.8" cy="25.6" r="12.5"/>
<circle class="st2" cx="27.9" cy="79.5" r="17.8"/>
<circle class="st2" cx="140.8" cy="52.7" r="17.8"/>
<circle class="st2" cx="97.5" cy="175" r="17.8"/>
<circle class="st2" cx="164.2" cy="213.1" r="10.7"/>
</svg>
