<?xml version="1.0" encoding="utf-8"?>
<!-- Generator: Adobe Illustrator 22.0.1, SVG Export Plug-In . SVG Version: 6.00 Build 0)  -->
<svg version="1.1" id="Logo_x5F_msg_x5F_DAVID" xmlns="http://www.w3.org/2000/svg" xmlns:xlink="http://www.w3.org/1999/xlink"
	 x="0px" y="0px" viewBox="0 0 249.4 112.7" style="enable-background:new 0 0 249.4 112.7;" xml:space="preserve">
<style type="text/css">
	.st0{fill:#841439;}
	.st1{fill:#6F6F6F;}
	.st2{fill-rule:evenodd;clip-rule:evenodd;fill:#6F6F6F;}
	.st3{fill:none;}
	.st4{font-family:'AkkuratStd';}
	.st5{font-size:14px;}
</style>
<g>
	<path d="M45.6,104.6c-0.9,0.9-2.2,1.4-3.6,1.4h-5V93.3h5c1.5,0,2.8,0.5,3.6,1.4c1.3,1.3,1.5,3.2,1.5,5
		C47.2,101.3,47,103.2,45.6,104.6z M43.8,96.1c-0.4-0.4-1.1-0.7-1.8-0.7h-2.7v8.5H42c0.7,0,1.4-0.3,1.8-0.7c0.9-0.9,0.9-2.4,0.9-3.6
		S44.7,96.9,43.8,96.1z"/>
	<path d="M78.6,105.9l-0.8-2.4h-5.2l-0.8,2.4h-2.4l4.5-12.7h2.6l4.5,12.7H78.6z M75.1,96.1l-1.8,5.3H77L75.1,96.1z"/>
	<path d="M109.6,105.9H107l-4.3-12.7h2.5l3.1,9.7l3.1-9.7h2.4L109.6,105.9z"/>
	<path d="M140.2,105.9V93.3h2.4v12.7H140.2z"/>
	<path d="M178.1,104.6c-0.9,0.9-2.2,1.4-3.6,1.4h-5V93.3h5c1.5,0,2.8,0.5,3.6,1.4c1.3,1.3,1.5,3.2,1.5,5
		C179.7,101.3,179.5,103.2,178.1,104.6z M176.3,96.1c-0.4-0.4-1.1-0.7-1.8-0.7h-2.7v8.5h2.7c0.7,0,1.4-0.3,1.8-0.7
		c0.9-0.9,0.9-2.4,0.9-3.6S177.2,96.9,176.3,96.1z"/>
	<path class="st0" d="M3.6,74.2c0-7,5.7-12.6,12.6-12.6s12.6,5.7,12.6,12.6c0,7-5.7,12.6-12.6,12.6S3.6,81.2,3.6,74.2L3.6,74.2z"/>
	<path class="st1" d="M37,28.4v58h10.6V37.3c0,0,16.4,0,24.2,0v49.2h10.6V37.3c7,0,12.9,0,16.1,0c5.4,0,9.3,3.3,9.3,10.4v38.8h10.6
		c0-15.2,0-28.5,0-41.8c0-7.9-4.1-16.2-14.6-16.2H37L37,28.4z"/>
	<path class="st1" d="M139.6,28.4c-11.4,0-14.9,7.6-14.9,16.1c0,9.1,3.8,16.7,14.2,16.7c9.4,0,18.1,0,25.2,0c7.7,0,7.7,5.9,7.7,8.6
		c0,2.5,0,7.7-7.5,7.7c-6,0-38.6,0-38.6,0s0,6.4,0,8.8h43c10.7,0,13.8-6.3,13.8-16.5c0-12.1-4-17.5-13.1-17.5c-10.8,0-18.4,0-27.2,0
		c-6.9,0-6.9-4.6-6.9-7.7c0-2.4,0.7-7.5,8-7.5c7.7,0,37.2,0,37.2,0c0-3.6,0-5.5,0-8.8H139.6L139.6,28.4z"/>
	<path class="st2" d="M210,28.4c-9.4,0-13,1.5-15.5,3.6c-2.8,2.3-5.4,5.1-5.5,14.8v10.4v10.6c0,10.3,2.9,13.2,5.8,15.6
		c2,1.4,5.2,3,15.3,3h25.4c0,0,0,1.8,0,2.2c0,4.4-0.8,6.3-5.9,6.3h-33.1v9.3H233c9.8,0,13-4.4,13-12.6V28.4H210z M235.5,77.6h-22.2
		c-6.6,0-13.2,0.5-13.4-8c0-0.4,0-3.5,0-12.6c0-7.7,0-9.6,0-10.4c0.4-7.1,3-9.7,13.9-9.4c0.6,0,21.7,0,21.7,0V77.6z"/>
</g>
<rect x="37" y="3" class="st3" width="110.7" height="18"/>
<text transform="matrix(1 0 0 1 36.9674 13.1077)" class="st4 st5">powered by</text>
</svg>
