<?xml version="1.0" encoding="UTF-8" standalone="no"?>
<!-- Generator: Adobe Illustrator 22.0.1, SVG Export Plug-In . SVG Version: 6.00 Build 0)  -->

<svg
   xmlns:dc="http://purl.org/dc/elements/1.1/"
   xmlns:cc="http://creativecommons.org/ns#"
   xmlns:rdf="http://www.w3.org/1999/02/22-rdf-syntax-ns#"
   xmlns:svg="http://www.w3.org/2000/svg"
   xmlns="http://www.w3.org/2000/svg"
   xmlns:sodipodi="http://sodipodi.sourceforge.net/DTD/sodipodi-0.dtd"
   xmlns:inkscape="http://www.inkscape.org/namespaces/inkscape"
   version="1.1"
   id="Logo"
   x="0px"
   y="0px"
   viewBox="0 0 399.3 237.6"
   style="enable-background:new 0 0 399.3 237.6;"
   xml:space="preserve"
   sodipodi:docname="logo_ithubbs_weiß.svg"
   inkscape:export-filename="C:\Users\husema01\Desktop\circle4022.png"
   inkscape:export-xdpi="300"
   inkscape:export-ydpi="300"
   inkscape:version="0.92.4 (5da689c313, 2019-01-14)"><metadata
   id="metadata47"><rdf:RDF><cc:Work
       rdf:about=""><dc:format>image/svg+xml</dc:format><dc:type
         rdf:resource="http://purl.org/dc/dcmitype/StillImage" /><dc:title></dc:title></cc:Work></rdf:RDF></metadata><defs
   id="defs45">
	
	
	
	
	
	
	
</defs><sodipodi:namedview
   pagecolor="#ffffff"
   bordercolor="#666666"
   borderopacity="1"
   objecttolerance="10"
   gridtolerance="10"
   guidetolerance="10"
   inkscape:pageopacity="0"
   inkscape:pageshadow="2"
   inkscape:window-width="2560"
   inkscape:window-height="1377"
   id="namedview43"
   showgrid="false"
   inkscape:zoom="0.95166544"
   inkscape:cx="199.64999"
   inkscape:cy="119.3254"
   inkscape:window-x="-8"
   inkscape:window-y="-8"
   inkscape:window-maximized="1"
   inkscape:current-layer="Logo" />
<style
   type="text/css"
   id="style2">
	.st0{fill:#69A17C;}
	.st1{fill:#FFFFFF;}
	.st2{fill:#D7E9CF;}
</style>
<g
   id="g6"
   style="fill:#ffffff;fill-opacity:1">
	
</g>
<g
   id="g10"
   style="fill:#1e7c1e;fill-opacity:1">
	
</g>
<g
   id="g14"
   style="fill:#1e7c1e;fill-opacity:1">
	
</g>





<path
   id="circle40"
   style="fill:#ffffff;fill-opacity:1"
   d="m 174.9,213.10001 a 10.7,10.7 0 0 1 -10.7,10.7 10.7,10.7 0 0 1 -10.7,-10.7 10.7,10.7 0 0 1 10.7,-10.7 10.7,10.7 0 0 1 10.7,10.7 z M 115.3,175 A 17.799999,17.799999 0 0 1 97.5,192.8 17.799999,17.799999 0 0 1 79.700001,175 17.799999,17.799999 0 0 1 97.5,157.2 17.799999,17.799999 0 0 1 115.3,175 Z M 158.6,52.700001 A 17.799999,17.799999 0 0 1 140.8,70.5 17.799999,17.799999 0 0 1 123,52.700001 17.799999,17.799999 0 0 1 140.8,34.900002 17.799999,17.799999 0 0 1 158.6,52.700001 Z M 45.699999,79.5 A 17.799999,17.799999 0 0 1 27.9,97.299999 17.799999,17.799999 0 0 1 10.1,79.5 17.799999,17.799999 0 0 1 27.9,61.700001 17.799999,17.799999 0 0 1 45.699999,79.5 Z M 92.300003,25.6 a 12.5,12.5 0 0 1 -12.5,12.5 12.5,12.5 0 0 1 -12.5,-12.5 12.5,12.5 0 0 1 12.5,-12.5 12.5,12.5 0 0 1 12.5,12.5 z M 326.9,173.7 l 47.9,-0.1 c 3.1,0 4.7,1.6 4.7,4.7 0,3.2 -1.6,4.8 -4.7,4.8 L 326.9,183 c -3.3,0.2 -5,1.8 -4.9,5 0,3.2 1.7,4.7 4.9,4.7 h 38.3 c 9.7,0 14.5,4.8 14.5,14.4 0,9.6 -4.8,14.4 -14.5,14.4 h -48 c -3.2,0 -4.8,-1.6 -4.8,-4.7 0,-3.1 1.6,-4.8 4.8,-4.8 h 48 c 3.1,-0.1 4.7,-1.7 4.8,-4.9 0,-3.2 -1.6,-4.8 -4.8,-4.8 H 327 c -9.7,0 -14.5,-4.8 -14.5,-14.3 -0.1,-9.6 4.7,-14.3 14.4,-14.3 z m -90.1,43.1 v -38.6 c 0,-3.2 1.6,-4.8 4.8,-4.8 h 48.1 c 9.7,0 14.5,4.8 14.5,14.5 -0.1,6.3 -1.6,9.4 -4.6,9.4 3,0.2 4.5,3.5 4.6,9.9 0.1,9.5 -4.6,14.3 -14.3,14.3 l -48.3,0.1 c -3.2,0 -4.8,-1.6 -4.8,-4.8 z m 53.1,-33.7 h -43.5 v 9.6 h 43.5 c 3.2,0 4.8,-1.6 4.8,-4.8 -0.1,-3.1 -1.7,-4.7 -4.8,-4.8 z m 4.8,24 c 0,-3.2 -1.7,-4.7 -4.9,-4.7 h -43.3 v 9.5 l 43.4,-0.2 c 3.2,0.1 4.8,-1.4 4.8,-4.6 z m 18.8,-46 v -38.6 c 0,-3.2 1.6,-4.8 4.8,-4.8 h 48.1 c 9.7,0 14.5,4.8 14.5,14.5 -0.1,6.3 -1.6,9.4 -4.6,9.4 3,0.2 4.5,3.5 4.6,9.9 0.1,9.5 -4.6,14.3 -14.3,14.3 l -48.3,0.1 c -3.2,0 -4.8,-1.6 -4.8,-4.8 z m 53.1,-33.7 h -43.5 v 9.6 h 43.5 c 3.2,0 4.8,-1.6 4.8,-4.8 -0.1,-3.2 -1.7,-4.8 -4.8,-4.8 z m 4.8,23.9 c 0,-3.2 -1.7,-4.7 -4.9,-4.7 h -43.3 v 9.5 l 43.4,-0.2 c 3.2,0.2 4.8,-1.4 4.8,-4.6 z m -129,-33.6 c 3.2,0 4.8,1.6 4.8,4.8 v 24 c 0,6.5 3.2,9.8 9.7,9.8 h 29 c 6.5,0 9.7,-3.3 9.6,-9.8 v -23.9 c 0,-3.3 1.6,-4.9 4.8,-4.9 3.2,0 4.8,1.7 4.8,5 v 23.8 c 0,13 -6.4,19.5 -19.3,19.5 H 257 c -12.9,0 -19.3,-6.5 -19.3,-19.4 v -24 c 0,-3.3 1.6,-4.9 4.7,-4.9 z m -80.3,43.4 v -38.5 c 0,-3.2 1.6,-4.8 4.8,-4.8 3.2,0 4.8,1.5 4.8,4.6 V 137 H 220 l -0.1,-14.7 c 0.1,-3.1 1.7,-4.6 4.9,-4.6 3.2,0 4.8,1.6 4.7,4.7 V 161 c 0,3.2 -1.6,4.8 -4.8,4.8 -3.2,0 -4.8,-1.6 -4.8,-4.8 v -14.3 h -48.3 v 14.5 c -0.1,3.2 -1.7,4.7 -4.8,4.7 -3.1,0 -4.7,-1.6 -4.7,-4.8 z M 272,23.4 h 104.1 c 5.8,0 8.6,2.9 8.6,8.6 0,5.7 -2.8,8.6 -8.5,8.7 h -43.5 v 61 c 0,5.8 -2.9,8.6 -8.7,8.6 -5.8,0 -8.7,-2.9 -8.7,-8.6 v -61 h -43.4 c -5.7,-0.1 -8.5,-3 -8.5,-8.7 0,-5.7 2.9,-8.6 8.6,-8.6 z m -26.3,0 c 5.8,0 8.7,2.9 8.8,8.6 l -0.1,69.3 c 0,5.9 -2.9,8.8 -8.6,8.8 -5.8,0 -8.6,-2.9 -8.6,-8.6 V 32.1 c -0.2,-5.8 2.7,-8.7 8.5,-8.7 z M 27.285689,77.058878 140.2626,50.286218 l 1.153,4.8655 -112.976911,26.77266 z M 163,215.2 95.8,176.9 24.6,79.3 78,23.9 l 3.6,3.5 -50.4,52.3 68,93.4 66.3,37.8 z M 96.3,185.9 76.8,21.6 144,51.4 Z M 82.8,29.7 98.8,164 137.8,54.1 Z" />
</svg>