<?xml version="1.0" encoding="utf-8"?>
<!-- Generator: Adobe Illustrator 16.0.0, SVG Export Plug-In . SVG Version: 6.00 Build 0)  -->
<!DOCTYPE svg PUBLIC "-//W3C//DTD SVG 1.1//EN" "http://www.w3.org/Graphics/SVG/1.1/DTD/svg11.dtd">
<svg version="1.1"
	 id="Logo" xmlns:dc="http://purl.org/dc/elements/1.1/" xmlns:cc="http://creativecommons.org/ns#" xmlns:rdf="http://www.w3.org/1999/02/22-rdf-syntax-ns#" xmlns:svg="http://www.w3.org/2000/svg" xmlns:sodipodi="http://sodipodi.sourceforge.net/DTD/sodipodi-0.dtd" xmlns:inkscape="http://www.inkscape.org/namespaces/inkscape" inkscape:version="0.92.4 (5da689c313, 2019-01-14)" inkscape:export-ydpi="300" inkscape:export-xdpi="300" inkscape:export-filename="C:\Users\husema01\Desktop\circle4022.png" sodipodi:docname="logo_ithubbs_weiÃŸ.svg"
	 xmlns="http://www.w3.org/2000/svg" xmlns:xlink="http://www.w3.org/1999/xlink" x="0px" y="0px" width="558.456px"
	 height="314.114px" viewBox="15.057 263.366 558.456 314.114" enable-background="new 15.057 263.366 558.456 314.114"
	 xml:space="preserve">
<sodipodi:namedview  inkscape:cy="119.3254" inkscape:cx="199.64999" inkscape:zoom="0.95166544" showgrid="false" guidetolerance="10" gridtolerance="10" objecttolerance="10" borderopacity="1" pagecolor="#ffffff" bordercolor="#666666" id="namedview43" inkscape:current-layer="Logo" inkscape:window-maximized="1" inkscape:window-y="-8" inkscape:window-x="-8" inkscape:window-height="1377" inkscape:window-width="2560" inkscape:pageshadow="2" inkscape:pageopacity="0">
	</sodipodi:namedview>
<g id="g6">
</g>
<g id="g10">
</g>
<g id="g14">
</g>
<path id="circle40" fill="#0B6E38" d="M260.742,561.528c0,8.81-7.142,15.952-15.951,15.952c-8.811,0-15.952-7.144-15.952-15.952
	c0-8.81,7.143-15.951,15.952-15.951C253.601,545.577,260.742,552.719,260.742,561.528z M171.89,504.729
	c0,14.655-11.881,26.536-26.536,26.536l0,0c-14.655,0-26.536-11.881-26.536-26.536l0,0c0-14.654,11.881-26.535,26.536-26.535l0,0
	C160.01,478.192,171.89,490.073,171.89,504.729L171.89,504.729z M236.443,322.402c0,14.656-11.881,26.537-26.537,26.537l0,0
	c-14.655,0-26.536-11.881-26.536-26.537l0,0c0-14.655,11.881-26.536,26.536-26.536l0,0
	C224.562,295.866,236.443,307.747,236.443,322.402L236.443,322.402z M68.13,362.356c0,14.655-11.881,26.536-26.535,26.536
	c-14.656,0-26.537-11.881-26.537-26.536c0-14.656,11.881-26.537,26.537-26.537l0,0C56.249,335.82,68.13,347.701,68.13,362.356
	L68.13,362.356z M137.602,282.001c0,10.292-8.345,18.635-18.636,18.635c-10.292,0-18.636-8.343-18.636-18.635
	s8.344-18.635,18.636-18.635C129.258,263.366,137.602,271.71,137.602,282.001z M487.345,502.79l71.41-0.148
	c4.622,0,7.007,2.386,7.007,7.008c0,4.771-2.385,7.154-7.007,7.154l-71.41-0.147c-4.919,0.298-7.453,2.684-7.306,7.454
	c0,4.771,2.534,7.007,7.306,7.007h57.099c14.461,0,21.616,7.155,21.616,21.468s-7.155,21.467-21.616,21.467h-71.559
	c-4.771,0-7.156-2.385-7.156-7.007c0-4.621,2.385-7.155,7.156-7.155h71.559c4.621-0.148,7.007-2.534,7.155-7.305
	c0-4.771-2.385-7.156-7.155-7.156h-56.949c-14.461,0-21.615-7.155-21.615-21.317C465.729,509.797,472.885,502.79,487.345,502.79
	L487.345,502.79z M353.024,567.044v-57.545c0-4.771,2.385-7.156,7.155-7.156h71.708c14.461,0,21.617,7.156,21.617,21.617
	c-0.149,9.392-2.387,14.014-6.857,14.014c4.472,0.298,6.708,5.219,6.857,14.76c0.148,14.163-6.857,21.317-21.318,21.317
	l-72.007,0.149C355.408,574.2,353.024,571.814,353.024,567.044L353.024,567.044z M432.186,516.804h-64.851v14.313h64.851
	c4.771,0,7.155-2.386,7.155-7.156C439.193,519.339,436.807,516.953,432.186,516.804z M439.342,552.584
	c0-4.771-2.534-7.007-7.306-7.007h-64.552v14.162l64.701-0.298C436.956,559.591,439.342,557.354,439.342,552.584z M467.368,484.006
	v-57.545c0-4.771,2.387-7.156,7.156-7.156h71.708c14.461,0,21.616,7.156,21.616,21.617c-0.148,9.394-2.385,14.014-6.857,14.014
	c4.474,0.299,6.709,5.219,6.857,14.76c0.148,14.163-6.857,21.317-21.318,21.317l-72.006,0.149
	C469.755,491.162,467.368,488.777,467.368,484.006L467.368,484.006z M546.531,433.766H481.68v14.313h64.851
	c4.771,0,7.156-2.386,7.156-7.156C553.537,436.151,551.152,433.766,546.531,433.766z M553.687,469.396
	c0-4.771-2.535-7.008-7.306-7.008h-64.553v14.163l64.701-0.299C551.302,476.553,553.687,474.167,553.687,469.396z M361.372,419.305
	c4.771,0,7.155,2.387,7.155,7.156v35.779c0,9.689,4.771,14.609,14.461,14.609h43.233c9.689,0,14.461-4.92,14.313-14.609v-35.63
	c0-4.92,2.386-7.307,7.155-7.307c4.771,0,7.156,2.535,7.156,7.454v35.481c0,19.381-9.541,29.07-28.772,29.07h-42.936
	c-19.231,0-28.772-9.689-28.772-28.922V426.61C354.365,421.69,356.751,419.305,361.372,419.305L361.372,419.305z M241.66,484.006
	V426.61c0-4.771,2.385-7.156,7.155-7.156c4.77,0,7.156,2.236,7.156,6.856v21.768h72.006l-0.149-21.915
	c0.149-4.622,2.535-6.858,7.307-6.858c4.771,0,7.154,2.387,7.007,7.007v57.547c0,4.771-2.386,7.154-7.156,7.154
	c-4.77,0-7.156-2.385-7.156-7.154V462.54h-72.006v21.616c-0.148,4.771-2.534,7.007-7.155,7.007
	C244.045,491.162,241.66,488.777,241.66,484.006L241.66,484.006z M405.501,278.722h155.192c8.646,0,12.82,4.323,12.82,12.821
	s-4.174,12.821-12.672,12.97h-64.851v90.939c0,8.646-4.322,12.821-12.971,12.821c-8.646,0-12.97-4.323-12.97-12.821v-90.939h-64.701
	c-8.497-0.149-12.672-4.472-12.672-12.97C392.679,283.045,397.003,278.722,405.501,278.722z M366.291,278.722
	c8.647,0,12.972,4.323,13.119,12.821l-0.147,103.313c0,8.795-4.323,13.119-12.821,13.119c-8.646,0-12.821-4.322-12.821-12.82
	V291.692C353.322,283.045,357.645,278.722,366.291,278.722L366.291,278.722z M40.678,358.717l168.427-39.913l1.719,7.253
	L42.397,365.971L40.678,358.717z M243.002,564.659L142.82,507.563L36.674,362.058l79.609-82.591l5.366,5.218l-75.137,77.969
	l101.375,139.243l98.841,56.353L243.002,564.659z M143.565,520.979l-29.07-244.939l100.184,44.426L143.565,520.979z
	 M123.439,288.114l23.854,200.216l58.143-163.84L123.439,288.114z"/>
</svg>
