<?xml version="1.0" encoding="utf-8"?>
<!-- Generator: Adobe Illustrator 16.0.0, SVG Export Plug-In . SVG Version: 6.00 Build 0)  -->
<!DOCTYPE svg PUBLIC "-//W3C//DTD SVG 1.1//EN" "http://www.w3.org/Graphics/SVG/1.1/DTD/svg11.dtd">
<svg version="1.1" id="Ebene_1" xmlns="http://www.w3.org/2000/svg" xmlns:xlink="http://www.w3.org/1999/xlink" x="0px" y="0px"
	 width="33.182px" height="33.181px" viewBox="0 0 33.182 33.181" enable-background="new 0 0 33.182 33.181" xml:space="preserve">
<g>
	
		<polygon fill="none" stroke="#0B6E39" stroke-width="2" stroke-linecap="round" stroke-linejoin="round" stroke-miterlimit="10" points="
		16.591,4.86 20.769,1 22.456,6.432 28.004,5.177 26.75,10.726 32.182,12.413 28.322,16.59 32.182,20.768 26.75,22.456 
		28.004,28.004 22.456,26.75 20.769,32.181 16.591,28.321 12.413,32.181 10.726,26.75 5.178,28.004 6.431,22.456 1,20.768 
		4.86,16.59 1,12.413 6.431,10.726 5.178,5.177 10.726,6.432 12.413,1 	"/>
	<g>
		<g>
			<path fill="none" stroke="#0B6E39" stroke-width="2" stroke-linecap="round" stroke-linejoin="round" stroke-miterlimit="10" d="
				M14.028,23.162c-0.752,0.148-1.502,0.303-2.252,0.464c-0.395-1.596-0.521-3.262-0.362-4.929c0.765,0.069,1.527,0.144,2.29,0.226
				C13.57,20.359,13.685,21.792,14.028,23.162z"/>
		</g>
		<g>
			<path fill="none" stroke="#0B6E39" stroke-width="2" stroke-linecap="round" stroke-linejoin="round" stroke-miterlimit="10" d="
				M21.965,21.026c-3.818-2.035-8.229-2.445-12.878-2.674c-0.414-1.662-0.615-3.347-0.567-5.058
				c4.618-1.005,9.141-1.595,12.708-3.925C22.597,13.125,22.992,17.003,21.965,21.026z"/>
		</g>
		
			<line fill="none" stroke="#0B6E39" stroke-width="2" stroke-linecap="round" stroke-linejoin="round" stroke-miterlimit="10" x1="13.333" y1="12.453" x2="13.733" y2="18.817"/>
		<path fill="none" stroke="#0B6E39" stroke-width="2" stroke-linecap="round" stroke-linejoin="round" stroke-miterlimit="10" d="
			M22.464,12.983l0.311,4.949c1.146-0.375,2.113-1.427,2.038-2.612C24.738,14.135,23.647,13.212,22.464,12.983z"/>
	</g>
</g>
</svg>
