<?xml version="1.0" encoding="UTF-8" standalone="no"?>
<!-- Generator: Adobe Illustrator 19.0.0, SVG Export Plug-In . SVG Version: 6.00 Build 0)  -->

<svg
  xmlns:dc="http://purl.org/dc/elements/1.1/"
  xmlns:cc="http://creativecommons.org/ns#"
  xmlns:rdf="http://www.w3.org/1999/02/22-rdf-syntax-ns#"
  xmlns="http://www.w3.org/2000/svg"
  xmlns:sodipodi="http://sodipodi.sourceforge.net/DTD/sodipodi-0.dtd"
  xmlns:inkscape="http://www.inkscape.org/namespaces/inkscape"
  version="1.1"
  id="Capa_1"
  x="0px"
  y="0px"
  viewBox="0 0 511.973 511.973"
  style="enable-background:new 0 0 511.973 511.973;"
  xml:space="preserve"
  sodipodi:docname="solidarity.svg"
  inkscape:version="0.92.3 (2405546, 2018-03-11)"><metadata
   id="metadata43"><rdf:RDF><cc:Work
       rdf:about=""><dc:format>image/svg+xml</dc:format><dc:type
         rdf:resource="http://purl.org/dc/dcmitype/StillImage" /><dc:title></dc:title></cc:Work></rdf:RDF></metadata><defs
   id="defs41" /><sodipodi:namedview
   pagecolor="#ffffff"
   bordercolor="#666666"
   borderopacity="1"
   objecttolerance="10"
   gridtolerance="10"
   guidetolerance="10"
   inkscape:pageopacity="0"
   inkscape:pageshadow="2"
   inkscape:window-width="1920"
   inkscape:window-height="986"
   id="namedview39"
   showgrid="false"
   inkscape:snap-global="false"
   inkscape:zoom="1.3037969"
   inkscape:cx="177.63442"
   inkscape:cy="323.3275"
   inkscape:window-x="-11"
   inkscape:window-y="-11"
   inkscape:window-maximized="1"
   inkscape:current-layer="g4" />
<g
   id="g6">
	<g
   id="g4">
		<path
   d="M470.137,50.714C439.261,23.482,397.65,11.823,357.12,19.047c-42.016,7.518-78.817,32.632-101.133,69.017    c-22.316-36.385-59.117-61.499-101.133-69.017c-40.529-7.213-82.136,4.445-113.017,31.667    C4.703,84.747-8.555,142.264,5.462,208.531c0.052,0.249,0.219,0.434,0.292,0.673c0.357,1.081,0.904,2.089,1.616,2.977    c0.161,0.194,0.227,0.434,0.41,0.617c0.236,0.176,0.481,0.339,0.735,0.489c0.435,0.357,0.905,0.67,1.403,0.932    c0.951,0.499,1.99,0.811,3.059,0.917c0.283,0.028,0.552,0.163,0.835,0.163c0.305-0.043,0.608-0.102,0.906-0.177    c0.287,0.013,0.574,0.011,0.86-0.007c0.25-0.053,0.435-0.219,0.676-0.292c0.54-0.17,1.061-0.395,1.554-0.672    c0.509-0.266,0.989-0.585,1.432-0.952c0.19-0.159,0.426-0.223,0.604-0.401l30.017-30.009l0.1-0.066    c6.58-6.599,17.241-6.688,23.931-0.201c6.69,6.487,6.929,17.146,0.535,23.926l-49.233,49.233c-2.164,2.151-3.014,5.295-2.23,8.244    c0.784,2.949,3.084,5.255,6.03,6.047s6.092-0.049,8.25-2.207l48.694-48.693c0.067-0.064,0.156-0.082,0.223-0.148    c0.127-0.127,0.208-0.28,0.333-0.408l29.594-29.594c0.075-0.07,0.175-0.091,0.248-0.164c6.745-6.467,17.388-6.467,24.133,0    c6.614,6.637,6.648,17.364,0.075,24.042l-0.1,0.066l-90.858,90.867c-2.155,2.156-2.997,5.297-2.208,8.242    c0.789,2.945,3.089,5.244,6.033,6.033c2.944,0.789,6.086-0.053,8.242-2.208l78.875-78.783l0.206-0.207    c6.743-6.485,17.452-6.326,24,0.356s6.489,17.392-0.131,24.002l-18.089,18.092l-0.01,0.008l-0.004,0.005L80.57,345.206    c-2.156,2.156-2.997,5.297-2.208,8.242c0.789,2.944,3.089,5.244,6.033,6.033s6.086-0.053,8.242-2.208l65.944-65.949    c6.666-6.664,17.472-6.661,24.136,0.005c6.664,6.666,6.662,17.472-0.005,24.136c-0.036,0.036-0.046,0.087-0.082,0.124    l-66.134,66.134c-0.043,0.043-0.054,0.102-0.096,0.145c-0.044,0.045-0.104,0.06-0.146,0.105c-0.312,0.417-0.582,0.862-0.808,1.331    c-0.331,0.442-0.618,0.916-0.858,1.413c-0.158,0.528-0.264,1.07-0.315,1.618c-0.347,1.031-0.324,2.151,0.063,3.168    c0.074,0.547,0.202,1.086,0.381,1.608c0.266,0.499,0.579,0.971,0.937,1.41c0.24,0.448,0.522,0.873,0.843,1.268    c0.043,0.043,0.102,0.055,0.145,0.096c0.045,0.043,0.06,0.103,0.105,0.145c41.675,37.435,86.808,70.832,134.792,99.742    c2.733,1.667,6.168,1.667,8.9,0c47.983-28.91,93.116-62.307,134.791-99.742c0.046-0.042,0.06-0.102,0.105-0.145    c0.043-0.042,0.102-0.054,0.145-0.096c0.32-0.395,0.602-0.82,0.843-1.268c0.357-0.438,0.671-0.911,0.937-1.41    c0.272-1.051,0.502-2.113,0.687-3.183c-0.031-0.538-0.112-1.071-0.244-1.593c-0.051-0.549-0.156-1.091-0.315-1.618    c-0.24-0.497-0.528-0.971-0.858-1.413c-0.226-0.469-0.497-0.914-0.809-1.331c-0.042-0.046-0.102-0.06-0.146-0.105    c-0.042-0.043-0.053-0.102-0.096-0.145l-66.134-66.134c-0.036-0.037-0.046-0.087-0.082-0.124    c-6.666-6.664-6.668-17.47-0.005-24.136c6.664-6.666,17.47-6.668,24.136-0.005l65.944,65.949c3.332,3.332,8.734,3.332,12.067,0    c3.332-3.332,3.332-8.735,0-12.067l-65.929-65.936l-0.004-0.005l-0.01-0.008l-18.089-18.093    c-4.313-4.311-5.997-10.595-4.42-16.485c1.577-5.89,6.177-10.492,12.067-12.071c5.89-1.579,12.175,0.104,16.487,4.415l0.102,0.068    l78.715,78.707c3.337,3.303,8.716,3.29,12.036-0.031c3.32-3.32,3.334-8.699,0.03-12.036l-78.751-78.676l-0.066-0.099    c-0.054-0.055-0.121-0.09-0.176-0.144l-11.866-11.948l-0.025-0.017c-6.657-6.66-6.656-17.455,0.004-24.112    c6.66-6.657,17.455-6.656,24.112,0.004c0.073,0.073,0.173,0.095,0.247,0.165l28.786,28.786c0.344,0.41,0.708,0.789,1.162,1.244    l0.012,0.014l0.002,0.001l0.006,0.007l48.892,48.808c2.157,2.158,5.303,3,8.25,2.207c2.947-0.792,5.246-3.098,6.03-6.047    c0.784-2.949-0.066-6.092-2.23-8.244l-48.967-48.858c-0.148-0.19-0.316-0.364-0.477-0.543l-0.04-0.065    c-6.148-6.734-5.883-17.121,0.6-23.533c6.742-6.45,17.367-6.45,24.108,0l30.125,30.117c0.178,0.178,0.415,0.242,0.604,0.401    c0.891,0.715,1.902,1.265,2.987,1.623c0.241,0.073,0.426,0.239,0.676,0.292c0.578,0.12,1.167,0.181,1.757,0.181l0.009,0.002    l0.003,0l0.005,0c1.037-0.01,2.063-0.21,3.027-0.591c0.265-0.13,0.523-0.274,0.773-0.431c0.684-0.331,1.319-0.753,1.89-1.254    c0.102-0.093,0.236-0.125,0.335-0.223c0.18-0.18,0.245-0.418,0.405-0.61c0.44-0.513,0.816-1.079,1.118-1.684    c0.192-0.386,0.354-0.787,0.482-1.198c0.117-0.253,0.221-0.511,0.311-0.774C520.528,142.264,507.27,84.747,470.137,50.714z     M492.58,189.119l-18.51-18.505c-13.498-12.888-34.743-12.888-48.242,0c-4.219,4.253-7.249,9.538-8.789,15.328l-9.27-9.27    c-0.131-0.132-0.308-0.176-0.447-0.297c-11.821-11.584-30.266-12.972-43.687-3.287c-13.421,9.685-17.917,27.627-10.649,42.496    c-11.758,2.241-21.469,10.503-25.564,21.749s-1.971,23.819,5.593,33.095c-5.981,1.447-11.452,4.502-15.821,8.835    c-13.228,13.275-13.295,34.728-0.149,48.084c0.063,0.068,0.082,0.158,0.149,0.224l59.822,59.822    c-37.724,33.096-78.216,62.898-121.03,89.078c-42.814-26.181-83.306-55.982-121.03-89.078l59.822-59.822    c0.067-0.066,0.085-0.156,0.149-0.224c13.146-13.357,13.079-34.809-0.149-48.084c-4.373-4.329-9.844-7.383-15.824-8.832    c7.561-9.272,9.688-21.838,5.6-33.082c-4.088-11.244-13.788-19.51-25.539-21.762c6.327-13.026,3.728-28.627-6.479-38.899    c-13.349-12.763-34.334-12.908-47.858-0.33c-0.15,0.131-0.341,0.179-0.483,0.322l-9.341,9.341    c-1.482-5.803-4.483-11.106-8.693-15.366c-13.249-13.223-34.676-13.309-48.031-0.193c-0.069,0.065-0.16,0.084-0.227,0.151    l-18.511,18.505c-7.705-53.346,4.309-98.636,33.977-125.822c27.127-23.465,63.348-33.528,98.692-27.417    c40.125,6.658,74.375,32.55,96.433,72.917c1.63,2.561,4.456,4.113,7.492,4.113c3.036,0,5.862-1.551,7.492-4.113    c22.059-40.367,56.308-66.258,96.433-72.917c35.343-6.109,71.563,3.953,98.692,27.417    C488.271,90.483,500.286,135.773,492.58,189.119z"
   id="path2"
   style="fill:#9bc325;fill-opacity:1" />
	<path
   style="fill:#9bc325;stroke:none;stroke-width:1px;stroke-linecap:butt;stroke-linejoin:miter;stroke-opacity:1;fill-opacity:1"
   d="M 37.582541,60.215514 12.27185,116.20583 v 89.7379 L 60.592259,165.29323 94.854,186.021 l 30.93246,-7.68893 18.40778,4.60194 9.97088,19.17477 -4.60195,13.03884 24.5437,19.17477 0.76699,38.34953 22.24273,21.47573 -3.83495,24.5437 -67.49518,68.26217 86.66994,72.86411 43.71847,24.5437 82.068,-53.68934 50.62138,-42.18449 -73.6311,-79.00003 3.83495,-19.17477 23.00972,-19.94175 -4.60195,-34.51458 29.14565,-16.8738 -9.97088,-20.70874 21.47574,-24.5437 39.88351,19.17476 15.33981,-17.64078 29.14565,-3.83496 37.58254,32.21361 L 499.3109,104.70097 447.92252,44.875702 375.82541,25.700936 303.72829,49.477645 270.74769,80.924261 255.40788,98.565045 201.71853,45.642692 141.12627,28.001908 94.339847,28.768899 Z"
   id="path850"
   inkscape:connector-curvature="0" /></g>
</g>
<g
   id="g8">
</g>
<g
   id="g10">
</g>
<g
   id="g12">
</g>
<g
   id="g14">
</g>
<g
   id="g16">
</g>
<g
   id="g18">
</g>
<g
   id="g20">
</g>
<g
   id="g22">
</g>
<g
   id="g24">
</g>
<g
   id="g26">
</g>
<g
   id="g28">
</g>
<g
   id="g30">
</g>
<g
   id="g32">
</g>
<g
   id="g34">
</g>
<g
   id="g36">
</g>
</svg>
