<?xml version="1.0" encoding="UTF-8" standalone="no"?>
<svg
   xmlns:dc="http://purl.org/dc/elements/1.1/"
   xmlns:cc="http://creativecommons.org/ns#"
   xmlns:rdf="http://www.w3.org/1999/02/22-rdf-syntax-ns#"
   xmlns:svg="http://www.w3.org/2000/svg"
   xmlns="http://www.w3.org/2000/svg"
   xmlns:sodipodi="http://sodipodi.sourceforge.net/DTD/sodipodi-0.dtd"
   xmlns:inkscape="http://www.inkscape.org/namespaces/inkscape"
   version="1.1"
   viewBox="0 0 167.432 115.153"
   enable-background="new 0 0 167.432 167.432"
   id="svg6"
   sodipodi:docname="barrierefreiheit.svg"
   width="167.43201"
   height="115.153"
   inkscape:version="0.92.3 (2405546, 2018-03-11)">
  <metadata
     id="metadata12">
    <rdf:RDF>
      <cc:Work
         rdf:about="">
        <dc:format>image/svg+xml</dc:format>
        <dc:type
           rdf:resource="http://purl.org/dc/dcmitype/StillImage" />
        <dc:title></dc:title>
      </cc:Work>
    </rdf:RDF>
  </metadata>
  <defs
     id="defs10" />
  <sodipodi:namedview
     pagecolor="#ffffff"
     bordercolor="#666666"
     borderopacity="1"
     objecttolerance="10"
     gridtolerance="10"
     guidetolerance="10"
     inkscape:pageopacity="0"
     inkscape:pageshadow="2"
     inkscape:window-width="1920"
     inkscape:window-height="986"
     id="namedview8"
     showgrid="false"
     fit-margin-top="0"
     fit-margin-left="0"
     fit-margin-right="0"
     fit-margin-bottom="0"
     inkscape:zoom="1.4095274"
     inkscape:cx="83.716003"
     inkscape:cy="57.576997"
     inkscape:window-x="-11"
     inkscape:window-y="-11"
     inkscape:window-maximized="1"
     inkscape:current-layer="svg6" />
  <g
     id="g4"
     transform="translate(0,-26.14)"
     style="fill:#9bc325;fill-opacity:1">
    <path
       d="m 161.432,26.14 h -38.857 c -3.313,0 -6,2.687 -6,6 V 51.639 H 83.716 c -3.313,0 -6,2.687 -6,6 V 78.295 H 44.857 c -3.313,0 -6,2.687 -6,6 v 19.499 H 6 c -3.313,0 -6,2.687 -6,6 v 25.499 c 0,3.313 2.687,6 6,6 h 155.432 c 3.313,0 6,-2.687 6,-6 V 32.14 c 0,-3.314 -2.687,-6 -6,-6 z m -6,103.152 H 12 v -13.499 h 32.857 c 3.313,0 6,-2.687 6,-6 V 90.295 h 32.858 c 3.313,0 6,-2.687 6,-6 V 63.639 h 32.858 c 3.313,0 6,-2.687 6,-6 V 38.14 h 26.857 v 91.152 z"
       id="path2"
       inkscape:connector-curvature="0"
       style="fill:#9bc325;fill-opacity:1" />
  </g>
</svg>
