<?xml version="1.0" encoding="UTF-8" standalone="no"?>
<!-- Generator: Adobe Illustrator 19.0.0, SVG Export Plug-In . SVG Version: 6.00 Build 0)  -->

<svg
   xmlns:dc="http://purl.org/dc/elements/1.1/"
   xmlns:cc="http://creativecommons.org/ns#"
   xmlns:rdf="http://www.w3.org/1999/02/22-rdf-syntax-ns#"
   xmlns:svg="http://www.w3.org/2000/svg"
   xmlns="http://www.w3.org/2000/svg"
   xmlns:sodipodi="http://sodipodi.sourceforge.net/DTD/sodipodi-0.dtd"
   xmlns:inkscape="http://www.inkscape.org/namespaces/inkscape"
   version="1.1"
   id="Capa_1"
   x="0px"
   y="0px"
   viewBox="0 0 196.908 196.908"
   style="enable-background:new 0 0 196.908 196.908;"
   xml:space="preserve"
   sodipodi:docname="brain.svg"
   inkscape:version="0.92.3 (2405546, 2018-03-11)"><metadata
   id="metadata139"><rdf:RDF><cc:Work
       rdf:about=""><dc:format>image/svg+xml</dc:format><dc:type
         rdf:resource="http://purl.org/dc/dcmitype/StillImage" /><dc:title></dc:title></cc:Work></rdf:RDF></metadata><defs
   id="defs137" /><sodipodi:namedview
   pagecolor="#ffffff"
   bordercolor="#666666"
   borderopacity="1"
   objecttolerance="10"
   gridtolerance="10"
   guidetolerance="10"
   inkscape:pageopacity="0"
   inkscape:pageshadow="2"
   inkscape:window-width="1920"
   inkscape:window-height="986"
   id="namedview135"
   showgrid="false"
   inkscape:zoom="1.1985292"
   inkscape:cx="-216.51537"
   inkscape:cy="98.453999"
   inkscape:window-x="-11"
   inkscape:window-y="-11"
   inkscape:window-maximized="1"
   inkscape:current-layer="Capa_1" />
<g
   id="g6"
   style="fill:#9bc325;fill-opacity:1;stroke:#9bc325;stroke-opacity:1;stroke-width:4.3;stroke-miterlimit:4;stroke-dasharray:none">
	<g
   id="g4"
   style="fill:#9bc325;fill-opacity:1;stroke:#9bc325;stroke-opacity:1;stroke-width:4.3;stroke-miterlimit:4;stroke-dasharray:none">
		<path
   d="M187.627,86.562c-1.024-8.201-4.451-14.732-5.89-17.181c1.041-17.063-2.342-29.911-10.059-38.2    c-6.016-6.461-13.044-8.289-16.613-8.805c-5.443-11.506-14.696-13.732-20.32-13.191c-10.53-9.807-20.27-10.04-26.689-8.439    c-4.233,1.058-7.547,3.041-9.603,4.536c-2.055-1.497-5.371-3.478-9.603-4.536c-6.419-1.604-16.159-1.37-26.689,8.439    c-5.63-0.543-14.879,1.685-20.32,13.191c-3.569,0.515-10.597,2.343-16.613,8.805c-7.719,8.289-11.1,21.137-10.059,38.2    c-1.439,2.447-4.864,8.98-5.89,17.181C8.12,95.855,9.89,108.96,24.42,119.593c-1.684,9.94-0.09,27.051,15.785,35.465    c-0.659,3.616-1.096,9.888,2.132,15.249c2.538,4.217,6.731,6.991,12.477,8.259c2.901,4.477,12.901,18.343,25.38,18.343    c0.079,0,0.16,0,0.239-0.002c6.69-0.096,12.735-4.05,18.019-11.771c5.286,7.719,11.331,11.675,18.019,11.771    c12.571,0.184,22.7-13.836,25.62-18.341c5.746-1.268,9.94-4.041,12.477-8.259c3.229-5.361,2.79-11.634,2.132-15.249    c15.877-8.414,17.471-25.525,15.787-35.465C187.018,108.96,188.789,95.856,187.627,86.562z M166.794,115.246    c-1.2,0.8-1.768,2.268-1.418,3.668c0.232,0.928,5.451,22.794-13.981,31.121c-1.633,0.7-2.456,2.533-1.894,4.217    c0.024,0.073,2.325,7.38-0.782,12.537c-1.684,2.799-4.815,4.598-9.3,5.345c-1,0.166-1.874,0.77-2.386,1.644    c-2.669,4.555-11.494,16.305-20.325,16.305c-0.049,0-0.101,0-0.152,0c-5.311-0.082-10.373-4.465-15.044-13.027    c-0.599-1.096-1.877-1.778-3.127-1.778s-2.398,0.681-2.997,1.778c-4.669,8.562-9.731,12.945-15.044,13.027    c-8.841,0.142-17.792-11.723-20.477-16.305c-0.512-0.874-1.388-1.478-2.386-1.644c-4.471-0.746-7.595-2.536-9.283-5.318    c-3.145-5.185-0.818-12.501-0.797-12.565c0.56-1.684-0.261-3.517-1.894-4.217c-19.33-8.284-14.205-30.199-13.979-31.121    c0.35-1.399-0.218-2.867-1.418-3.668c-25.464-16.976-9.318-42.057-8.622-43.11c0.42-0.63,0.618-1.382,0.565-2.137    c-1.113-15.563,1.603-27.02,8.071-34.057c6.219-6.765,13.746-6.939,14.041-6.943c1.396,0,2.65-0.85,3.169-2.145    c3.82-9.547,9.958-10.911,13.15-10.911c1.027,0,1.751,0.142,1.99,0.198c1.164,0.29,2.393-0.049,3.241-0.898    C72.661,8.299,79.8,5.632,86.935,7.308c5.46,1.283,9.015,4.722,9.039,4.746c0.64,0.64,1.509,1,2.413,1h0.13    c0.905,0,1.773-0.36,2.413-1c0.034-0.034,3.468-3.357,8.781-4.685c7.219-1.804,14.447,0.841,21.478,7.873    c0.829,0.831,2.058,1.166,3.209,0.906c1.019-0.234,10.122-1.918,15.172,10.706c0.512,1.28,1.768,2.128,3.147,2.145    c0.317,0.005,7.844,0.177,14.063,6.943c6.467,7.037,9.182,18.495,8.071,34.057c-0.053,0.754,0.145,1.507,0.565,2.137    c0.044,0.065,4.35,6.607,5.434,15.275C182.263,98.72,177.534,108.086,166.794,115.246z"
   id="path2"
   style="fill:#9bc325;fill-opacity:1;stroke:#9bc325;stroke-opacity:1;stroke-width:4.3;stroke-miterlimit:4;stroke-dasharray:none" />
	</g>
</g>
<g
   id="g12"
   style="fill:#9bc325;fill-opacity:1;stroke:#9bc325;stroke-opacity:1;stroke-width:4.3;stroke-miterlimit:4;stroke-dasharray:none">
	<g
   id="g10"
   style="fill:#9bc325;fill-opacity:1;stroke:#9bc325;stroke-opacity:1;stroke-width:4.3;stroke-miterlimit:4;stroke-dasharray:none">
		<path
   d="M155.851,24.507c-0.597-1.789-2.534-2.753-4.318-2.159c-21.227,7.076-21.472,24.815-21.472,25.566    c0,1.876,1.514,3.389,3.389,3.401c0.009,0,0.017,0,0.024,0c1.865,0,3.388-1.512,3.413-3.378    c0.009-0.555,0.377-13.638,16.804-19.113C155.48,28.228,156.446,26.296,155.851,24.507z"
   id="path8"
   style="fill:#9bc325;fill-opacity:1;stroke:#9bc325;stroke-opacity:1;stroke-width:4.3;stroke-miterlimit:4;stroke-dasharray:none" />
	</g>
</g>
<g
   id="g18"
   style="fill:#9bc325;fill-opacity:1;stroke:#9bc325;stroke-opacity:1;stroke-width:4.3;stroke-miterlimit:4;stroke-dasharray:none">
	<g
   id="g16"
   style="fill:#9bc325;fill-opacity:1;stroke:#9bc325;stroke-opacity:1;stroke-width:4.3;stroke-miterlimit:4;stroke-dasharray:none">
		<path
   d="M171.272,116.014c-1.143-1.498-3.282-1.789-4.784-0.645c-5.562,4.238-10.592,5.748-14.94,4.495    c-7.747-2.231-11.65-12.435-11.687-12.539c-0.655-1.765-2.62-2.668-4.381-2.012c-1.768,0.652-2.673,2.616-2.019,4.384    c0.203,0.55,5.1,13.5,16.157,16.715c1.649,0.48,3.33,0.719,5.04,0.719c5.089,0,10.441-2.118,15.969-6.333    C172.126,119.656,172.414,117.512,171.272,116.014z"
   id="path14"
   style="fill:#9bc325;fill-opacity:1;stroke:#9bc325;stroke-opacity:1;stroke-width:4.3;stroke-miterlimit:4;stroke-dasharray:none" />
	</g>
</g>
<g
   id="g24"
   style="fill:#9bc325;fill-opacity:1;stroke:#9bc325;stroke-opacity:1;stroke-width:4.3;stroke-miterlimit:4;stroke-dasharray:none">
	<g
   id="g22"
   style="fill:#9bc325;fill-opacity:1;stroke:#9bc325;stroke-opacity:1;stroke-width:4.3;stroke-miterlimit:4;stroke-dasharray:none">
		<path
   d="M113.561,118.861c-1.331-1.333-3.495-1.333-4.826,0c-1.333,1.333-1.333,3.494,0,4.826    c11.083,11.083,8.784,21.791,8.666,22.298c-0.444,1.823,0.667,3.662,2.488,4.118c0.276,0.068,0.555,0.102,0.829,0.102    c1.529,0,2.922-1.036,3.309-2.587C124.178,147.021,127.525,132.825,113.561,118.861z"
   id="path20"
   style="fill:#9bc325;fill-opacity:1;stroke:#9bc325;stroke-opacity:1;stroke-width:4.3;stroke-miterlimit:4;stroke-dasharray:none" />
	</g>
</g>
<g
   id="g30"
   style="fill:#9bc325;fill-opacity:1;stroke:#9bc325;stroke-opacity:1;stroke-width:4.3;stroke-miterlimit:4;stroke-dasharray:none">
	<g
   id="g28"
   style="fill:#9bc325;fill-opacity:1;stroke:#9bc325;stroke-opacity:1;stroke-width:4.3;stroke-miterlimit:4;stroke-dasharray:none">
		<path
   d="M166.519,86.873c-0.642-1.768-2.599-2.683-4.369-2.046c-0.691,0.247-16.966,5.938-25.61-5.567    c-4.49-5.975-6.419-11.092-7.97-15.203c-1.903-5.043-3.698-9.808-9.665-10.3c-1.862-0.157-3.528,1.242-3.681,3.121    c-0.155,1.877,1.242,3.526,3.121,3.681c1.429,0.116,1.966,0.945,3.837,5.905c1.615,4.279,3.825,10.139,8.9,16.894    c5.948,7.916,14.246,9.904,21.088,9.904c6.624,0,11.882-1.865,12.315-2.021C166.253,90.596,167.161,88.642,166.519,86.873z"
   id="path26"
   style="fill:#9bc325;fill-opacity:1;stroke:#9bc325;stroke-opacity:1;stroke-width:4.3;stroke-miterlimit:4;stroke-dasharray:none" />
	</g>
</g>
<g
   id="g36"
   style="fill:#9bc325;fill-opacity:1;stroke:#9bc325;stroke-opacity:1;stroke-width:4.3;stroke-miterlimit:4;stroke-dasharray:none">
	<g
   id="g34"
   style="fill:#9bc325;fill-opacity:1;stroke:#9bc325;stroke-opacity:1;stroke-width:4.3;stroke-miterlimit:4;stroke-dasharray:none">
		<path
   d="M98.389,6.226c-1.884,0-3.413,1.529-3.413,3.413v169.047c0,1.884,1.529,3.413,3.413,3.413    c1.884,0,3.413-1.527,3.413-3.412V9.639C101.802,7.755,100.273,6.226,98.389,6.226z"
   id="path32"
   style="fill:#9bc325;fill-opacity:1;stroke:#9bc325;stroke-opacity:1;stroke-width:4.3;stroke-miterlimit:4;stroke-dasharray:none" />
	</g>
</g>
<g
   id="g42"
   style="fill:#9bc325;fill-opacity:1;stroke:#9bc325;stroke-opacity:1;stroke-width:4.3;stroke-miterlimit:4;stroke-dasharray:none">
	<g
   id="g40"
   style="fill:#9bc325;fill-opacity:1;stroke:#9bc325;stroke-opacity:1;stroke-width:4.3;stroke-miterlimit:4;stroke-dasharray:none">
		<path
   d="M123.346,35.632c-0.027-1.884-1.521-3.413-3.463-3.364c-1.886,0.027-3.391,1.579-3.364,3.463    c0.003,0.213,0.189,21.495-10.453,34.992c-1.167,1.481-0.915,3.627,0.567,4.794c0.626,0.495,1.37,0.734,2.111,0.734    c1.009,0,2.009-0.445,2.681-1.3C123.552,59.573,123.359,36.603,123.346,35.632z"
   id="path38"
   style="fill:#9bc325;fill-opacity:1;stroke:#9bc325;stroke-opacity:1;stroke-width:4.3;stroke-miterlimit:4;stroke-dasharray:none" />
	</g>
</g>
<g
   id="g48"
   style="fill:#9bc325;fill-opacity:1;stroke:#9bc325;stroke-opacity:1;stroke-width:4.3;stroke-miterlimit:4;stroke-dasharray:none">
	<g
   id="g46"
   style="fill:#9bc325;fill-opacity:1;stroke:#9bc325;stroke-opacity:1;stroke-width:4.3;stroke-miterlimit:4;stroke-dasharray:none">
		<path
   d="M130.285,140.187c-15.046,0-22.084,20.594-22.376,21.472c-0.596,1.787,0.369,3.715,2.156,4.314    c0.358,0.121,0.724,0.177,1.082,0.177c1.427,0,2.758-0.901,3.238-2.33c1.572-4.675,7.494-16.807,15.901-16.807    c1.884,0,3.413-1.529,3.413-3.413S132.169,140.187,130.285,140.187z"
   id="path44"
   style="fill:#9bc325;fill-opacity:1;stroke:#9bc325;stroke-opacity:1;stroke-width:4.3;stroke-miterlimit:4;stroke-dasharray:none" />
	</g>
</g>
<g
   id="g54"
   style="fill:#9bc325;fill-opacity:1;stroke:#9bc325;stroke-opacity:1;stroke-width:4.3;stroke-miterlimit:4;stroke-dasharray:none">
	<g
   id="g52"
   style="fill:#9bc325;fill-opacity:1;stroke:#9bc325;stroke-opacity:1;stroke-width:4.3;stroke-miterlimit:4;stroke-dasharray:none">
		<path
   d="M134.13,8.654c-1.509-1.125-3.649-0.812-4.775,0.701l-8.189,11.003c-1.125,1.51-0.811,3.649,0.701,4.775    c0.611,0.457,1.324,0.676,2.034,0.676c1.043,0,2.072-0.474,2.741-1.377l8.189-11.003C135.956,11.919,135.642,9.781,134.13,8.654z"
   id="path50"
   style="fill:#9bc325;fill-opacity:1;stroke:#9bc325;stroke-opacity:1;stroke-width:4.3;stroke-miterlimit:4;stroke-dasharray:none" />
	</g>
</g>
<g
   id="g60"
   style="fill:#9bc325;fill-opacity:1;stroke:#9bc325;stroke-opacity:1;stroke-width:4.3;stroke-miterlimit:4;stroke-dasharray:none">
	<g
   id="g58"
   style="fill:#9bc325;fill-opacity:1;stroke:#9bc325;stroke-opacity:1;stroke-width:4.3;stroke-miterlimit:4;stroke-dasharray:none">
		<path
   d="M64.251,30.715c-7.528,0-13.653,6.125-13.653,13.653c0,7.528,6.125,13.653,13.653,13.653s13.653-6.125,13.653-13.653    C77.904,36.84,71.779,30.715,64.251,30.715z M64.251,51.195c-3.765,0-6.827-3.062-6.827-6.827c0-3.765,3.062-6.827,6.827-6.827    c3.765,0,6.827,3.062,6.827,6.827C71.077,48.133,68.015,51.195,64.251,51.195z"
   id="path56"
   style="fill:#9bc325;fill-opacity:1;stroke:#9bc325;stroke-opacity:1;stroke-width:4.3;stroke-miterlimit:4;stroke-dasharray:none" />
	</g>
</g>
<g
   id="g66"
   style="fill:#9bc325;fill-opacity:1;stroke:#9bc325;stroke-opacity:1;stroke-width:4.3;stroke-miterlimit:4;stroke-dasharray:none">
	<g
   id="g64"
   style="fill:#9bc325;fill-opacity:1;stroke:#9bc325;stroke-opacity:1;stroke-width:4.3;stroke-miterlimit:4;stroke-dasharray:none">
		<path
   d="M40.357,75.088c-7.528,0-13.653,6.125-13.653,13.653c0,7.528,6.125,13.653,13.653,13.653    c7.528,0,13.653-6.125,13.653-13.653C54.011,81.213,47.885,75.088,40.357,75.088z M40.357,95.568    c-3.765,0-6.827-3.062-6.827-6.827s3.062-6.827,6.827-6.827c3.765,0,6.827,3.062,6.827,6.827S44.122,95.568,40.357,95.568z"
   id="path62"
   style="fill:#9bc325;fill-opacity:1;stroke:#9bc325;stroke-opacity:1;stroke-width:4.3;stroke-miterlimit:4;stroke-dasharray:none" />
	</g>
</g>
<g
   id="g72"
   style="fill:#9bc325;fill-opacity:1;stroke:#9bc325;stroke-opacity:1;stroke-width:4.3;stroke-miterlimit:4;stroke-dasharray:none">
	<g
   id="g70"
   style="fill:#9bc325;fill-opacity:1;stroke:#9bc325;stroke-opacity:1;stroke-width:4.3;stroke-miterlimit:4;stroke-dasharray:none">
		<path
   d="M74.491,105.808c-7.528,0-13.653,6.125-13.653,13.653c0,7.528,6.125,13.653,13.653,13.653    c7.528,0,13.653-6.125,13.653-13.653C88.144,111.933,82.019,105.808,74.491,105.808z M74.491,126.288    c-3.765,0-6.827-3.062-6.827-6.827s3.062-6.827,6.827-6.827s6.827,3.062,6.827,6.827S78.255,126.288,74.491,126.288z"
   id="path68"
   style="fill:#9bc325;fill-opacity:1;stroke:#9bc325;stroke-opacity:1;stroke-width:4.3;stroke-miterlimit:4;stroke-dasharray:none" />
	</g>
</g>
<g
   id="g78"
   style="fill:#9bc325;fill-opacity:1;stroke:#9bc325;stroke-opacity:1;stroke-width:4.3;stroke-miterlimit:4;stroke-dasharray:none">
	<g
   id="g76"
   style="fill:#9bc325;fill-opacity:1;stroke:#9bc325;stroke-opacity:1;stroke-width:4.3;stroke-miterlimit:4;stroke-dasharray:none">
		<path
   d="M74.491,143.355c-7.528,0-13.653,6.125-13.653,13.653c0,7.528,6.125,13.653,13.653,13.653    c7.528,0,13.653-6.125,13.653-13.653C88.144,149.48,82.019,143.355,74.491,143.355z M74.491,163.835    c-3.765,0-6.827-3.062-6.827-6.827c0-3.765,3.062-6.827,6.827-6.827s6.827,3.062,6.827,6.827    C81.317,160.773,78.255,163.835,74.491,163.835z"
   id="path74"
   style="fill:#9bc325;fill-opacity:1;stroke:#9bc325;stroke-opacity:1;stroke-width:4.3;stroke-miterlimit:4;stroke-dasharray:none" />
	</g>
</g>
<g
   id="g84"
   style="fill:#9bc325;fill-opacity:1;stroke:#9bc325;stroke-opacity:1;stroke-width:4.3;stroke-miterlimit:4;stroke-dasharray:none">
	<g
   id="g82"
   style="fill:#9bc325;fill-opacity:1;stroke:#9bc325;stroke-opacity:1;stroke-width:4.3;stroke-miterlimit:4;stroke-dasharray:none">
		<path
   d="M64.251,51.195c-1.884,0-3.413,1.529-3.413,3.413v34.133c0,1.884,1.529,3.413,3.413,3.413    c1.886,0,3.413-1.527,3.413-3.413V54.608C67.664,52.724,66.135,51.195,64.251,51.195z"
   id="path80"
   style="fill:#9bc325;fill-opacity:1;stroke:#9bc325;stroke-opacity:1;stroke-width:4.3;stroke-miterlimit:4;stroke-dasharray:none" />
	</g>
</g>
<g
   id="g90"
   style="fill:#9bc325;fill-opacity:1;stroke:#9bc325;stroke-opacity:1;stroke-width:4.3;stroke-miterlimit:4;stroke-dasharray:none">
	<g
   id="g88"
   style="fill:#9bc325;fill-opacity:1;stroke:#9bc325;stroke-opacity:1;stroke-width:4.3;stroke-miterlimit:4;stroke-dasharray:none">
		<path
   d="M74.491,85.328H50.597c-1.884,0-3.413,1.529-3.413,3.413c0,1.884,1.529,3.413,3.413,3.413h23.893    c1.886,0,3.413-1.529,3.413-3.413C77.904,86.857,76.375,85.328,74.491,85.328z"
   id="path86"
   style="fill:#9bc325;fill-opacity:1;stroke:#9bc325;stroke-opacity:1;stroke-width:4.3;stroke-miterlimit:4;stroke-dasharray:none" />
	</g>
</g>
<g
   id="g96"
   style="fill:#9bc325;fill-opacity:1;stroke:#9bc325;stroke-opacity:1;stroke-width:4.3;stroke-miterlimit:4;stroke-dasharray:none">
	<g
   id="g94"
   style="fill:#9bc325;fill-opacity:1;stroke:#9bc325;stroke-opacity:1;stroke-width:4.3;stroke-miterlimit:4;stroke-dasharray:none">
		<path
   d="M74.491,85.328c-1.884,0-3.413,1.529-3.413,3.413v20.48c0,1.884,1.529,3.413,3.413,3.413c1.886,0,3.413-1.527,3.413-3.413    v-20.48C77.904,86.857,76.375,85.328,74.491,85.328z"
   id="path92"
   style="fill:#9bc325;fill-opacity:1;stroke:#9bc325;stroke-opacity:1;stroke-width:4.3;stroke-miterlimit:4;stroke-dasharray:none" />
	</g>
</g>
<g
   id="g102"
   style="fill:#9bc325;fill-opacity:1;stroke:#9bc325;stroke-opacity:1;stroke-width:4.3;stroke-miterlimit:4;stroke-dasharray:none">
	<g
   id="g100"
   style="fill:#9bc325;fill-opacity:1;stroke:#9bc325;stroke-opacity:1;stroke-width:4.3;stroke-miterlimit:4;stroke-dasharray:none">
		<path
   d="M74.491,126.288c-1.884,0-3.413,1.529-3.413,3.413v17.067c0,1.884,1.529,3.413,3.413,3.413    c1.886,0,3.413-1.527,3.413-3.413v-17.067C77.904,127.817,76.375,126.288,74.491,126.288z"
   id="path98"
   style="fill:#9bc325;fill-opacity:1;stroke:#9bc325;stroke-opacity:1;stroke-width:4.3;stroke-miterlimit:4;stroke-dasharray:none" />
	</g>
</g>
<g
   id="g104"
   style="stroke:#9bc325;stroke-opacity:1;fill:#9bc325;fill-opacity:1;stroke-width:4.3;stroke-miterlimit:4;stroke-dasharray:none">
</g>
<g
   id="g106"
   style="stroke:#9bc325;stroke-opacity:1;fill:#9bc325;fill-opacity:1;stroke-width:4.3;stroke-miterlimit:4;stroke-dasharray:none">
</g>
<g
   id="g108"
   style="stroke:#9bc325;stroke-opacity:1;fill:#9bc325;fill-opacity:1;stroke-width:4.3;stroke-miterlimit:4;stroke-dasharray:none">
</g>
<g
   id="g110"
   style="stroke:#9bc325;stroke-opacity:1;fill:#9bc325;fill-opacity:1;stroke-width:4.3;stroke-miterlimit:4;stroke-dasharray:none">
</g>
<g
   id="g112"
   style="stroke:#9bc325;stroke-opacity:1;fill:#9bc325;fill-opacity:1;stroke-width:4.3;stroke-miterlimit:4;stroke-dasharray:none">
</g>
<g
   id="g114"
   style="stroke:#9bc325;stroke-opacity:1;fill:#9bc325;fill-opacity:1;stroke-width:4.3;stroke-miterlimit:4;stroke-dasharray:none">
</g>
<g
   id="g116"
   style="stroke:#9bc325;stroke-opacity:1;fill:#9bc325;fill-opacity:1;stroke-width:4.3;stroke-miterlimit:4;stroke-dasharray:none">
</g>
<g
   id="g118"
   style="stroke:#9bc325;stroke-opacity:1;fill:#9bc325;fill-opacity:1;stroke-width:4.3;stroke-miterlimit:4;stroke-dasharray:none">
</g>
<g
   id="g120"
   style="stroke:#9bc325;stroke-opacity:1;fill:#9bc325;fill-opacity:1;stroke-width:4.3;stroke-miterlimit:4;stroke-dasharray:none">
</g>
<g
   id="g122"
   style="stroke:#9bc325;stroke-opacity:1;fill:#9bc325;fill-opacity:1;stroke-width:4.3;stroke-miterlimit:4;stroke-dasharray:none">
</g>
<g
   id="g124"
   style="stroke:#9bc325;stroke-opacity:1;fill:#9bc325;fill-opacity:1;stroke-width:4.3;stroke-miterlimit:4;stroke-dasharray:none">
</g>
<g
   id="g126"
   style="stroke:#9bc325;stroke-opacity:1;fill:#9bc325;fill-opacity:1;stroke-width:4.3;stroke-miterlimit:4;stroke-dasharray:none">
</g>
<g
   id="g128"
   style="stroke:#9bc325;stroke-opacity:1;fill:#9bc325;fill-opacity:1;stroke-width:4.3;stroke-miterlimit:4;stroke-dasharray:none">
</g>
<g
   id="g130"
   style="stroke:#9bc325;stroke-opacity:1;fill:#9bc325;fill-opacity:1;stroke-width:4.3;stroke-miterlimit:4;stroke-dasharray:none">
</g>
<g
   id="g132"
   style="stroke:#9bc325;stroke-opacity:1;fill:#9bc325;fill-opacity:1;stroke-width:4.3;stroke-miterlimit:4;stroke-dasharray:none">
</g>
</svg>