<?xml version="1.0" encoding="UTF-8" standalone="no"?>
<!-- Generator: Adobe Illustrator 23.0.6, SVG Export Plug-In . SVG Version: 6.00 Build 0)  -->

<svg
   xmlns:dc="http://purl.org/dc/elements/1.1/"
   xmlns:cc="http://creativecommons.org/ns#"
   xmlns:rdf="http://www.w3.org/1999/02/22-rdf-syntax-ns#"
   xmlns:svg="http://www.w3.org/2000/svg"
   xmlns="http://www.w3.org/2000/svg"
   xmlns:sodipodi="http://sodipodi.sourceforge.net/DTD/sodipodi-0.dtd"
   xmlns:inkscape="http://www.inkscape.org/namespaces/inkscape"
   version="1.1"
   id="Ebene_1"
   x="0px"
   y="0px"
   viewBox="0 0 300.18112 65.297284"
   xml:space="preserve"
   sodipodi:docname="bredex.svg"
   width="300.18112"
   height="65.297287"
   inkscape:version="0.92.3 (2405546, 2018-03-11)"><metadata
   id="metadata23"><rdf:RDF><cc:Work
       rdf:about=""><dc:format>image/svg+xml</dc:format><dc:type
         rdf:resource="http://purl.org/dc/dcmitype/StillImage" /><dc:title></dc:title></cc:Work></rdf:RDF></metadata><defs
   id="defs21" /><sodipodi:namedview
   pagecolor="#ffffff"
   bordercolor="#666666"
   borderopacity="1"
   objecttolerance="10"
   gridtolerance="10"
   guidetolerance="10"
   inkscape:pageopacity="0"
   inkscape:pageshadow="2"
   inkscape:window-width="1895"
   inkscape:window-height="1052"
   id="namedview19"
   showgrid="false"
   fit-margin-top="0"
   fit-margin-left="0"
   fit-margin-right="0"
   fit-margin-bottom="0"
   inkscape:zoom="3.1716166"
   inkscape:cx="160.93361"
   inkscape:cy="14.719737"
   inkscape:window-x="25"
   inkscape:window-y="0"
   inkscape:window-maximized="1"
   inkscape:current-layer="Ebene_1" />
<style
   type="text/css"
   id="style2">
	.st0{fill:#4E4E51;}
	.st1{fill:#008872;}
	.st2{fill:#D70926;}
</style>






<g
   id="g829"
   transform="scale(1.0589894)"><polygon
     transform="translate(-279,-267.28)"
     style="fill:#4e4e51"
     id="polygon4"
     points="446.01,290.01 432.01,290.01 432.01,280.61 445.78,280.61 450.02,274.61 425.32,274.61 425.32,311.73 449.48,311.73 449.48,305.72 432.01,305.72 432.01,296.32 446.01,296.32 "
     class="st0" /><path
     style="fill:#4e4e51"
     inkscape:connector-curvature="0"
     id="path6"
     d="m 88.3,44.44 c 2.26,0 4.24,-0.25 5.93,-0.75 1.68,-0.5 3,-1.11 3.95,-1.84 0.95,-0.73 1.72,-1.61 2.31,-2.66 0.59,-1.05 0.97,-2 1.14,-2.87 0.17,-0.87 0.26,-1.81 0.26,-2.81 0,-4.15 -2.16,-7.01 -6.47,-8.56 2.93,-1.53 4.4,-3.93 4.4,-7.2 0,-1.92 -0.36,-3.58 -1.09,-4.99 C 98,11.35 97.01,10.27 95.75,9.51 94.49,8.75 93.14,8.2 91.69,7.84 90.24,7.49 88.66,7.31 86.96,7.31 H 73.6 V 44.44 Z M 80.28,28.35 h 7.45 c 4.98,0 7.47,1.6 7.47,4.81 0,3.59 -2.41,5.38 -7.23,5.38 h -7.69 z m 0,-15.3 h 6.58 c 4.19,0 6.28,1.64 6.28,4.92 0,2.99 -1.93,4.48 -5.79,4.48 h -7.07 z m 35.92,31.39 v -13.1 h 6.01 l 8.86,13.1 h 8.07 l -9.76,-14.21 c 5.44,-1.66 8.15,-5.31 8.15,-10.97 0,-3.84 -1.21,-6.79 -3.62,-8.85 -2.41,-2.06 -5.79,-3.1 -10.15,-3.1 H 109.5 v 37.13 z m 0,-30.82 h 7.39 c 2.26,0 4.04,0.4 5.33,1.19 1.29,0.79 1.93,2.33 1.93,4.61 0,2.25 -0.64,3.78 -1.93,4.59 -1.29,0.81 -3.06,1.21 -5.33,1.21 h -7.39 z m 75.98,30.82 c 5.77,0 10.13,-1.58 13.1,-4.73 2.96,-3.15 4.45,-7.75 4.45,-13.81 0,-6.09 -1.49,-10.71 -4.46,-13.86 -2.98,-3.15 -7.34,-4.73 -13.09,-4.73 h -12.81 v 37.13 z m -6.12,-31.12 h 6.12 c 3.86,0 6.64,0.98 8.33,2.93 1.69,1.96 2.54,5.17 2.54,9.65 0,4.44 -0.85,7.64 -2.54,9.59 -1.69,1.96 -4.47,2.93 -8.33,2.93 h -6.12 z m 55.06,31.12 v -6.01 h -17.48 v -9.4 h 14 v -6.31 h -14 v -9.4 h 13.77 l 4.24,-6.01 h -24.71 v 37.13 z m 14.82,0 9.35,-13.24 9.35,13.24 h 8.13 L 269.42,25.41 282.17,7.31 h -7.85 l -8.78,12.53 -8.86,-12.53 h -8.13 l 12.85,18.37 -13.18,18.75 h 7.72 z"
     class="st0" /><polygon
     transform="translate(-279,-267.28)"
     style="fill:#008872"
     id="polygon8"
     points="352.63,318.72 352.63,321.63 562.46,321.63 562.46,318.72 "
     class="st1" /><path
     style="fill:#d70926"
     inkscape:connector-curvature="0"
     id="path10"
     d="m 29.38,6.97 c 9.14,2.76 18.24,6.14 23.72,9.77 3.45,-0.59 5.59,-0.9 5.59,-0.9 V 0.02 C 56.77,0.13 43.03,2.86 29.38,6.97 Z"
     class="st2" /><path
     style="fill:#d70926"
     inkscape:connector-curvature="0"
     id="path12"
     d="m 53.05,44.93 c -2.5,-0.43 -5.7,-1 -9.28,-1.71 C 30.77,40.65 12.8,36.32 4.85,30.84 10.1,27.22 19.72,24.11 29.4,21.67 20.37,19.39 11.28,17.69 5.65,16.73 c -1.34,0.88 -2.47,1.78 -3.33,2.69 -2.47,2.61 -2.2,5.46 -2.2,5.46 v 5.96 0 5.96 c 0,0 -0.27,2.85 2.2,5.46 1.11,1.17 2.66,2.33 4.54,3.45 0.09,0.05 0.18,0.11 0.27,0.16 0.06,0.03 0.11,0.07 0.17,0.1 2.86,1.66 6.42,3.26 10.32,4.76 0.03,0.01 0.06,0.02 0.09,0.03 0.24,0.09 0.48,0.18 0.72,0.28 0.06,0.02 0.12,0.04 0.17,0.06 0.16,0.06 0.32,0.12 0.48,0.18 0.13,0.05 0.26,0.1 0.39,0.14 0.06,0.02 0.12,0.04 0.18,0.07 16.05,5.86 36.67,10.03 39.05,10.17 V 45.83 c 0,0.01 -2.16,-0.3 -5.65,-0.9 0,0 0,0 0,0 z"
     class="st2" /><path
     style="fill:#008872"
     inkscape:connector-curvature="0"
     id="path14"
     d="M 29.34,54.7 C 20.2,51.95 11.12,48.56 5.61,44.93 c -3.45,0.59 -5.6,0.9 -5.6,0.9 v 15.83 z"
     class="st1" /><path
     style="fill:#008872"
     inkscape:connector-curvature="0"
     id="path16"
     d="m 58.58,30.83 v 0 -5.96 c 0,0 0.27,-2.85 -2.2,-5.46 C 46.7,9.19 3.52,0.21 0,0 v 15.83 c 0,0 40.68,5.93 53.85,15 -5.24,3.61 -14.89,6.73 -24.55,9.17 9.05,2.28 18.14,3.98 23.74,4.94 1.33,-0.88 2.49,-1.79 3.34,-2.69 2.47,-2.61 2.2,-5.46 2.2,-5.46 z"
     class="st1" /></g>
</svg>