<?xml version="1.0" encoding="UTF-8" standalone="no"?>
<!-- Generator: Adobe Illustrator 19.0.0, SVG Export Plug-In . SVG Version: 6.00 Build 0)  -->

<svg
   xmlns:dc="http://purl.org/dc/elements/1.1/"
   xmlns:cc="http://creativecommons.org/ns#"
   xmlns:rdf="http://www.w3.org/1999/02/22-rdf-syntax-ns#"
   xmlns:svg="http://www.w3.org/2000/svg"
   xmlns="http://www.w3.org/2000/svg"
   xmlns:sodipodi="http://sodipodi.sourceforge.net/DTD/sodipodi-0.dtd"
   xmlns:inkscape="http://www.inkscape.org/namespaces/inkscape"
   version="1.1"
   id="Capa_1"
   x="0px"
   y="0px"
   viewBox="0 0 524.59998 379.65109"
   xml:space="preserve"
   sodipodi:docname="räume.svg"
   inkscape:version="0.92.3 (2405546, 2018-03-11)"
   width="524.59998"
   height="379.65109"><metadata
   id="metadata61"><rdf:RDF><cc:Work
       rdf:about=""><dc:format>image/svg+xml</dc:format><dc:type
         rdf:resource="http://purl.org/dc/dcmitype/StillImage" /><dc:title></dc:title></cc:Work></rdf:RDF></metadata><defs
   id="defs59">
	
	
	
	
	
	
	
	
	
	
	
</defs><sodipodi:namedview
   pagecolor="#ffffff"
   bordercolor="#666666"
   borderopacity="1"
   objecttolerance="10"
   gridtolerance="10"
   guidetolerance="10"
   inkscape:pageopacity="0"
   inkscape:pageshadow="2"
   inkscape:window-width="1920"
   inkscape:window-height="986"
   id="namedview57"
   showgrid="false"
   inkscape:zoom="0.65313973"
   inkscape:cx="-0.73776674"
   inkscape:cy="56.305808"
   inkscape:window-x="-11"
   inkscape:window-y="-11"
   inkscape:window-maximized="1"
   inkscape:current-layer="Capa_1"
   fit-margin-top="0"
   fit-margin-left="0"
   fit-margin-right="0"
   fit-margin-bottom="0" />
<path
   inkscape:connector-curvature="0"
   id="path2"
   d="m 510.3,357.8511 h -16.5 v -209 h 16.5 c 2.737,0 5.257,-1.491 6.575,-3.891 1.317,-2.4 1.222,-5.327 -0.247,-7.636 l -56,-88.000003 c -1.377,-2.164 -3.763,-3.474 -6.328,-3.474 H 305.406 l -35.606,-35.605 c -4.65095,-4.1886296 -9.58472,-4.9833296 -15,0 l -35.606,35.606 H 70.3 c -2.564,0 -4.951,1.31 -6.328,3.474 L 7.9719997,137.3251 c -1.469,2.309 -1.564,5.236 -0.247,7.636 1.318,2.399 3.8380003,3.89 6.5750003,3.89 h 16.5 v 209 H 14.3 c -4.142,0 -7.5000003,3.358 -7.5000003,7.5 0,4.142 3.3580003,7.5 7.5000003,7.5 h 496 c 4.142,0 7.5,-3.358 7.5,-7.5 0,-4.142 -3.358,-7.5 -7.5,-7.5 z M 450.183,60.851097 496.638,133.8511 H 393.406 l -73,-73.000003 z m -375.766,0 h 129.776 l -73,73.000003 H 27.963 Z M 45.8,148.8511 h 88.498 c 0.248,0 0.496,-0.013 0.744,-0.038 0.106,-0.01 0.21,-0.03 0.315,-0.045 0.137,-0.02 0.274,-0.036 0.411,-0.063 0.122,-0.024 0.24,-0.058 0.36,-0.088 0.117,-0.029 0.235,-0.056 0.351,-0.09 0.118,-0.036 0.233,-0.081 0.349,-0.122 0.115,-0.041 0.23,-0.079 0.344,-0.126 0.109,-0.045 0.213,-0.098 0.319,-0.148 0.115,-0.055 0.232,-0.106 0.345,-0.167 0.103,-0.055 0.2,-0.118 0.3,-0.177 0.11,-0.065 0.222,-0.128 0.329,-0.2 0.112,-0.075 0.217,-0.158 0.324,-0.239 0.088,-0.066 0.179,-0.127 0.264,-0.198 0.192,-0.157 0.376,-0.323 0.551,-0.499 L 262.3,23.957097 384.996,146.6521 c 0.175,0.175 0.36,0.341 0.551,0.499 0.085,0.07 0.175,0.131 0.263,0.197 0.108,0.081 0.214,0.165 0.326,0.24 0.106,0.071 0.217,0.133 0.326,0.198 0.101,0.061 0.199,0.124 0.303,0.179 0.112,0.06 0.227,0.111 0.342,0.165 0.107,0.051 0.213,0.104 0.323,0.15 0.112,0.046 0.226,0.083 0.339,0.124 0.117,0.042 0.233,0.087 0.353,0.124 0.114,0.035 0.23,0.06 0.345,0.089 0.122,0.031 0.242,0.065 0.366,0.089 0.132,0.026 0.265,0.042 0.398,0.061 0.109,0.016 0.217,0.036 0.328,0.047 0.246,0.024 0.493,0.037 0.74,0.037 H 478.8 v 209 h -161 v -104.5 c 0,-12.958 -10.542,-23.5 -23.5,-23.5 h -64 c -12.958,0 -23.5,10.542 -23.5,23.5 v 104.5 h -161 z"
   sodipodi:nodetypes="sccscccsccccscccsccsssssscccccccccccscccccccccccccccccscccccccccccscccssssccc"
   style="fill:#9bc325;fill-opacity:1;stroke:#9bc325;stroke-width:13.59999943;stroke-miterlimit:4;stroke-dasharray:none;stroke-opacity:1" /><path
   inkscape:connector-curvature="0"
   id="path12"
   d="m 179.8,215.8511 h -35 c -5.514,0 -10,4.486 -10,10 v 53.5 c 0,4.142 3.358,7.5 7.5,7.5 h 40 c 4.142,0 7.5,-3.358 7.5,-7.5 v -53.5 c 0,-5.514 -4.486,-10 -10,-10 z m -5,15 v 17 h -25 v -17 z m -25,41 v -9 h 25 v 9 z"
   style="fill:#9bc325;fill-opacity:1;stroke:#9bc325;stroke-opacity:1;stroke-width:2.8;stroke-miterlimit:4;stroke-dasharray:none" /><path
   inkscape:connector-curvature="0"
   id="path14"
   d="m 107.8,215.8511 h -35 c -5.514,0 -10,4.486 -10,10 v 53.5 c 0,4.142 3.358,7.5 7.5,7.5 h 40 c 4.142,0 7.5,-3.358 7.5,-7.5 v -53.5 c 0,-5.514 -4.486,-10 -10,-10 z m -5,15 v 17 h -25 v -17 z m -25,41 v -9 h 25 v 9 z"
   style="fill:#9bc325;fill-opacity:1;stroke:#9bc325;stroke-opacity:1;stroke-width:2.8;stroke-miterlimit:4;stroke-dasharray:none" /><path
   inkscape:connector-curvature="0"
   id="path20"
   d="m 414.3,286.8511 h 40 c 4.142,0 7.5,-3.358 7.5,-7.5 v -53.5 c 0,-5.514 -4.486,-10 -10,-10 h -35 c -5.514,0 -10,4.486 -10,10 v 53.5 c 0,4.142 3.358,7.5 7.5,7.5 z m 7.5,-15 v -9 h 25 v 9 z m 25,-41 v 17 h -25 v -17 z"
   style="fill:#9bc325;fill-opacity:1;stroke:#9bc325;stroke-opacity:1;stroke-width:2.8;stroke-miterlimit:4;stroke-dasharray:none" /><path
   inkscape:connector-curvature="0"
   id="path22"
   d="m 342.3,286.8511 h 40 c 4.142,0 7.5,-3.358 7.5,-7.5 v -53.5 c 0,-5.514 -4.486,-10 -10,-10 h -35 c -5.514,0 -10,4.486 -10,10 v 53.5 c 0,4.142 3.358,7.5 7.5,7.5 z m 7.5,-15 v -9 h 25 v 9 z m 25,-41 v 17 h -25 v -17 z"
   style="fill:#9bc325;fill-opacity:1;stroke:#9bc325;stroke-opacity:1;stroke-width:2.8;stroke-miterlimit:4;stroke-dasharray:none" />
<g
   id="g26"
   transform="translate(6.7999997,-118.1489)">
</g>
<g
   id="g28"
   transform="translate(6.7999997,-118.1489)">
</g>
<g
   id="g30"
   transform="translate(6.7999997,-118.1489)">
</g>
<g
   id="g32"
   transform="translate(6.7999997,-118.1489)">
</g>
<g
   id="g34"
   transform="translate(6.7999997,-118.1489)">
</g>
<g
   id="g36"
   transform="translate(6.7999997,-118.1489)">
</g>
<g
   id="g38"
   transform="translate(6.7999997,-118.1489)">
</g>
<g
   id="g40"
   transform="translate(6.7999997,-118.1489)">
</g>
<g
   id="g42"
   transform="translate(6.7999997,-118.1489)">
</g>
<g
   id="g44"
   transform="translate(6.7999997,-118.1489)">
</g>
<g
   id="g46"
   transform="translate(6.7999997,-118.1489)">
</g>
<g
   id="g48"
   transform="translate(6.7999997,-118.1489)">
</g>
<g
   id="g50"
   transform="translate(6.7999997,-118.1489)">
</g>
<g
   id="g52"
   transform="translate(6.7999997,-118.1489)">
</g>
<g
   id="g54"
   transform="translate(6.7999997,-118.1489)">
</g>
<path
   style="fill:#ffffff;stroke:none;stroke-width:1px;stroke-linecap:butt;stroke-linejoin:miter;stroke-opacity:1"
   d="m 223.15594,352.91204 76.10486,-0.31709 -0.40997,-92.18106 c -0.58945,-6.73523 -2.4539,-12.7419 -13.01406,-13.77959 h -48.99411 c -5.5277,0.0681 -13.23373,1.71114 -13.50894,12.61206 z"
   id="path107"
   inkscape:connector-curvature="0"
   sodipodi:nodetypes="ccccccc" /></svg>