<?xml version="1.0" encoding="UTF-8" standalone="no"?>
<svg
   xmlns:dc="http://purl.org/dc/elements/1.1/"
   xmlns:cc="http://creativecommons.org/ns#"
   xmlns:rdf="http://www.w3.org/1999/02/22-rdf-syntax-ns#"
   xmlns:svg="http://www.w3.org/2000/svg"
   xmlns="http://www.w3.org/2000/svg"
   xmlns:sodipodi="http://sodipodi.sourceforge.net/DTD/sodipodi-0.dtd"
   xmlns:inkscape="http://www.inkscape.org/namespaces/inkscape"
   version="1.1"
   viewBox="0 0 443.726 443.726"
   enable-background="new 0 0 443.726 443.726"
   id="svg8"
   sodipodi:docname="verpflegung.svg"
   inkscape:version="0.92.3 (2405546, 2018-03-11)">
  <metadata
     id="metadata14">
    <rdf:RDF>
      <cc:Work
         rdf:about="">
        <dc:format>image/svg+xml</dc:format>
        <dc:type
           rdf:resource="http://purl.org/dc/dcmitype/StillImage" />
        <dc:title></dc:title>
      </cc:Work>
    </rdf:RDF>
  </metadata>
  <defs
     id="defs12" />
  <sodipodi:namedview
     pagecolor="#ffffff"
     bordercolor="#666666"
     borderopacity="1"
     objecttolerance="10"
     gridtolerance="10"
     guidetolerance="10"
     inkscape:pageopacity="0"
     inkscape:pageshadow="2"
     inkscape:window-width="1920"
     inkscape:window-height="986"
     id="namedview10"
     showgrid="false"
     inkscape:zoom="0.53185974"
     inkscape:cx="313.05289"
     inkscape:cy="221.86301"
     inkscape:window-x="-11"
     inkscape:window-y="-11"
     inkscape:window-maximized="1"
     inkscape:current-layer="svg8" />
  <g
     id="g6"
     style="fill:#9bc325;fill-opacity:1;stroke:#9bc325;stroke-opacity:1;stroke-width:7.4;stroke-miterlimit:4;stroke-dasharray:none">
    <path
       d="m443.726,223.405c0-16.075-11.975-39.048-69.021-57.202-7.36-2.342-15.156-4.492-23.317-6.448l20.585-31.271c3.037-4.613 1.759-10.814-2.854-13.851-4.613-3.037-10.814-1.759-13.851,2.854l-24.893,37.816c-32.661-6.075-69.836-9.318-108.511-9.318-57.592,0-111.872,7.18-152.842,20.217-57.047,18.155-69.022,41.128-69.022,57.203 0,0.262 0.004,0.526 0.01,0.791 0.214,56.502 23.322,109.567 65.137,149.497 41.885,39.997 97.541,62.024 156.716,62.024 59.175,0 114.832-22.027 156.716-62.024 41.815-39.93 64.923-92.995 65.137-149.497 0.006-0.265 0.01-0.529 0.01-0.791zm-75.086-38.143c33.979,10.813 55.086,25.428 55.086,38.143 0,11.195-16.37,23.863-43.475,34.112-22.926-7.836-50.959-13.794-81.677-17.529l41.084-62.412c10.273,2.256 19.979,4.821 28.982,7.686zm-146.777,95.562c-44.779,0-87.305-4.445-122.571-12.67 35.188-8.169 78.072-12.688 122.568-12.688 14.127,0 28.089,0.459 41.697,1.342l-15.469,23.499c-8.628,0.342-17.382,0.517-26.225,0.517zm64.386-22.114c20.827,2.151 40.482,5.334 58.186,9.444-21.491,5.012-45.677,8.621-71.429,10.675l13.243-20.119zm-211.164-73.448c39.062-12.43 91.188-19.276 146.777-19.276 34.245,0 67.17,2.601 96.541,7.502l-42.267,64.209c-17.588-1.464-35.812-2.232-54.277-2.232-59.902,0-117.327,8.018-158.383,22.052-27.105-10.248-43.476-22.916-43.476-34.112 0-12.715 21.107-27.331 55.085-38.143zm146.778,230.455c-98.231,0-180.29-67.195-198.217-155.868 10.383,7.178 25.004,14.275 45.375,20.758 40.97,13.037 95.25,20.217 152.842,20.217s111.873-7.18 152.842-20.217c20.371-6.482 34.992-13.579 45.375-20.758-17.927,88.674-99.986,155.868-198.217,155.868z"
       id="path2"
       style="fill:#9bc325;fill-opacity:1;stroke:#9bc325;stroke-opacity:1;stroke-width:7.4;stroke-miterlimit:4;stroke-dasharray:none" />
    <path
       d="m148.704,108.922c19.702,7.821 45.684,12.128 73.159,12.128s53.457-4.307 73.159-12.128c22.625-8.981 35.086-22.075 35.086-36.87 0-18.983-20.087-34.697-55.112-43.111-5.369-1.291-10.77,2.017-12.059,7.387-1.29,5.37 2.017,10.769 7.387,12.059 26.118,6.275 39.784,16.654 39.784,23.664 0,4.32-5.883,11.699-22.465,18.281-17.41,6.911-40.771,10.717-65.78,10.717-25.009,0-48.37-3.806-65.78-10.717-16.582-6.582-22.465-13.962-22.465-18.281s5.883-11.699 22.465-18.281c11.605-4.607 25.862-7.824 41.481-9.464-1.48,3.617-0.753,7.926 2.183,10.863 1.953,1.953 4.512,2.929 7.071,2.929s5.119-0.976 7.071-2.929l15.044-15.044c3.905-3.905 3.905-10.237 0-14.142l-15.043-15.045c-3.906-3.905-10.237-3.905-14.142,0-3.593,3.592-3.871,9.234-0.854,13.155-18.773,1.708-36.093,5.493-50.189,11.088-22.625,8.981-35.086,22.075-35.086,36.87-0.001,14.796 12.46,27.89 35.085,36.871z"
       id="path4"
       style="fill:#9bc325;fill-opacity:1;stroke:#9bc325;stroke-opacity:1;stroke-width:7.4;stroke-miterlimit:4;stroke-dasharray:none" />
  </g>
</svg>
