<?xml version="1.0" encoding="utf-8"?>
<!-- Generator: Adobe Illustrator 16.0.0, SVG Export Plug-In . SVG Version: 6.00 Build 0)  -->
<!DOCTYPE svg PUBLIC "-//W3C//DTD SVG 1.1//EN" "http://www.w3.org/Graphics/SVG/1.1/DTD/svg11.dtd">
<svg version="1.1" id="Ebene_1" xmlns="http://www.w3.org/2000/svg" xmlns:xlink="http://www.w3.org/1999/xlink" x="0px" y="0px"
	 width="24px" height="24px" viewBox="0 0 24 24" enable-background="new 0 0 24 24" xml:space="preserve">
<title>Icon For Anchor-center</title>
<g>
	<path opacity="0.3" d="M12.011,0.813c-1.316,0-2.385,1.067-2.385,2.384c0,1.317,1.068,2.384,2.385,2.384
		c1.317,0,2.386-1.067,2.386-2.384C14.396,1.879,13.328,0.813,12.011,0.813z M12.011,5c-0.586,0-1.06-0.475-1.06-1.06h2.12
		C13.071,4.525,12.597,5,12.011,5z"/>
	<path d="M18.814,2.002c-0.403-0.398-1.053-0.395-1.449,0.008l-4.229,4.275c0,0-0.045-0.018-0.078-0.03
		c-0.295-0.149-0.621-0.24-0.971-0.254c-0.024-0.002-0.053-0.01-0.075-0.01c-0.004,0-0.008,0.002-0.011,0.002
		c-0.006,0-0.009-0.002-0.013-0.002c-0.021,0-0.051,0.008-0.074,0.01c-0.35,0.014-0.677,0.105-0.972,0.254
		c-0.034,0.013-0.077,0.03-0.077,0.03L6.635,2.01c-0.396-0.403-1.046-0.406-1.45-0.008C4.783,2.4,4.778,3.05,5.177,3.452
		l4.469,4.516C9.622,8.101,9.604,8.235,9.604,8.375v2.557L8.071,22.056c-0.077,0.561,0.313,1.077,0.876,1.154
		c0.047,0.007,0.094,0.01,0.141,0.01c0.504,0,0.944-0.372,1.015-0.887l0.963-6.991c0.285,0.118,0.597,0.186,0.923,0.186
		c0.004,0,0.007-0.002,0.013-0.002c0.003,0,0.007,0.002,0.011,0.002c0.327,0,0.639-0.067,0.922-0.186l0.964,6.991
		c0.071,0.515,0.511,0.887,1.014,0.887c0.047,0,0.096-0.003,0.142-0.01c0.563-0.077,0.953-0.594,0.877-1.154l-1.533-11.124V8.375
		c0-0.14-0.018-0.274-0.042-0.407l4.469-4.516C19.223,3.05,19.217,2.4,18.814,2.002z"/>
	<path opacity="0.3" d="M19.208,8.712c-0.172,0-0.339-0.089-0.432-0.249c-0.14-0.238-0.059-0.544,0.18-0.684l3.792-2.208
		c0.236-0.138,0.544-0.059,0.684,0.181c0.14,0.238,0.059,0.544-0.18,0.684L19.46,8.645C19.381,8.69,19.294,8.712,19.208,8.712z"/>
	<path opacity="0.3" d="M23,14.547c-0.094,0-0.188-0.026-0.272-0.08l-3.792-2.46c-0.231-0.15-0.297-0.46-0.147-0.691
		c0.151-0.232,0.463-0.297,0.692-0.147l3.792,2.459c0.231,0.15,0.297,0.46,0.147,0.692C23.324,14.467,23.163,14.547,23,14.547z"/>
	<path opacity="0.3" d="M4.792,8.712c-0.085,0-0.172-0.022-0.251-0.068L0.749,6.437C0.51,6.297,0.429,5.991,0.568,5.753
		c0.139-0.239,0.445-0.318,0.684-0.181L5.043,7.78c0.239,0.139,0.319,0.445,0.181,0.684C5.131,8.624,4.964,8.712,4.792,8.712z"/>
	<path opacity="0.3" d="M1,14.547c-0.164,0-0.324-0.08-0.42-0.228c-0.15-0.232-0.084-0.542,0.147-0.692l3.792-2.458
		c0.232-0.15,0.541-0.084,0.691,0.147c0.15,0.231,0.084,0.541-0.147,0.691l-3.792,2.459C1.188,14.521,1.094,14.547,1,14.547z"/>
</g>
</svg>
