<?xml version="1.0" encoding="utf-8"?>
<!-- Generator: Adobe Illustrator 16.0.0, SVG Export Plug-In . SVG Version: 6.00 Build 0)  -->
<!DOCTYPE svg PUBLIC "-//W3C//DTD SVG 1.1//EN" "http://www.w3.org/Graphics/SVG/1.1/DTD/svg11.dtd">
<svg version="1.1" id="Ebene_1" xmlns="http://www.w3.org/2000/svg" xmlns:xlink="http://www.w3.org/1999/xlink" x="0px" y="0px"
	 width="24px" height="24px" viewBox="0 0 24 24" enable-background="new 0 0 24 24" xml:space="preserve">
<title>Icon For Anchor-center</title>
<g>
	<rect x="3.037" y="17.519" width="17.88" height="1.718"/>
	<path opacity="0.3" d="M21.456,17.519H2.498c-0.281,0-0.51-0.328-0.51-0.734c0-0.409,0.229-0.737,0.51-0.737h18.958
		c0.281,0,0.51,0.328,0.51,0.737C21.966,17.19,21.737,17.519,21.456,17.519z"/>
	<path opacity="0.3" d="M21.456,20.708H2.498c-0.281,0-0.51-0.329-0.51-0.735s0.229-0.736,0.51-0.736h18.958
		c0.281,0,0.51,0.33,0.51,0.736S21.737,20.708,21.456,20.708z"/>
	<circle opacity="0.3" cx="11.977" cy="4.616" r="1.379"/>
	<circle opacity="0.3" cx="22.191" cy="5.062" r="1.378"/>
	<circle opacity="0.3" cx="1.704" cy="5.063" r="1.379"/>
	<path d="M22.587,6.781c-0.006,0.004-0.008,0.008-0.012,0.011c-0.055-0.158-0.179-0.291-0.354-0.332
		c-0.273-0.064-0.613,0.381-0.613,0.381l-2.775,3.638c0,0-0.098,0.131-0.269,0.313c-1.351,1.005-2.777,1.468-4.069,0.387
		c-0.211-0.195-0.422-0.416-0.635-0.7l0.935-1.524c-1.58-1.989-2.196-2.973-2.821-2.957c-0.623-0.016-1.238,0.968-2.82,2.957
		l0.936,1.524c-0.213,0.284-0.424,0.505-0.635,0.7c-1.292,1.081-2.719,0.618-4.069-0.387c-0.171-0.183-0.269-0.313-0.269-0.313
		L2.341,6.841c0,0-0.338-0.445-0.613-0.381C1.552,6.501,1.431,6.634,1.375,6.792c-0.002-0.003-0.007-0.007-0.01-0.011l0.004,0.022
		C1.367,6.806,1.365,6.807,1.364,6.811l0.12,0.813l1.507,8.424h0.031c2.979,0,5.958,0,8.937,0c0.012,0,0.021,0,0.031,0h8.938h0.031
		l1.508-8.424l0.12-0.813c-0.002-0.003-0.004-0.004-0.006-0.007L22.587,6.781z"/>
</g>
</svg>
