<?xml version="1.0" encoding="utf-8"?>
<!-- Generator: Adobe Illustrator 16.0.0, SVG Export Plug-In . SVG Version: 6.00 Build 0)  -->
<!DOCTYPE svg PUBLIC "-//W3C//DTD SVG 1.1//EN" "http://www.w3.org/Graphics/SVG/1.1/DTD/svg11.dtd">
<svg version="1.1" id="Ebene_1" xmlns="http://www.w3.org/2000/svg" xmlns:xlink="http://www.w3.org/1999/xlink" x="0px" y="0px"
	 width="24px" height="24px" viewBox="0 0 24 24" enable-background="new 0 0 24 24" xml:space="preserve">
<title>Icon For Baking-glove</title>
<g>
	<g>
		<rect x="10.664" y="9.842" width="2.762" height="1.871"/>
		<path d="M13.426,3.197v-0.92c0-0.763-0.617-1.381-1.381-1.381c-0.763,0-1.381,0.618-1.381,1.381v0.92H13.426z"/>
		<path d="M10.664,18.357v3.365c0,0.764,0.618,1.381,1.381,1.381c0.764,0,1.381-0.617,1.381-1.381v-3.365H10.664z"/>
	</g>
	<path opacity="0.3" d="M6.953,11.712c-0.389,0-0.776,0-1.165,0c-0.283,0-0.635-0.059-0.894,0.07
		c-0.533,0.266-1.019,0.703-1.508,1.043l-1.584,1.098c-0.885,0.611-0.885,1.615,0,2.229l1.585,1.098
		c0.351,0.242,0.701,0.488,1.052,0.729c0.363,0.25,0.623,0.381,1.067,0.379c0.483-0.002,0.965,0,1.447,0h9.004
		c1.075,0,1.956-0.881,1.956-1.957v-2.732c0-1.074-0.881-1.956-1.956-1.956H6.953z"/>
	<path opacity="0.3" d="M17.048,3.197c0.48,0,0.961-0.006,1.438-0.002c0.811,0.007,1.495,0.678,2.127,1.115l1.586,1.098
		c0.884,0.612,0.884,1.615,0,2.229l-1.586,1.098c-0.529,0.367-1.008,0.886-1.648,1.057c-0.59,0.158-1.31,0.051-1.917,0.051H8.043
		c-1.076,0-1.957-0.881-1.957-1.957V5.153c0-1.076,0.881-1.956,1.957-1.956H17.048z"/>
</g>
</svg>
