<?xml version="1.0" encoding="utf-8"?>
<!-- Generator: Adobe Illustrator 16.0.0, SVG Export Plug-In . SVG Version: 6.00 Build 0)  -->
<!DOCTYPE svg PUBLIC "-//W3C//DTD SVG 1.1//EN" "http://www.w3.org/Graphics/SVG/1.1/DTD/svg11.dtd">
<svg version="1.1" id="Ebene_1" xmlns="http://www.w3.org/2000/svg" xmlns:xlink="http://www.w3.org/1999/xlink" x="0px" y="0px"
	 width="24px" height="24px" viewBox="0 0 24 24" enable-background="new 0 0 24 24" xml:space="preserve">
<title>Icon For Baking-glove</title>
<g>
	<path d="M17.672,20.302c0.341-0.19,0.648-0.429,0.886-0.712c0.525-0.627,0.249-1.271,0.238-1.989
		c-0.012-0.802,0.5-0.623,0.902-1.248c1.614-2.508-0.718-2.815,0.057-4.17c0.36-0.629,0.998-0.976,0.996-1.784
		c-0.007-1.97-2.056-2.707-3.699-2.707l-5.667,0.603c0.145-1.089,0.674-3.2,0.257-4.298c-0.35-0.922-1.369-1.371-2.295-1.253
		c-1.674,0.212-1.971,2.28-2.392,3.594c-0.383,1.195-0.767,2.39-1.151,3.584C5.34,10.05,5,10.475,5,10.979l1.096,8.764
		c0,0.606,0.49,1.096,1.096,1.096c2.821,0,5.671,0.125,8.487,0.021C16.325,20.837,17.057,20.646,17.672,20.302z"/>
	<path opacity="0.3" d="M4.186,21.274c-0.503,0.009-0.943-0.363-1.008-0.874l-1.086-8.546c-0.07-0.547,0.318-1.048,0.866-1.118
		c0.541-0.073,1.048,0.317,1.118,0.866l1.087,8.546c0.07,0.548-0.318,1.048-0.866,1.118C4.259,21.271,4.223,21.273,4.186,21.274z"/>
</g>
</svg>
