<?xml version="1.0" encoding="utf-8"?>
<!-- Generator: Adobe Illustrator 16.0.0, SVG Export Plug-In . SVG Version: 6.00 Build 0)  -->
<!DOCTYPE svg PUBLIC "-//W3C//DTD SVG 1.1//EN" "http://www.w3.org/Graphics/SVG/1.1/DTD/svg11.dtd">
<svg version="1.1" id="Ebene_1" xmlns="http://www.w3.org/2000/svg" xmlns:xlink="http://www.w3.org/1999/xlink" x="0px" y="0px"
	 width="24px" height="24px" viewBox="0 0 24 24" enable-background="new 0 0 24 24" xml:space="preserve">
<g>
	<defs>
		<rect id="SVGID_1_" width="24" height="24"/>
	</defs>
	<clipPath id="SVGID_2_">
		<use xlink:href="#SVGID_1_"  overflow="visible"/>
	</clipPath>
	<g clip-path="url(#SVGID_2_)">
		<path fill="#FFFFFF" d="M23.954,4.569c-0.886,0.389-1.83,0.654-2.825,0.775c1.014-0.611,1.794-1.574,2.163-2.723
			c-0.951,0.555-2.005,0.959-3.127,1.184c-0.896-0.959-2.173-1.559-3.591-1.559c-2.717,0-4.92,2.203-4.92,4.917
			c0,0.39,0.045,0.765,0.127,1.124C7.691,8.094,4.066,6.13,1.64,3.161C1.213,3.883,0.974,4.722,0.974,5.636
			c0,1.71,0.87,3.213,2.188,4.096C2.355,9.706,1.596,9.484,0.934,9.116v0.061c0,2.385,1.693,4.374,3.946,4.827
			c-0.413,0.111-0.849,0.171-1.296,0.171c-0.314,0-0.615-0.03-0.916-0.086c0.631,1.953,2.445,3.377,4.604,3.417
			c-1.68,1.319-3.809,2.105-6.102,2.105c-0.39,0-0.779-0.023-1.17-0.067c2.189,1.394,4.768,2.209,7.557,2.209
			c9.054,0,14-7.496,14-13.986c0-0.209,0-0.42-0.016-0.63c0.961-0.688,1.8-1.56,2.46-2.548L23.954,4.569z"/>
	</g>
</g>
</svg>
